<mxfile modified="2022-08-06T18:34:24.659Z" host="app.diagrams.net" agent="5.0 (Windows NT 10.0; Win64; x64) AppleWebKit/537.36 (KHTML, like Gecko) Chrome/103.0.5060.134 Safari/537.36 Edg/103.0.1264.77" etag="YFxxeeuw5Z-K9Zobu4-X" version="15.9.1" type="github">
  <diagram id="7gcUSTIZ7YSJ5vT40chW" name="Page-1">
    <mxGraphModel dx="2792" dy="727" grid="1" gridSize="10" guides="1" tooltips="1" connect="1" arrows="1" fold="1" page="1" pageScale="1" pageWidth="1169" pageHeight="827" math="0" shadow="0">
      <root>
        <mxCell id="0" />
        <mxCell id="1" parent="0" />
        <mxCell id="jF0wqiFih3PrQ3tNJnIo-1" value="" style="shape=image;verticalLabelPosition=bottom;labelBackgroundColor=#ffffff;verticalAlign=top;aspect=fixed;imageAspect=0;image=data:image/svg+xml,PHN2ZyB4bWxuczpkYz0iaHR0cDovL3B1cmwub3JnL2RjL2VsZW1lbnRzLzEuMS8iIHhtbG5zOmNjPSJodHRwOi8vY3JlYXRpdmVjb21tb25zLm9yZy9ucyMiIHhtbG5zOnJkZj0iaHR0cDovL3d3dy53My5vcmcvMTk5OS8wMi8yMi1yZGYtc3ludGF4LW5zIyIgeG1sbnM6c3ZnPSJodHRwOi8vd3d3LnczLm9yZy8yMDAwL3N2ZyIgeG1sbnM9Imh0dHA6Ly93d3cudzMub3JnLzIwMDAvc3ZnIiB4bWxuczpzb2RpcG9kaT0iaHR0cDovL3NvZGlwb2RpLnNvdXJjZWZvcmdlLm5ldC9EVEQvc29kaXBvZGktMC5kdGQiIHhtbG5zOmlua3NjYXBlPSJodHRwOi8vd3d3Lmlua3NjYXBlLm9yZy9uYW1lc3BhY2VzL2lua3NjYXBlIiB2ZXJzaW9uPSIxLjEiIGlkPSJzdmc3ODgzMiIgaW5rc2NhcGU6dmVyc2lvbj0iMC45Mi4zICgyNDA1NTQ2LCAyMDE4LTAzLTExKSIgc29kaXBvZGk6ZG9jbmFtZT0iZG5zLnN2ZyIgeD0iMHB4IiB5PSIwcHgiIHZpZXdCb3g9IjAgMCA3Mi4wMDQ5OTUgNzEuOTk5OTk4IiB4bWw6c3BhY2U9InByZXNlcnZlIiB3aWR0aD0iNzIuMDA0OTk3IiBoZWlnaHQ9IjcyIj48bWV0YWRhdGEgaWQ9Im1ldGFkYXRhNjUwIj48cmRmOlJERj48Y2M6V29yayByZGY6YWJvdXQ9IiI+PGRjOmZvcm1hdD5pbWFnZS9zdmcreG1sPC9kYzpmb3JtYXQ+PGRjOnR5cGUgcmRmOnJlc291cmNlPSJodHRwOi8vcHVybC5vcmcvZGMvZGNtaXR5cGUvU3RpbGxJbWFnZSIvPjxkYzp0aXRsZS8+PC9jYzpXb3JrPjwvcmRmOlJERj48L21ldGFkYXRhPjxkZWZzIGlkPSJkZWZzNjQ4Ij4mI3hhOwkmI3hhOyYjeGE7CSYjeGE7JiN4YTsJJiN4YTsmI3hhOwkmI3hhOyYjeGE7CSYjeGE7JiN4YTsJJiN4YTsmI3hhOwkJJiN4YTsJJiN4YTsJCSYjeGE7CSYjeGE7CQkmI3hhOwkmI3hhOwkJJiN4YTsJPC9kZWZzPiYjeGE7PGZpbHRlciBpZD0iZmlsdGVyXzIiPiYjeGE7CTxmZUdhdXNzaWFuQmx1ciBpZD0iZmVHYXVzc2lhbkJsdXI3ODc3MyIgc3RkRGV2aWF0aW9uPSIyIi8+JiN4YTs8L2ZpbHRlcj4mI3hhOzxzb2RpcG9kaTpuYW1lZHZpZXcgYm9yZGVyY29sb3I9IiM2NjY2NjYiIGJvcmRlcm9wYWNpdHk9IjEiIGZpdC1tYXJnaW4tYm90dG9tPSIwIiBmaXQtbWFyZ2luLWxlZnQ9IjAiIGZpdC1tYXJnaW4tcmlnaHQ9IjAiIGZpdC1tYXJnaW4tdG9wPSIwIiBncmlkdG9sZXJhbmNlPSIxMCIgZ3VpZGV0b2xlcmFuY2U9IjEwIiBpZD0ibmFtZWR2aWV3Nzg4MzQiIGlua3NjYXBlOmN1cnJlbnQtbGF5ZXI9InN2Zzc4ODMyIiBpbmtzY2FwZTpjeD0iLTkuNTU1NDkxIiBpbmtzY2FwZTpjeT0iNDEuNDU4NDQ4IiBpbmtzY2FwZTpwYWdlb3BhY2l0eT0iMCIgaW5rc2NhcGU6cGFnZXNoYWRvdz0iMiIgaW5rc2NhcGU6d2luZG93LWhlaWdodD0iMTAxNyIgaW5rc2NhcGU6d2luZG93LW1heGltaXplZD0iMSIgaW5rc2NhcGU6d2luZG93LXdpZHRoPSIxOTIwIiBpbmtzY2FwZTp3aW5kb3cteD0iLTgiIGlua3NjYXBlOndpbmRvdy15PSItOCIgaW5rc2NhcGU6em9vbT0iNS43MTIyNDIyIiBvYmplY3R0b2xlcmFuY2U9IjEwIiBwYWdlY29sb3I9IiNmZmZmZmYiIHNob3dncmlkPSJmYWxzZSI+JiN4YTsJPC9zb2RpcG9kaTpuYW1lZHZpZXc+JiN4YTsmI3hhOzxjaXJjbGUgaWQ9ImVsbGlwc2U3ODc4NiIgc3R5bGU9ImZpbGw6IzAwNzJjNiIgY3g9IjM2LjAwNTAwMSIgY3k9IjM2IiByPSIzNiIvPiYjeGE7JiN4YTs8cGF0aCBpZD0icGF0aDc4Nzk0IiBpbmtzY2FwZTpjb25uZWN0b3ItY3VydmF0dXJlPSIwIiBzdHlsZT0iZmlsbDojZmZmZmZmO2ZpbGwtb3BhY2l0eTowLjIiIGQ9Im0gMTAuNTQ1LDYxLjQ2IGMgLTE0LjA2LC0xNC4wNiAtMTQuMDYsLTM2Ljg1IDAsLTUwLjkxIDE0LjA2LC0xNC4wNiAzNi44NiwtMTQuMDYgNTAuOTIsMCB6Ii8+JiN4YTsmI3hhOzxwYXRoIGlkPSJwYXRoNzg4MDIiIGlua3NjYXBlOmNvbm5lY3Rvci1jdXJ2YXR1cmU9IjAiIHN0eWxlPSJmaWxsOiNmZmZmZmY7ZmlsbC1vcGFjaXR5OjAuOCIgZD0ibSA2OS4xMzUsMzUuOTkgYyAwLC03LjQyIC0yLjUyLC0xNC41NyAtNy4xNiwtMjAuNCBsIC0wLjI2LC0wLjI3IGMgLTAuMTQsLTAuMTMgLTAuMTQsLTAuMjYgLTAuMjcsLTAuMzkgbCAtMi4xMiwtMi4yNiBjIC02LjIzLC02LjM2IC0xNC40NCwtOS44IC0yMy4zMiwtOS44IDAsMCAwLDAgLTAuMTMsMCBoIC0wLjEzIEMgMjYuOTk1LDMgMTguOTE1LDYuMzEgMTIuNjg1LDEyLjU0IGwgLTIuMjUsMi4zOSBjIC0wLjEzLDAuMTMgLTAuMTMsMC4yNiAtMC4yNiwwLjM5IGwgLTAuMjcsMC4xNCBjIC00LjUsNS44MyAtNy4wMiwxMy4xMSAtNy4wMiwyMC41MyAwLDcuNDIgMi41MiwxNC41OCA3LjE1LDIwLjQxIGwgMC4yNywwLjI2IGMgMC4xMywwLjEzIDAuMTMsMC4yNyAwLjI2LDAuNCBsIDIuMTIsMi4yNSBjIDYuMjMsNi4yMyAxNC4zMSw5LjY3IDIzLjA2LDkuNjcgaCAwLjEzIGMgMCwwIDAsMCAwLjEzLDAgOC43NSwwIDE3LjA5LC0zLjQ0IDIzLjMyLC05LjY3IGwgMi4xMiwtMi4zOCBjIDAuMTMsLTAuMTQgMC4xMywtMC4yNyAwLjI3LC0wLjQgbCAwLjI2LC0wLjI3IGMgNC42NCwtNS41NiA3LjE2LC0xMi44NSA3LjE2LC0yMC4yNyB6IE0gNTUuNzQ1LDE0LjQgYyAtMC4xMywwIC0wLjI2LDAuMTMgLTAuMzksMC4xMyAtMC4yNywwLjEzIC0wLjUzLDAuMjYgLTAuNjcsMC4yNiAtMC41MywwLjI3IC0xLjE5LDAuNCAtMS44NSwwLjY3IC0wLjEzLDAgLTAuMjcsMC4xMyAtMC40LDAuMTMgLTAuNzksMC4yNiAtMS40NiwwLjQgLTIuMjUsMC42NiAtMC4xMywwIC0wLjQsMC4xMyAtMC41MywwLjEzIC0xLjE5LC0zLjE4IC0yLjY1LC01Ljk2IC00LjM3LC04LjA4IDMuODQsMS4xOSA3LjQyLDMuMzEgMTAuNDYsNi4xIHogbSAtMjAsLTcuNjkgaCAwLjEzIGMgMy41OCwwIDcuMjksMy44NCA5Ljk0LDEwLjQ3IC0zLjA1LDAuNTMgLTYuMzYsMC43OSAtOS44MSwwLjc5IC0zLjQ0LDAgLTYuODksLTAuMjYgLTEwLjA3LC0wLjc5IDIuNTIsLTYuNDkgNi4yMywtMTAuMzQgOS44MSwtMTAuNDcgeiBtIC05LjQxLDEuNzIgYyAtMS41OSwyLjEyIC0zLjA1LDQuNzcgLTQuMjQsNy45NSAtMC4xMywwIC0wLjEzLDAgLTAuMjYsMCAtMC44LC0wLjI2IC0xLjU5LC0wLjM5IC0yLjI2LC0wLjY2IC0wLjEzLDAgLTAuMjYsLTAuMTMgLTAuMzksLTAuMTMgLTAuNTMsLTAuMjcgLTEuMiwtMC41MyAtMS43MywtMC44IC0wLjI2LC0wLjEzIC0wLjM5LC0wLjEzIC0wLjY2LC0wLjI2IC0wLjEzLC0wLjEzIC0wLjI2LC0wLjEzIC0wLjUzLC0wLjI3IDMuMDUsLTIuNTEgNi4zNiwtNC42MyAxMC4wNywtNS44MyB6IG0gLTEwLjA3LDQ5LjE2IGMgMC4xMywwIDAuMjcsLTAuMTMgMC40LC0wLjEzIDAuMjYsLTAuMTQgMC40LC0wLjE0IDAuNjYsLTAuMjcgMC41MywtMC4yNiAxLjE5LC0wLjQgMS44NiwtMC42NiAwLjEzLDAgMC4yNiwtMC4xMyAwLjM5LC0wLjEzIDAuOCwtMC4yNyAxLjQ2LC0wLjQgMi4yNiwtMC42NyAwLjEzLDAgMC4xMywwIDAuMjYsMCAxLjE5LDMuMDUgMi42NSw1LjgzIDQuMjQsNy45NSAtMy43MSwtMS4zMiAtNy4xNSwtMy40NCAtMTAuMDcsLTYuMDkgeiBtIDE5LjYxLDcuNjggaCAtMC4xMyBjIC0zLjU4LC0wLjEzIC03LjI5LC0zLjg0IC05LjgxLC0xMC4zMyAzLjE4LC0wLjUzIDYuNjMsLTAuOCAxMC4wNywtMC44IDMuNDUsMCA2LjYzLDAuMjcgOS44MSwwLjggLTIuNTIsNi40OSAtNi4zNiwxMC4zMyAtOS45NCwxMC4zMyB6IG0gOS40MSwtMS41OSBjIDEuNzIsLTIuMTIgMy4xOCwtNC45IDQuMzcsLTguMDggMC4xMywwIDAuNCwwLjEzIDAuNTMsMC4xMyAwLjc5LDAuMjcgMS41OSwwLjQgMi4yNSwwLjY3IDAuMTMsMCAwLjI3LDAuMTMgMC40LDAuMTMgMC42NiwwLjI2IDEuMTksMC40IDEuODUsMC42NiAwLjI3LDAuMTMgMC40LDAuMTMgMC42NywwLjI3IDAuMTMsMCAwLjI2LDAuMTMgMC41MywwLjI2IC0zLjE4LDIuNjUgLTYuNzYsNC43NyAtMTAuNiw1Ljk2IHogbSAxMy4zOCwtOS4xNCBjIC0wLjQsMCAtMC42NiwtMC4xMyAtMS4wNiwtMC4yNiAtMC40LC0wLjE0IC0wLjkzLC0wLjQgLTEuMzMsLTAuNTMgLTAuMTMsMCAtMC4yNiwtMC4xNCAtMC4zOSwtMC4xNCAtMS41OSwtMC42NiAtMy4zMiwtMS4wNiAtNS4wNCwtMS41OSAwLjQsLTEuNTkgMC44LC0zLjE4IDEuMDYsLTQuNzcgaCAtMy45NyBjIC0wLjI3LDEuNDYgLTAuNTMsMi43OSAtMC45MywzLjk4IC0zLjQ0LC0wLjY2IC03LjE1LC0wLjkzIC0xMSwtMC45MyAtMy45NywwIC03LjY4LDAuNCAtMTEuMjYsMS4wNiAtMC40LC0xLjMyIC0wLjY2LC0yLjY1IC0wLjkzLC00LjExIGggLTMuOTcgYyAwLjI2LDEuNzMgMC42NiwzLjMyIDEuMDYsNC45MSAtMS41OSwwLjM5IC0zLjE4LDAuOTIgLTQuNjQsMS40NSAtMC4xMywwLjE0IC0wLjQsMC4xNCAtMC41MywwLjI3IC0wLjQsMC4xMyAtMC45MywwLjQgLTEuMzIsMC41MyAtMC4yNywwIC0wLjY3LDAuMTMgLTAuOTMsMC4yNiBDIDkuNTA1LDQ5LjkgNy4yNTUsNDMuOTQgNi44NTUsMzcuODUgaCAzLjMyIHYgLTMuODQgaCAtMy4zMiBjIDAuNCwtNi4xIDIuNjUsLTExLjkzIDYuNSwtMTYuNTcgbCAwLjEzLC0wLjEzIGMgMC4yNiwwLjEzIDAuNjYsMC4yNyAwLjkzLDAuNCAwLjUzLDAuMjYgMC45MiwwLjQgMS40NSwwLjY2IDAuMTQsMCAwLjI3LDAuMTMgMC40LDAuMTMgMS40NiwwLjUzIDMuMDUsMS4wNiA0Ljc3LDEuNDYgLTAuNCwxLjQ2IC0wLjY2LDIuOTIgLTAuOTMsNC4zNyBoIDMuOTggYyAwLjI2LC0xLjE5IDAuNTMsLTIuNTEgMC43OSwtMy41NyAzLjU4LDAuNjYgNy40MiwxLjA2IDExLjI3LDEuMDYgMy44NCwwIDcuNTUsLTAuNCAxMC45OSwtMC45MyAwLjI3LDEuMDYgMC41MywyLjI1IDAuOCwzLjU4IGggMy45NyBjIC0wLjI2LC0xLjQ2IC0wLjUzLC0yLjkyIC0wLjkzLC00LjM4IDEuNzMsLTAuMzkgMy4zMiwtMC45MiA0LjkxLC0xLjU5IDAuMTMsMCAwLjM5LC0wLjEzIDAuNTMsLTAuMTMgMC41MywtMC4xMyAwLjkyLC0wLjQgMS40NSwtMC41MyAwLjI3LC0wLjEzIDAuNjcsLTAuMjYgMC45MywtMC40IDMuODQsNC43NyA2LjIzLDEwLjYgNi42MywxNi43IGggLTMuOTggdiAzLjg0IGggMy45OCBjIC0wLjY3LDUuOTYgLTIuOTIsMTEuOTIgLTYuNzYsMTYuNTYgeiIvPiYjeGE7JiN4YTs8cGF0aCBpZD0icGF0aDc4ODEwIiBpbmtzY2FwZTpjb25uZWN0b3ItY3VydmF0dXJlPSIwIiBzdHlsZT0iZmlsbDojZmZmZmZmIiBkPSJtIDI3LjY4NSwzNS44IGMgMCwxLjU3IC0wLjIxLDIuOTEgLTAuNjIsNC4wMiAtMC40MSwxLjEyIC0xLDIuMDMgLTEuNzYsMi43MyAtMC43NywwLjcxIC0xLjcsMS4yMyAtMi44LDEuNTYgLTEuMSwwLjMzIC0yLjQxLDAuNDkgLTMuOTIsMC40OSBoIC00LjA5IGMgLTAuMjksMCAtMC41NCwtMC4wOCAtMC43MywtMC4yNSAtMC4yLC0wLjE4IC0wLjMsLTAuNDYgLTAuMywtMC44NCBWIDI4LjU5IGMgMCwtMC4zOSAwLjEsLTAuNjcgMC4zLC0wLjg0IDAuMiwtMC4xNyAwLjQ0LC0wLjI2IDAuNzMsLTAuMjYgaCA0LjM5IGMgMS41MywwIDIuODIsMC4xOCAzLjg4LDAuNTQgMS4wNywwLjM1IDEuOTYsMC44OCAyLjY5LDEuNTggMC43MywwLjcxIDEuMjgsMS41NyAxLjY2LDIuNiAwLjM4LDEuMDMgMC41NywyLjIzIDAuNTcsMy41OSB6IG0gLTMuNiwwLjEyIGMgMCwtMC44MiAtMC4wOSwtMS41NyAtMC4yOCwtMi4yNyAtMC4xOSwtMC42OSAtMC41LC0xLjMgLTAuOTIsLTEuODEgLTAuNDIsLTAuNTEgLTAuOTUsLTAuOTEgLTEuNjEsLTEuMiAtMC42NiwtMC4yOCAtMS41MiwtMC40MyAtMi41OSwtMC40MyBoIC0xLjc2IHYgMTEuNjQgaCAxLjgyIGMgMC45NSwwIDEuNzUsLTAuMTIgMi40LC0wLjM3IDAuNjYsLTAuMjUgMS4yLC0wLjYyIDEuNjQsLTEuMTEgMC40MywtMC41IDAuNzYsLTEuMTIgMC45OCwtMS44NiAwLjIxLC0wLjc0IDAuMzIsLTEuNjEgMC4zMiwtMi41OSB6Ii8+JiN4YTsmI3hhOzxwYXRoIGlkPSJwYXRoNzg4MTgiIGlua3NjYXBlOmNvbm5lY3Rvci1jdXJ2YXR1cmU9IjAiIHN0eWxlPSJmaWxsOiNmZmZmZmYiIGQ9Im0gNDQuNjU1LDQzLjM5IGMgMCwwLjIgLTAuMDMsMC4zOCAtMC4xLDAuNTQgLTAuMDcsMC4xNiAtMC4xNywwLjI5IC0wLjI5LDAuNCAtMC4xMSwwLjExIC0wLjI2LDAuMTggLTAuNDIsMC4yMyAtMC4xNiwwLjA1IC0wLjMzLDAuMDcgLTAuNSwwLjA3IGggLTEuNDggYyAtMC4zMSwwIC0wLjU3LC0wLjAzIC0wLjgsLTAuMDkgLTAuMjIsLTAuMDYgLTAuNDMsLTAuMTcgLTAuNjIsLTAuMzQgLTAuMTksLTAuMTYgLTAuMzcsLTAuMzggLTAuNTUsLTAuNjYgLTAuMTcsLTAuMjggLTAuMzcsLTAuNjQgLTAuNTksLTEuMDggbCAtNC4yNiwtOCBjIC0wLjI1LC0wLjQ3IC0wLjUsLTAuOTkgLTAuNzUsLTEuNTQgLTAuMjYsLTAuNTUgLTAuNDksLTEuMDkgLTAuNjksLTEuNjEgaCAtMC4wMyBjIDAuMDQsMC42NCAwLjA2LDEuMjcgMC4wOCwxLjkgMC4wMiwwLjYzIDAuMDMsMS4yOCAwLjAzLDEuOTUgdiA4Ljk1IGMgMCwwLjA5IC0wLjAzLDAuMTcgLTAuMDgsMC4yNCAtMC4wNSwwLjA3IC0wLjEzLDAuMTMgLTAuMjUsMC4xOCAtMC4xMiwwLjA1IC0wLjI4LDAuMDkgLTAuNDgsMC4xMSAtMC4yLDAuMDMgLTAuNDcsMC4wNCAtMC43OCwwLjA0IC0wLjMxLDAgLTAuNTcsLTAuMDEgLTAuNzcsLTAuMDQgLTAuMiwtMC4wMiAtMC4zNiwtMC4wNiAtMC40NywtMC4xMSAtMC4xMiwtMC4wNSAtMC4yLC0wLjExIC0wLjI0LC0wLjE4IC0wLjA1LC0wLjA3IC0wLjA3LC0wLjE1IC0wLjA3LC0wLjI0IFYgMjguNzMgYyAwLC0wLjQxIDAuMTIsLTAuNzIgMC4zNiwtMC45MyAwLjI0LC0wLjIxIDAuNTQsLTAuMzEgMC45LC0wLjMxIGggMS44NiBjIDAuMzMsMCAwLjYyLDAuMDMgMC44NSwwLjA4IDAuMjMsMC4wNiAwLjQzLDAuMTYgMC42MSwwLjI5IDAuMTgsMC4xMyAwLjM1LDAuMzIgMC41MSwwLjU1IDAuMTYsMC4yMyAwLjMyLDAuNTIgMC40OSwwLjg3IGwgMy4zMyw2LjI1IGMgMC4xOSwwLjM4IDAuMzksMC43NSAwLjU4LDEuMTIgMC4xOSwwLjM2IDAuMzcsMC43MyAwLjU1LDEuMSAwLjE3LDAuMzYgMC4zNCwwLjcyIDAuNTEsMS4wOCAwLjE3LDAuMzUgMC4zMywwLjcgMC40OSwxLjA1IGggMC4wMSBjIC0wLjAyLC0wLjYxIC0wLjA0LC0xLjI2IC0wLjA2LC0xLjkzIC0wLjAxLC0wLjY3IC0wLjAxLC0xLjMxIC0wLjAxLC0xLjkxIHYgLTguMDMgYyAwLC0wLjA5IDAuMDIsLTAuMTcgMC4wNywtMC4yNCAwLjA1LC0wLjA3IDAuMTQsLTAuMTMgMC4yNywtMC4xOSAwLjEyLC0wLjA1IDAuMjgsLTAuMDkgMC40OSwtMC4xMSAwLjIsLTAuMDIgMC40NiwtMC4wMyAwLjc4LC0wLjAzIDAuMywwIDAuNTUsMC4wMSAwLjc1LDAuMDMgMC4yLDAuMDIgMC4zNiwwLjA2IDAuNDcsMC4xMSAwLjExLDAuMDYgMC4xOSwwLjEyIDAuMjMsMC4xOSAwLjA1LDAuMDcgMC4wNywwLjE1IDAuMDcsMC4yNCB6Ii8+JiN4YTsmI3hhOzxwYXRoIGlkPSJwYXRoNzg4MjYiIGlua3NjYXBlOmNvbm5lY3Rvci1jdXJ2YXR1cmU9IjAiIHN0eWxlPSJmaWxsOiNmZmZmZmYiIGQ9Im0gNTguNTM1LDM5LjQ3IGMgMCwwLjkgLTAuMTcsMS42OSAtMC41LDIuMzcgLTAuMzQsMC42OCAtMC43OSwxLjI0IC0xLjM3LDEuNyAtMC41NywwLjQ1IC0xLjI0LDAuNzkgLTIuMDEsMS4wMiAtMC43NiwwLjIzIC0xLjU5LDAuMzQgLTIuNDYsMC4zNCAtMC41OSwwIC0xLjE0LC0wLjA1IC0xLjY0LC0wLjE0IC0wLjUxLC0wLjEgLTAuOTYsLTAuMjIgLTEuMzUsLTAuMzUgLTAuMzksLTAuMTQgLTAuNzEsLTAuMjggLTAuOTcsLTAuNDMgLTAuMjYsLTAuMTUgLTAuNDUsLTAuMjggLTAuNTYsLTAuNCAtMC4xMiwtMC4xMSAtMC4yLC0wLjI4IC0wLjI1LC0wLjUgLTAuMDQsLTAuMjEgLTAuMDcsLTAuNTIgLTAuMDcsLTAuOTMgMCwtMC4yNyAwLjAxLC0wLjUgMC4wMywtMC42OSAwLjAxLC0wLjE4IDAuMDQsLTAuMzMgMC4wOCwtMC40NSAwLjA0LC0wLjExIDAuMSwtMC4xOSAwLjE2LC0wLjI0IDAuMDcsLTAuMDUgMC4xNCwtMC4wNyAwLjIzLC0wLjA3IDAuMTMsMCAwLjMsMC4wNyAwLjUzLDAuMjEgMC4yMiwwLjE1IDAuNTEsMC4zMSAwLjg2LDAuNDkgMC4zNiwwLjE3IDAuNzgsMC4zMyAxLjI3LDAuNDggMC40OCwwLjE0IDEuMDUsMC4yMiAxLjY5LDAuMjIgMC40MywwIDAuODEsLTAuMDUgMS4xNCwtMC4xNSAwLjM0LC0wLjExIDAuNjIsLTAuMjUgMC44NSwtMC40NCAwLjI0LC0wLjE4IDAuNDEsLTAuNDEgMC41NCwtMC42OCAwLjEyLC0wLjI4IDAuMTksLTAuNTggMC4xOSwtMC45MiAwLC0wLjM4IC0wLjExLC0wLjcyIC0wLjMyLC0wLjk5IC0wLjIxLC0wLjI4IC0wLjQ5LC0wLjUzIC0wLjgzLC0wLjc0IC0wLjM0LC0wLjIyIC0wLjczLC0wLjQyIC0xLjE2LC0wLjYxIC0wLjQzLC0wLjE5IC0wLjg4LC0wLjM5IC0xLjMzLC0wLjYxIC0wLjQ2LC0wLjIxIC0wLjkxLC0wLjQ1IC0xLjM0LC0wLjcyIC0wLjQzLC0wLjI3IC0wLjgyLC0wLjU5IC0xLjE1LC0wLjk2IC0wLjM0LC0wLjM4IC0wLjYyLC0wLjgyIC0wLjgzLC0xLjMzIC0wLjIyLC0wLjUxIC0wLjMyLC0xLjEzIC0wLjMyLC0xLjg0IDAsLTAuODIgMC4xNSwtMS41NCAwLjQ2LC0yLjE3IDAuMywtMC42MiAwLjcxLC0xLjEzIDEuMjMsLTEuNTQgMC41MSwtMC40MSAxLjEyLC0wLjcyIDEuODIsLTAuOTIgMC43LC0wLjIgMS40NSwtMC4zMSAyLjIzLC0wLjMxIDAuNDEsMCAwLjgxLDAuMDMgMS4yMiwwLjEgMC40LDAuMDYgMC43OCwwLjE0IDEuMTMsMC4yNSAwLjM1LDAuMSAwLjY3LDAuMjIgMC45NCwwLjM2IDAuMjgsMC4xMyAwLjQ2LDAuMjQgMC41NCwwLjMzIDAuMDksMC4wOCAwLjE1LDAuMTYgMC4xOCwwLjIyIDAuMDMsMC4wNiAwLjA2LDAuMTUgMC4wOCwwLjI1IDAuMDIsMC4xIDAuMDQsMC4yMyAwLjA1LDAuMzggMCwwLjE1IDAuMDEsMC4zNSAwLjAxLDAuNTggMCwwLjI1IC0wLjAxLDAuNDcgLTAuMDIsMC42NCAtMC4wMSwwLjE4IC0wLjA0LDAuMzMgLTAuMDcsMC40NCAtMC4wMywwLjExIC0wLjA3LDAuMiAtMC4xMywwLjI1IC0wLjA2LDAuMDYgLTAuMTMsMC4wOCAtMC4yMywwLjA4IC0wLjEsMCAtMC4yNSwtMC4wNiAtMC40NiwtMC4xOCAtMC4yMiwtMC4xMyAtMC40OCwtMC4yNiAtMC43OCwtMC40MSAtMC4zMSwtMC4xNCAtMC42NywtMC4yNyAtMS4wNywtMC4zOSAtMC40MSwtMC4xMiAtMC44NiwtMC4xOCAtMS4zNCwtMC4xOCAtMC4zOCwwIC0wLjcxLDAuMDQgLTAuOTksMC4xNCAtMC4yOCwwLjA5IC0wLjUyLDAuMjIgLTAuNzEsMC4zOCAtMC4xOSwwLjE2IC0wLjMzLDAuMzYgLTAuNDIsMC41OSAtMC4wOSwwLjIzIC0wLjE0LDAuNDcgLTAuMTQsMC43MyAwLDAuMzcgMC4xLDAuNyAwLjMxLDAuOTggMC4yMSwwLjI4IDAuNDksMC41MyAwLjgzLDAuNzQgMC4zNSwwLjIyIDAuNzUsMC40MiAxLjE5LDAuNjEgMC40NCwwLjE5IDAuODksMC4zOSAxLjM1LDAuNiAwLjQ2LDAuMjIgMC45MSwwLjQ2IDEuMzUsMC43MiAwLjQ0LDAuMjcgMC44MywwLjU5IDEuMTgsMC45NyAwLjM0LDAuMzcgMC42MiwwLjgyIDAuODMsMS4zMiAwLjIxLDAuNTIgMC4zMiwxLjExIDAuMzIsMS44IHoiLz4mI3hhOzwvc3ZnPg==;" parent="1" vertex="1">
          <mxGeometry x="-60.999999999999886" y="390" width="72" height="72" as="geometry" />
        </mxCell>
        <mxCell id="H6dcehHfoGX2-H9ADlRJ-90" style="edgeStyle=orthogonalEdgeStyle;rounded=0;orthogonalLoop=1;jettySize=auto;html=1;entryX=-0.04;entryY=0.55;entryDx=0;entryDy=0;entryPerimeter=0;" edge="1" parent="1" source="jF0wqiFih3PrQ3tNJnIo-3" target="jF0wqiFih3PrQ3tNJnIo-4">
          <mxGeometry relative="1" as="geometry" />
        </mxCell>
        <mxCell id="jF0wqiFih3PrQ3tNJnIo-3" value="" style="aspect=fixed;html=1;points=[];align=center;image;fontSize=12;image=img/lib/azure2/networking/Front_Doors.svg;" parent="1" vertex="1">
          <mxGeometry x="101" y="246.35" width="68" height="60" as="geometry" />
        </mxCell>
        <mxCell id="jF0wqiFih3PrQ3tNJnIo-4" value="" style="aspect=fixed;html=1;points=[];align=center;image;fontSize=12;image=img/lib/azure2/networking/Web_Application_Firewall_Policies_WAF.svg;" parent="1" vertex="1">
          <mxGeometry x="280.65" y="246.35" width="54.7" height="54.7" as="geometry" />
        </mxCell>
        <mxCell id="jF0wqiFih3PrQ3tNJnIo-17" value="" style="shape=image;verticalLabelPosition=bottom;labelBackgroundColor=#ffffff;verticalAlign=top;aspect=fixed;imageAspect=0;image=data:image/svg+xml,PHN2ZyB4bWxuczpkYz0iaHR0cDovL3B1cmwub3JnL2RjL2VsZW1lbnRzLzEuMS8iIHhtbG5zOmNjPSJodHRwOi8vY3JlYXRpdmVjb21tb25zLm9yZy9ucyMiIHhtbG5zOnJkZj0iaHR0cDovL3d3dy53My5vcmcvMTk5OS8wMi8yMi1yZGYtc3ludGF4LW5zIyIgeG1sbnM6c3ZnPSJodHRwOi8vd3d3LnczLm9yZy8yMDAwL3N2ZyIgeG1sbnM9Imh0dHA6Ly93d3cudzMub3JnLzIwMDAvc3ZnIiB4bWxuczpzb2RpcG9kaT0iaHR0cDovL3NvZGlwb2RpLnNvdXJjZWZvcmdlLm5ldC9EVEQvc29kaXBvZGktMC5kdGQiIHhtbG5zOmlua3NjYXBlPSJodHRwOi8vd3d3Lmlua3NjYXBlLm9yZy9uYW1lc3BhY2VzL2lua3NjYXBlIiB2ZXJzaW9uPSIxLjEiIGlkPSJzdmc3OTMzNSIgaW5rc2NhcGU6dmVyc2lvbj0iMC45Mi4zICgyNDA1NTQ2LCAyMDE4LTAzLTExKSIgc29kaXBvZGk6ZG9jbmFtZT0iZG9ja2VyLnN2ZyIgeD0iMHB4IiB5PSIwcHgiIHZpZXdCb3g9IjAgMCA5OS4yMiA4My4yMzk4NCIgeG1sOnNwYWNlPSJwcmVzZXJ2ZSIgd2lkdGg9Ijk5LjIyMDAwMSIgaGVpZ2h0PSI4My4yMzk4MzgiPjxtZXRhZGF0YSBpZD0ibWV0YWRhdGExMTIxIj48cmRmOlJERj48Y2M6V29yayByZGY6YWJvdXQ9IiI+PGRjOmZvcm1hdD5pbWFnZS9zdmcreG1sPC9kYzpmb3JtYXQ+PGRjOnR5cGUgcmRmOnJlc291cmNlPSJodHRwOi8vcHVybC5vcmcvZGMvZGNtaXR5cGUvU3RpbGxJbWFnZSIvPjxkYzp0aXRsZS8+PC9jYzpXb3JrPjwvcmRmOlJERj48L21ldGFkYXRhPjxkZWZzIGlkPSJkZWZzMTExOSI+JiN4YTsJJiN4YTsmI3hhOwkmI3hhOyYjeGE7CSYjeGE7CSYjeGE7CSYjeGE7JiN4YTsJJiN4YTsJJiN4YTsJJiN4YTsmI3hhOwkmI3hhOwkmI3hhOwkmI3hhOyYjeGE7CSYjeGE7CSYjeGE7CSYjeGE7JiN4YTsJJiN4YTsmI3hhOwkmI3hhOwkmI3hhOwkmI3hhOyYjeGE7CSYjeGE7CSYjeGE7CSYjeGE7JiN4YTsJJiN4YTsJJiN4YTsJJiN4YTsmI3hhOwkmI3hhOwkmI3hhOwkmI3hhOyYjeGE7CSYjeGE7CSYjeGE7CSYjeGE7JiN4YTsJJiN4YTsJJiN4YTsJJiN4YTsmI3hhOwkmI3hhOwkmI3hhOwkmI3hhOyYjeGE7CSYjeGE7CSYjeGE7CSYjeGE7JiN4YTsJJiN4YTsJJiN4YTsJJiN4YTsmI3hhOwkmI3hhOyYjeGE7CSYjeGE7JiN4YTsJJiN4YTsmI3hhOwkmI3hhOyYjeGE7CSYjeGE7JiN4YTsJCSYjeGE7CSYjeGE7CQkmI3hhOwkmI3hhOwkJJiN4YTsJJiN4YTsJCSYjeGE7CSYjeGE7CQkmI3hhOwkmI3hhOwkJJiN4YTsJJiN4YTsJCSYjeGE7CSYjeGE7CQkmI3hhOwkmI3hhOwkJJiN4YTsJJiN4YTsJCSYjeGE7CSYjeGE7CQkmI3hhOwkmI3hhOwkJJiN4YTsJJiN4YTsJCSYjeGE7CSYjeGE7CQkmI3hhOwkmI3hhOwkJJiN4YTsJJiN4YTsJCSYjeGE7CSYjeGE7CQkmI3hhOwkmI3hhOwkJJiN4YTsJJiN4YTsJCSYjeGE7CSYjeGE7CQkmI3hhOwkmI3hhOwkJCSYjeGE7CQkmI3hhOwkJCSYjeGE7CQkmI3hhOwkJCSYjeGE7CQkmI3hhOwkJCSYjeGE7CQk8L2RlZnM+JiN4YTs8ZmlsdGVyIGlkPSJmaWx0ZXJfMiI+JiN4YTsJPGZlR2F1c3NpYW5CbHVyIGlkPSJmZUdhdXNzaWFuQmx1cjc5MTUwIiBzdGREZXZpYXRpb249IjIiLz4mI3hhOzwvZmlsdGVyPiYjeGE7PHNvZGlwb2RpOm5hbWVkdmlldyBib3JkZXJjb2xvcj0iIzY2NjY2NiIgYm9yZGVyb3BhY2l0eT0iMSIgZml0LW1hcmdpbi1ib3R0b209IjAiIGZpdC1tYXJnaW4tbGVmdD0iMCIgZml0LW1hcmdpbi1yaWdodD0iMCIgZml0LW1hcmdpbi10b3A9IjAiIGdyaWR0b2xlcmFuY2U9IjEwIiBndWlkZXRvbGVyYW5jZT0iMTAiIGlkPSJuYW1lZHZpZXc3OTMzNyIgaW5rc2NhcGU6Y3VycmVudC1sYXllcj0ic3ZnNzkzMzUiIGlua3NjYXBlOmN4PSItMjQuMjM0MzIxIiBpbmtzY2FwZTpjeT0iNTUuNzcxNTY5IiBpbmtzY2FwZTpwYWdlb3BhY2l0eT0iMCIgaW5rc2NhcGU6cGFnZXNoYWRvdz0iMiIgaW5rc2NhcGU6d2luZG93LWhlaWdodD0iMTAxNyIgaW5rc2NhcGU6d2luZG93LW1heGltaXplZD0iMSIgaW5rc2NhcGU6d2luZG93LXdpZHRoPSIxOTIwIiBpbmtzY2FwZTp3aW5kb3cteD0iLTgiIGlua3NjYXBlOndpbmRvdy15PSItOCIgaW5rc2NhcGU6em9vbT0iMy4yOTk1NDQ5IiBvYmplY3R0b2xlcmFuY2U9IjEwIiBwYWdlY29sb3I9IiNmZmZmZmYiIHNob3dncmlkPSJmYWxzZSI+JiN4YTsJPC9zb2RpcG9kaTpuYW1lZHZpZXc+JiN4YTsmI3hhOzxwYXRoIGlkPSJwYXRoNzkxNjMiIGlua3NjYXBlOmNvbm5lY3Rvci1jdXJ2YXR1cmU9IjAiIHN0eWxlPSJmaWxsOiMzZjU3NjUiIGQ9Im0gNzMuNDYsNzggYyAyLjIzLC0xLjkxIDQuNDYsLTMuODMgNi42OSwtNS43NSAwLjc2LC0wLjY2IDEuNTksLTEuMzQgMi4zNSwtMi4wMyAtMC42MSwtMC43NiAtMS42MiwtMS4zMSAtMi40OCwtMS42NCAtMS43MywtMC42NiAtMy40NCwtMC40NCAtNS4wMywwLjQ4IC0yLjA5LDEuMiAtMi45NywzLjEyIC0yLjg5LDUuNSAwLjAzLDAuOTQgMC4yOCwxLjg0IDAuNzgsMi42NCAwLjE3LDAuMjggMC4zNywwLjU1IDAuNTgsMC44IHogbSAyLjU4LDEuODEgYyAxLjEsMC4zOCAyLjM0LDAuMzMgMy40NywwLjE0IDAuNTcsLTAuMjUgMi4wNCwtMC44OSAyLjU4LC0wLjggbCAwLjA4LDAuMDIgMC4wOCwwLjA0IGMgMC4zMywwLjE2IDAuNjQsMC4zOCAwLjgxLDAuNzIgMC40LDAuNzkgMC4yMSwxLjU3IC0wLjU3LDIuMDIgbCAtMC4yNSwwLjE1IGMgLTIuODUsMS42NSAtNS44OSwxLjQyIC04LjczLC0wLjEyIC0xLjM2LC0wLjczIC0yLjQsLTEuODIgLTMuMTcsLTMuMTYgbCAtMC4xOCwtMC4zMSBjIC0xLjgzLC0zLjE3IC0xLjU4LC02LjUgMC40OCwtOS41MiAwLjcyLC0xLjA0IDEuNjUsLTEuODUgMi43NCwtMi40OCBsIDAuNDEsLTAuMjMgYyAyLjY5LC0xLjU1IDUuNTcsLTEuNDUgOC4zMywtMC4wOSAxLjQ4LDAuNzMgMi42OCwxLjgzIDMuNTEsMy4yNiBsIDAuMTUsMC4yNiBjIDAuNiwxLjA0IC0wLjE4LDEuOTUgLTAuOTgsMi41NyAtMC45NCwwLjcyIC0xLjg4LDEuNTkgLTIuNzgsMi4zNiAtMS45OSwxLjcyIC0zLjk4LDMuNDUgLTUuOTgsNS4xNyB6IE0gOTcuNDEsNjUuMzkgaCAwLjMgYyAwLjksMCAxLjUxLDAuNjEgMS41MSwxLjUgMCwxLjI1IC0xLjIsMS41NyAtMi4yMiwxLjU3IC0xLjM2LDAgLTIuNjQsMC44MSAtMy41NywxLjczIC0xLjE3LDEuMTUgLTEuNjcsMi42MSAtMS42Nyw0LjIyIHYgNy4yOCBjIDAsMC44MyAtMC41MiwxLjUxIC0xLjM5LDEuNTEgaCAtMC4yNCBjIC0wLjg2LDAgLTEuMzgsLTAuNjggLTEuMzgsLTEuNTEgdiAtNy43IGMgMCwtMi45NSAxLjQ0LC01LjM2IDMuODQsLTcuMDYgMS40MywtMS4wMSAzLjA3LC0xLjU0IDQuODIsLTEuNTQgeiBtIC0zNy40Nyw1LjE2IGMgMS4xNiwtMS4xNyAyLjM0LC0yLjMzIDMuNTIsLTMuNDggMC4zMywtMC4zMiAxLjU4LC0xLjY4IDIuMDgsLTEuNjggaCAwLjUzIGwgMC4wNiwwLjAxIGMgMC42OSwwLjE0IDEuMiwwLjU4IDEuMiwxLjMxIHYgMC4zIGMgMCwwLjUgLTAuNTksMS4wOSAtMC45MSwxLjQzIC0wLjY5LDAuNzQgLTEuNDIsMS40NCAtMi4xMywyLjE2IGwgLTMuNjMsMy42OSBjIDEuNTcsMS41NiAzLjEzLDMuMTMgNC42OCw0LjcxIDAuNDMsMC40NCAwLjg2LDAuODggMS4yOCwxLjMyIDAuMTUsMC4xNiAwLjM3LDAuMzUgMC41LDAuNTcgMC4xMywwLjIxIDAuMjEsMC40NCAwLjIxLDAuNjggdiAwLjMxIGwgLTAuMDEsMC4wNyBjIC0wLjE3LDAuNjkgLTAuNjEsMS4yNCAtMS4zNywxLjI0IGggLTAuMjQgYyAtMC41LDAgLTEuMDYsLTAuNTYgLTEuNCwtMC44OCAtMC43LC0wLjY2IC0xLjM4LC0xLjM2IC0yLjA3LC0yLjAzIGwgLTIuMzEsLTIuMjcgdiAzLjYyIGMgMCwwLjg0IC0wLjUyLDEuNTEgLTEuMzgsMS41MSBoIC0wLjI0IGMgLTAuODYsMCAtMS4zOCwtMC42NyAtMS4zOCwtMS41MSBWIDYxLjIyIGMgMCwtMC44MyAwLjUyLC0xLjUgMS4zOCwtMS41IGggMC4yNCBjIDAuODYsMCAxLjM4LDAuNjcgMS4zOCwxLjUgdiA5LjMzIHogbSAtOS43NSwtMi4wMyBjIC0wLjQ2LC0wLjIxIC0xLjMxLC0wLjI5IC0xLjgsLTAuMyAtMi41MSwtMC4xIC00LjMzLDEuMzIgLTUuNCwzLjUzIC0wLjM2LDAuNzcgLTAuNTMsMS41OCAtMC41MywyLjQyIDAsMi41OCAxLjM1LDQuMzggMy42NSw1LjQ4IDAuODQsMC40IDEuOTIsMC40OCAyLjg0LDAuNDggMC44MSwwIDEuOTUsLTAuNSAyLjY2LC0wLjg0IGwgMC4xMywtMC4wNiBoIDAuNTYgbCAwLjA2LDAuMDIgYyAwLjY4LDAuMTQgMS4yLDAuNTcgMS4yLDEuMzEgdiAwLjMgYyAwLDEuODMgLTMuMzUsMi4yNSAtNC42MywyLjM0IC00LjUsMC4zMSAtNy44NywtMi4xNyAtOS4xNSwtNi40NiAtMC4yMywtMC43NSAtMC4zMywtMS40OSAtMC4zMywtMi4yNyB2IC0wLjYgYyAwLC0zLjI2IDEuNjIsLTUuODQgNC40MiwtNy41IDEuMywtMC43NyAyLjczLC0xLjE2IDQuMjUsLTEuMTYgaCAwLjU5IGMgMS42LDAgMy4wOCwwLjQ1IDQuNCwxLjM2IGwgMC4xMSwwLjA3IDAuMDcsMC4xMiBjIDAuMTQsMC4yMyAwLjI3LDAuNTEgMC4yNywwLjc5IHYgMC4zIGMgMCwwLjc2IC0wLjU4LDEuMTggLTEuMjcsMS4zMSBsIC0wLjA2LDAuMDEgaCAtMC4xOCBjIC0wLjQ1LDAgLTEuNDYsLTAuNDYgLTEuODYsLTAuNjUgeiBtIC0yNy40Miw1LjcxIGMgMCwyLjI5IDEuMTIsMy45NyAzLjA1LDUuMTUgMC45MSwwLjU2IDEuOSwwLjgxIDIuOTYsMC44MSAyLjI2LDAgMy45MywtMS4xNSA1LjA5LC0zLjA1IDAuNTYsLTAuOTEgMC44MSwtMS45MSAwLjgxLC0yLjk3IDAsLTIuMTIgLTEuMDMsLTMuNzUgLTIuNzgsLTQuOTIgLTAuOTYsLTAuNjUgLTIuMDIsLTAuOTcgLTMuMTgsLTAuOTcgLTIuNTIsMCAtNC4zMywxLjI3IC01LjQyLDMuNTMgLTAuMzcsMC43NiAtMC41MywxLjU4IC0wLjUzLDIuNDIgeiBtIDUuNjUsLTguOTYgaCAwLjQyIGMgMy40OSwwIDYuMTQsMS42OSA3LjgxLDQuNzMgMC42OCwxLjIyIDEuMDMsMi41NCAxLjAzLDMuOTQgdiAwLjU5IGMgMCwzLjI2IC0xLjYsNS44NiAtNC40MSw3LjUxIC0xLjMsMC43NiAtMi43NCwxLjE1IC00LjI1LDEuMTUgaCAtMC42IGMgLTMuMjYsMCAtNS44NSwtMS42MSAtNy41LC00LjQxIC0wLjc3LC0xLjMgLTEuMTYsLTIuNzQgLTEuMTYsLTQuMjUgdiAtMC41OSBjIDAsLTMuMjcgMS42MiwtNS44NSA0LjQxLC03LjUxIDEuMzEsLTAuNzcgMi43NCwtMS4xNiA0LjI1LC0xLjE2IHogTSAzLjA4LDc0LjIzIGMgMCwyLjM2IDEuMTQsNC4xMyAzLjIsNS4yNiAwLjg0LDAuNDUgMS43NCwwLjcgMi42OSwwLjcgMi4zMSwwIDQuMDMsLTEuMDkgNS4yMSwtMy4wNSAwLjU1LC0wLjkxIDAuODEsLTEuOTEgMC44MSwtMi45NyAwLC0yLjA0IC0wLjk3LC0zLjYzIC0yLjYyLC00LjgyIC0wLjk5LC0wLjcxIC0yLjEyLC0xLjA3IC0zLjM0LC0xLjA3IC0yLjUyLDAgLTQuMzMsMS4yNyAtNS40MiwzLjUzIC0wLjM3LDAuNzYgLTAuNTMsMS41OCAtMC41MywyLjQyIHogbSAxMS45MSwtNi43MiB2IC02LjM1IGMgMCwtMC44MyAwLjUyLC0xLjUgMS4zOCwtMS41IGggMC4yNCBjIDAuODcsMCAxLjM4LDAuNjcgMS4zOCwxLjUgdiAxMy4zNyBjIDAsMy4yNiAtMS42MSw1Ljg1IC00LjQxLDcuNTEgLTEuMywwLjc2IC0yLjc0LDEuMTYgLTQuMjUsMS4xNiBIIDguNzMgQyA1LjQ3LDgzLjIgMi44OCw4MS41OCAxLjIzLDc4Ljc4IDAuNDYsNzcuNDggMC4wNyw3Ni4wNCAwLjA3LDc0LjUzIHYgLTAuNTkgYyAwLC0zLjI2IDEuNjEsLTUuODYgNC40MSwtNy41MSAxLjMxLC0wLjc3IDIuNzQsLTEuMTYgNC4yNSwtMS4xNiBoIDAuNiBjIDIuMjEsMCA0LjA4LDAuODUgNS42NiwyLjI0IHoiLz4mI3hhOyYjeGE7PHBhdGggaWQ9InBhdGg3OTE3MSIgaW5rc2NhcGU6Y29ubmVjdG9yLWN1cnZhdHVyZT0iMCIgc3R5bGU9ImZpbGw6IzM5NGQ1NCIgZD0ibSA1Ny4yMywxNy43NSBoIDguODcgdiA5LjA3IGggNC40OSBjIDIuMDcsMCA0LjIsLTAuMzcgNi4xNiwtMS4wNCAwLjk2LC0wLjMyIDIuMDUsLTAuNzggMywtMS4zNSAtMS4yNiwtMS42NCAtMS44OSwtMy43IC0yLjA4LC01Ljc0IC0wLjI2LC0yLjc2IDAuMywtNi4zNyAyLjE3LC04LjUzIGwgMC45NCwtMS4wOCAxLjExLDAuODkgYyAyLjgsMi4yNSA1LjE1LDUuMzkgNS41Niw4Ljk3IDMuMzcsLTAuOTkgNy4zMywtMC43NiAxMC4zLDAuOTYgbCAxLjIyLDAuNyAtMC42NCwxLjI1IEMgOTUuODEsMjYuNzYgOTAuNTYsMjguMjcgODUuNDMsMjggNzcuNzUsNDcuMTQgNjEuMDIsNTYuMiA0MC43NSw1Ni4yIDMwLjI3LDU2LjIgMjAuNjYsNTIuMjggMTUuMTgsNDIuOTggTCAxNS4wOSw0Mi44MyAxNC4zLDQxLjIxIEMgMTIuNDUsMzcuMTIgMTEuODMsMzIuNjQgMTIuMjUsMjguMTYgbCAwLjEyLC0xLjM0IGggNy41OSB2IC05LjA3IGggOC44NyBWIDguODcgSCA0Ni41OCBWIDAgaCAxMC42NCB6Ii8+JiN4YTs8cGF0aCBkPSJtIDg1Ljk4MDMsMjEuMTAwMzMxIGMgMC41OSwtNC42MiAtMi44NywtOC4yNSAtNS4wMiwtOS45OCAtMi40NywyLjg2IC0yLjg1LDEwLjM1IDEuMDMsMTMuNTEgLTIuMTcsMS45MiAtNi43MywzLjY2IC0xMS40LDMuNjYgaCAtNTYuODcgYyAtMC40NSw0Ljg4IDAuNDEsOS4zNyAyLjM2LDEzLjIyIGwgMC42NSwxLjE4IGMgMC40MSwwLjY5IDAuODYsMS4zNiAxLjM0LDIuMDEgdiAwIGMgMi4zNCwwLjE1IDQuNDksMC4yIDYuNDYsMC4xNiAwLDAgMCwwIDAuMDEsMCAzLjg3LC0wLjA5IDcuMDMsLTAuNTQgOS40MywtMS4zNyAwLjM2LC0wLjEzIDAuNzUsMC4wNiAwLjg3LDAuNDIgMC4xMiwwLjM1IC0wLjA3LDAuNzQgLTAuNDIsMC44NyAtMC4zMiwwLjExIC0wLjY1LDAuMjEgLTEsMC4zMSB2IDAgYyAtMS44OSwwLjU0IC0zLjkxLDAuOSAtNi41MiwxLjA2IDAuMTYsMCAtMC4xNiwwLjAyIC0wLjE2LDAuMDIgLTAuMDksMC4wMSAtMC4yLDAuMDIgLTAuMjksMC4wMyAtMS4wMywwLjA1IC0yLjE0LDAuMDcgLTMuMjcsMC4wNyAtMS4yNCwwIC0yLjQ2LC0wLjAzIC0zLjgzLC0wLjEgbCAtMC4wMywwLjAzIGMgNC43Myw1LjMyIDEyLjE0LDguNTIgMjEuNDMsOC41MiAxOS42NSwwIDM2LjMyLC04LjcyIDQzLjcsLTI4LjI4IDUuMjQsMC41NCAxMC4yNywtMC43OSAxMi41NiwtNS4yNiAtMy42NCwtMi4xMSAtOC4zMywtMS40NCAtMTEuMDMsLTAuMDggeiIgc3R5bGU9ImZpbGw6IzAwYWFkYSIgaW5rc2NhcGU6Y29ubmVjdG9yLWN1cnZhdHVyZT0iMCIgaWQ9InBhdGg3OTE4MSIvPiYjeGE7PHBhdGggZD0ibSA4NS45Nzk3NiwyMS4xMDI3MjEgYyAwLjU5LC00LjYzIC0yLjg3LC04LjI2IC01LjAxLC05Ljk4IC0yLjQ4LDIuODYgLTIuODYsMTAuMzUgMS4wMiwxMy41MSAtMi4xNywxLjkyIC02LjczLDMuNjYgLTExLjQsMy42NiBoIC01My41IGMgLTAuMjMsNy40NyAyLjU0LDEzLjE0IDcuNDQsMTYuNTcgMCwwIDAsMCAwLjAxLDAgMy44NywtMC4wOSA3LjAzLC0wLjU1IDkuNDMsLTEuMzggMC4zNiwtMC4xMiAwLjc1LDAuMDcgMC44NywwLjQzIDAuMTIsMC4zNSAtMC4wNywwLjc0IC0wLjQyLDAuODYgLTAuMzIsMC4xMiAtMC42NSwwLjIyIC0xLDAuMzIgdiAwIGMgLTEuODksMC41MyAtNC4wOCwwLjk0IC02LjY5LDEuMTEgMCwwIC0wLjA3LC0wLjA3IC0wLjA3LC0wLjA2IDYuNjksMy40MyAxNi4zOSwzLjQxIDI3LjUxLC0wLjg2IDEyLjQ3LC00Ljc5IDI0LjA3LC0xMy45MSAzMi4xNiwtMjQuMzUgLTAuMTIsMC4wNSAtMC4yNCwwLjExIC0wLjM1LDAuMTcgeiIgc3R5bGU9ImZpbGw6IzI0YjhlYiIgaW5rc2NhcGU6Y29ubmVjdG9yLWN1cnZhdHVyZT0iMCIgaWQ9InBhdGg3OTE4OSIvPiYjeGE7PHBhdGggZD0ibSAxMy44MzEyMywzNC4yMjAzMzEgYyAwLjM1LDIuNjEgMS4xMiw1LjA2IDIuMjUsNy4yOCBsIDAuNjUsMS4xOSBjIDAuNDEsMC42OSAwLjg1LDEuMzYgMS4zNCwyLjAxIDIuMzQsMC4xNSA0LjQ5LDAuMiA2LjQ2LDAuMTYgMy44OCwtMC4wOSA3LjA0LC0wLjU0IDkuNDQsLTEuMzggMC4zNiwtMC4xMiAwLjc0LDAuMDcgMC44NywwLjQzIDAuMTIsMC4zNSAtMC4wNywwLjc0IC0wLjQyLDAuODcgLTAuMzIsMC4xMSAtMC42NiwwLjIxIC0xLDAuMzEgdiAwIGMgLTEuODksMC41NCAtNC4wNywwLjkyIC02LjY4LDEuMDggLTAuMDksMC4wMSAtMC4yNSwwLjAxIC0wLjM0LDAuMDIgLTEuMDIsMC4wNSAtMi4xMiwwLjA5IC0zLjI2LDAuMDkgLTEuMjQsMCAtMi41MSwtMC4wMiAtMy44NywtMC4wOSA0Ljc0LDUuMzIgMTIuMTksOC41MyAyMS40OCw4LjUzIDE2LjgyLDAgMzEuNDYsLTYuMzkgMzkuOTYsLTIwLjUgeiIgc3R5bGU9ImZpbGw6IzAwOGJiOCIgaW5rc2NhcGU6Y29ubmVjdG9yLWN1cnZhdHVyZT0iMCIgaWQ9InBhdGg3OTE5NyIvPiYjeGE7PHBhdGggZD0ibSAxNy42MDM4NiwzNC4yMTgzNDEgYyAxLjAxLDQuNTkgMy40Miw4LjE5IDYuOTMsMTAuNjQgMy44OCwtMC4wOCA3LjA0LC0wLjU0IDkuNDQsLTEuMzcgMC4zNSwtMC4xMyAwLjc0LDAuMDYgMC44NywwLjQyIDAuMTIsMC4zNiAtMC4wNywwLjc0IC0wLjQzLDAuODcgLTAuMzIsMC4xMSAtMC42NSwwLjIxIC0wLjk5LDAuMzEgdiAwIGMgLTEuODksMC41NCAtNC4xMiwwLjkyIC02LjczLDEuMDkgNi42OSwzLjQzIDE2LjM2LDMuMzggMjcuNDcsLTAuODkgNi43MywtMi41OSAxMy4yLC02LjQzIDE5LjAxLC0xMS4wNyB6IiBzdHlsZT0iZmlsbDojMDM5YmM2IiBpbmtzY2FwZTpjb25uZWN0b3ItY3VydmF0dXJlPSIwIiBpZD0icGF0aDc5MjA1Ii8+JiN4YTsmI3hhOzxwYXRoIGlkPSJwYXRoNzkyMTQiIGlua3NjYXBlOmNvbm5lY3Rvci1jdXJ2YXR1cmU9IjAiIHN0eWxlPSJmaWxsOiMzOTRkNTQiIGQ9Im0gMjMuMTYsNDYuMjUgYyAxLjEzLDAgMi4yMSwtMC4wMyAzLjI0LC0wLjA5IDAuMDksLTAuMDEgMC4xNywtMC4wMSAwLjI2LC0wLjAyIDAuMDEsMCAwLjAxLDAgMC4wMSwwIDIuNjEsLTAuMTYgNC44NywtMC41MSA2Ljc1LC0xLjA1IHYgMCBjIDAuMzUsLTAuMDkgMC42OCwtMC4yIDEsLTAuMzEgMC4zNSwtMC4xMiAwLjU0LC0wLjUxIDAuNDIsLTAuODcgLTAuMTIsLTAuMzUgLTAuNTEsLTAuNTQgLTAuODcsLTAuNDIgLTIuNCwwLjgzIC01LjU2LDEuMjkgLTkuNDMsMS4zNyB2IDAgYyAtMS45OCwwLjA1IC00LjEzLDAgLTYuNDcsLTAuMTUgdiAwIGMgLTAuMTIsLTAuMDEgLTAuMjQsLTAuMDIgLTAuMzYsLTAuMDMgLTAuMzcsLTAuMDIgLTAuNywwLjI2IC0wLjcyLDAuNjQgLTAuMDMsMC4zNyAwLjI1LDAuNyAwLjYzLDAuNzMgMC40OCwwLjAzIDAuOTUsMC4wNiAxLjQxLDAuMDggMC4wNywwIDAuMTQsMC4wMSAwLjIyLDAuMDEgMS4zNiwwLjA3IDIuNjcsMC4xMSAzLjkxLDAuMTEgeiIvPiYjeGE7PHBhdGggZD0ibSAyNy44ODI2LDE5Ljg2OTIzMSBoIDAuNjEgdiA2LjQgaCAtMC42MSB6IG0gLTEuMTYsMCBoIDAuNjMgdiA2LjQgaCAtMC42MyB6IG0gLTEuMTcsMCBoIDAuNjMgdiA2LjQgaCAtMC42MyB6IG0gLTEuMTYsMCBoIDAuNjMgdiA2LjQgaCAtMC42MyB6IG0gLTEuMTcsMCBoIDAuNjMgdiA2LjQgaCAtMC42MyB6IG0gLTEuMTQsMCBoIDAuNjEgdiA2LjQgaCAtMC42MSB6IG0gLTAuNjQsLTAuNjQgaCA3LjY5IHYgNy42OSBoIC03LjY5IHoiIHN0eWxlPSJmaWxsOiMwMGFjZDMiIGlua3NjYXBlOmNvbm5lY3Rvci1jdXJ2YXR1cmU9IjAiIGlkPSJwYXRoNzkyMjQiLz4mI3hhOzxwYXRoIGQ9Im0gMzYuNzU0NSwxMC45OTYwNjEgaCAwLjYxIHYgNi40MSBoIC0wLjYxIHogbSAtMS4xNiwwIGggMC42MyB2IDYuNDEgaCAtMC42MyB6IG0gLTEuMTcsMCBoIDAuNjMgdiA2LjQxIGggLTAuNjMgeiBtIC0xLjE2LDAgaCAwLjYzIHYgNi40MSBoIC0wLjYzIHogbSAtMS4xNywwIGggMC42MyB2IDYuNDEgaCAtMC42MyB6IG0gLTEuMTQsMCBoIDAuNjEgdiA2LjQxIGggLTAuNjEgeiBtIC0wLjY0LC0wLjY0IGggNy42OSB2IDcuNjkgaCAtNy42OSB6IiBzdHlsZT0iZmlsbDojMDBhY2QzIiBpbmtzY2FwZTpjb25uZWN0b3ItY3VydmF0dXJlPSIwIiBpZD0icGF0aDc5MjMyIi8+JiN4YTs8cGF0aCBkPSJtIDM2Ljc1NDUsMTkuODY5MjMxIGggMC42MSB2IDYuNCBoIC0wLjYxIHogbSAtMS4xNiwwIGggMC42MyB2IDYuNCBoIC0wLjYzIHogbSAtMS4xNywwIGggMC42MyB2IDYuNCBoIC0wLjYzIHogbSAtMS4xNiwwIGggMC42MyB2IDYuNCBoIC0wLjYzIHogbSAtMS4xNywwIGggMC42MyB2IDYuNCBoIC0wLjYzIHogbSAtMS4xNCwwIGggMC42MSB2IDYuNCBoIC0wLjYxIHogbSAtMC42NCwtMC42NCBoIDcuNjkgdiA3LjY5IGggLTcuNjkgeiIgc3R5bGU9ImZpbGw6IzIwYzJlZiIgaW5rc2NhcGU6Y29ubmVjdG9yLWN1cnZhdHVyZT0iMCIgaWQ9InBhdGg3OTI0MCIvPiYjeGE7PHBhdGggZD0ibSA0NS42Mjg5LDE5Ljg2OTIzMSBoIDAuNjEgdiA2LjQgaCAtMC42MSB6IG0gLTEuMTYsMCBoIDAuNjMgdiA2LjQgaCAtMC42MyB6IG0gLTEuMTcsMCBoIDAuNjMgdiA2LjQgaCAtMC42MyB6IG0gLTEuMTYsMCBoIDAuNjMgdiA2LjQgaCAtMC42MyB6IG0gLTEuMTcsMCBoIDAuNjMgdiA2LjQgaCAtMC42MyB6IG0gLTEuMTQsMCBoIDAuNjEgdiA2LjQgaCAtMC42MSB6IG0gLTAuNjQsLTAuNjQgaCA3LjY5IHYgNy42OSBoIC03LjY5IHoiIHN0eWxlPSJmaWxsOiMwMGFjZDMiIGlua3NjYXBlOmNvbm5lY3Rvci1jdXJ2YXR1cmU9IjAiIGlkPSJwYXRoNzkyNDgiLz4mI3hhOzxwYXRoIGQ9Im0gNDUuNjI4OSwxMC45OTYwNjEgaCAwLjYxIHYgNi40MSBoIC0wLjYxIHogbSAtMS4xNiwwIGggMC42MyB2IDYuNDEgaCAtMC42MyB6IG0gLTEuMTcsMCBoIDAuNjMgdiA2LjQxIGggLTAuNjMgeiBtIC0xLjE2LDAgaCAwLjYzIHYgNi40MSBoIC0wLjYzIHogbSAtMS4xNywwIGggMC42MyB2IDYuNDEgaCAtMC42MyB6IG0gLTEuMTQsMCBoIDAuNjEgdiA2LjQxIGggLTAuNjEgeiBtIC0wLjY0LC0wLjY0IGggNy42OSB2IDcuNjkgaCAtNy42OSB6IiBzdHlsZT0iZmlsbDojMjBjMmVmIiBpbmtzY2FwZTpjb25uZWN0b3ItY3VydmF0dXJlPSIwIiBpZD0icGF0aDc5MjU2Ii8+JiN4YTs8cGF0aCBkPSJtIDU0LjUwMDgsMTkuODY5MjMxIGggMC42MSB2IDYuNCBoIC0wLjYxIHogbSAtMS4xNiwwIGggMC42MyB2IDYuNCBoIC0wLjYzIHogbSAtMS4xNywwIGggMC42MyB2IDYuNCBoIC0wLjYzIHogbSAtMS4xNiwwIGggMC42MyB2IDYuNCBoIC0wLjYzIHogbSAtMS4xNywwIGggMC42MyB2IDYuNCBoIC0wLjYzIHogbSAtMS4xNCwwIGggMC42MSB2IDYuNCBoIC0wLjYxIHogbSAtMC42NCwtMC42NCBoIDcuNjkgdiA3LjY5IGggLTcuNjkgeiIgc3R5bGU9ImZpbGw6IzIwYzJlZiIgaW5rc2NhcGU6Y29ubmVjdG9yLWN1cnZhdHVyZT0iMCIgaWQ9InBhdGg3OTI2NCIvPiYjeGE7PHBhdGggZD0ibSA1NC41MDA4LDEwLjk5NjA2MSBoIDAuNjEgdiA2LjQxIGggLTAuNjEgeiBtIC0xLjE2LDAgaCAwLjYzIHYgNi40MSBoIC0wLjYzIHogbSAtMS4xNywwIGggMC42MyB2IDYuNDEgaCAtMC42MyB6IG0gLTEuMTYsMCBoIDAuNjMgdiA2LjQxIGggLTAuNjMgeiBtIC0xLjE3LDAgaCAwLjYzIHYgNi40MSBoIC0wLjYzIHogbSAtMS4xNCwwIGggMC42MSB2IDYuNDEgaCAtMC42MSB6IG0gLTAuNjQsLTAuNjQgaCA3LjY5IHYgNy42OSBoIC03LjY5IHoiIHN0eWxlPSJmaWxsOiMwMGFjZDMiIGlua3NjYXBlOmNvbm5lY3Rvci1jdXJ2YXR1cmU9IjAiIGlkPSJwYXRoNzkyNzIiLz4mI3hhOzxwYXRoIGQ9Im0gNTQuNTAwOCwyLjEyMjkzMSBoIDAuNjEgdiA2LjQxIGggLTAuNjEgeiBtIC0xLjE2LDAgaCAwLjYzIHYgNi40MSBoIC0wLjYzIHogbSAtMS4xNywwIGggMC42MyB2IDYuNDEgaCAtMC42MyB6IG0gLTEuMTYsMCBoIDAuNjMgdiA2LjQxIGggLTAuNjMgeiBtIC0xLjE3LDAgaCAwLjYzIHYgNi40MSBoIC0wLjYzIHogbSAtMS4xNCwwIGggMC42MSB2IDYuNDEgaCAtMC42MSB6IG0gLTAuNjQsLTAuNjQgaCA3LjY5IHYgNy42OSBoIC03LjY5IHoiIHN0eWxlPSJmaWxsOiMyMGMyZWYiIGlua3NjYXBlOmNvbm5lY3Rvci1jdXJ2YXR1cmU9IjAiIGlkPSJwYXRoNzkyODAiLz4mI3hhOzxwYXRoIGQ9Im0gNjMuMzc0LDE5Ljg2OTIzMSBoIDAuNjEgdiA2LjQgaCAtMC42MSB6IG0gLTEuMTYsMCBoIDAuNjMgdiA2LjQgaCAtMC42MyB6IG0gLTEuMTcsMCBoIDAuNjMgdiA2LjQgaCAtMC42MyB6IG0gLTEuMTYsMCBoIDAuNjMgdiA2LjQgaCAtMC42MyB6IG0gLTEuMTcsMCBoIDAuNjMgdiA2LjQgaCAtMC42MyB6IG0gLTEuMTQsMCBoIDAuNjEgdiA2LjQgaCAtMC42MSB6IG0gLTAuNjQsLTAuNjQgaCA3LjY5IHYgNy42OSBoIC03LjY5IHoiIHN0eWxlPSJmaWxsOiMwMGFjZDMiIGlua3NjYXBlOmNvbm5lY3Rvci1jdXJ2YXR1cmU9IjAiIGlkPSJwYXRoNzkyODgiLz4mI3hhOyYjeGE7PHBhdGggaWQ9InBhdGg3OTI5NyIgaW5rc2NhcGU6Y29ubmVjdG9yLWN1cnZhdHVyZT0iMCIgc3R5bGU9ImZpbGw6I2Q0ZWRmMSIgZD0ibSAzNy41MiwzOS4zOCBjIDEuMTcsMCAyLjEyLDAuOTUgMi4xMiwyLjEyIDAsMS4xOCAtMC45NSwyLjEzIC0yLjEyLDIuMTMgLTEuMTcsMCAtMi4xMiwtMC45NSAtMi4xMiwtMi4xMyAwLC0xLjE3IDAuOTUsLTIuMTIgMi4xMiwtMi4xMiB6Ii8+JiN4YTsmI3hhOzxwYXRoIGlkPSJwYXRoNzkzMDUiIGlua3NjYXBlOmNvbm5lY3Rvci1jdXJ2YXR1cmU9IjAiIHN0eWxlPSJmaWxsOiMzOTRkNTQiIGQ9Im0gMzcuNTIsMzkuOTkgYyAwLjE5LDAgMC4zOCwwLjA0IDAuNTUsMC4xIC0wLjE5LDAuMTEgLTAuMzEsMC4zMSAtMC4zMSwwLjU0IDAsMC4zNCAwLjI4LDAuNjIgMC42MiwwLjYyIDAuMjMsMCAwLjQ0LC0wLjEzIDAuNTQsLTAuMzMgMC4wOCwwLjE4IDAuMTIsMC4zOCAwLjEyLDAuNTkgMCwwLjg0IC0wLjY4LDEuNTIgLTEuNTIsMS41MiAtMC44NCwwIC0xLjUyLC0wLjY4IC0xLjUyLC0xLjUyIDAsLTAuODQgMC42OCwtMS41MiAxLjUyLC0xLjUyIHoiLz4mI3hhOyYjeGE7PHBhdGggaWQ9InBhdGg3OTMxMyIgaW5rc2NhcGU6Y29ubmVjdG9yLWN1cnZhdHVyZT0iMCIgc3R5bGU9ImZpbGw6IzM5NGQ1NCIgZD0ibSAwLDM0Ljk5IGggNDYuNDcgNS43NSA0Ni40NyBjIC0yLjE1LC0wLjU1IC02LjgsLTEuMjggLTYuMDMsLTQuMSAtMy45MSw0LjUyIC0xMy4zMywzLjE3IC0xNS43MSwwLjk0IC0yLjY1LDMuODUgLTE4LjA3LDIuMzkgLTE5LjE0LC0wLjYxIC0zLjMyLDMuOSAtMTMuNjEsMy45IC0xNi45MywwIEMgMzkuOCwzNC4yMSAyNC4zOSwzNS42NyAyMS43NCwzMS44MyAxOS4zNiwzNC4wNiA5Ljk0LDM1LjQxIDYuMDMsMzAuODkgNi44LDMzLjcxIDIuMTUsMzQuNDQgMCwzNC45OSBaIi8+JiN4YTsmI3hhOzxwYXRoIGlkPSJwYXRoNzkzMjEiIGlua3NjYXBlOmNvbm5lY3Rvci1jdXJ2YXR1cmU9IjAiIHN0eWxlPSJmaWxsOiNiZmRiZTAiIGQ9Im0gNDMuMTcsNTQuNjcgYyAtNS4yNiwtMi40OSAtOC4xNCwtNS44OCAtOS43NSwtOS41OCAtMS45NSwwLjU1IC00LjI5LDAuOTEgLTcuMDIsMS4wNiAtMS4wMywwLjA2IC0yLjExLDAuMDkgLTMuMjQsMC4wOSAtMS4zMSwwIC0yLjY5LC0wLjA0IC00LjEzLC0wLjEyIDQuODIsNC44MiAxMC43NSw4LjUzIDIxLjcyLDguNTkgMC44MSwwLjAxIDEuNjIsLTAuMDEgMi40MiwtMC4wNCB6Ii8+JiN4YTsmI3hhOzxwYXRoIGlkPSJwYXRoNzkzMjkiIGlua3NjYXBlOmNvbm5lY3Rvci1jdXJ2YXR1cmU9IjAiIHN0eWxlPSJmaWxsOiNkNGVkZjEiIGQ9Im0gMzUuMzcsNDguNTEgYyAtMC43MiwtMC45OSAtMS40MywtMi4yMyAtMS45NCwtMy40MiAtMS45NiwwLjU2IC00LjMsMC45MiAtNy4wMywxLjA3IDEuODcsMS4wMiA0LjU1LDEuOTYgOC45NywyLjM1IHoiLz4mI3hhOzwvc3ZnPg==;" parent="1" vertex="1">
          <mxGeometry x="747.63" y="950" width="117.37" height="98.4" as="geometry" />
        </mxCell>
        <mxCell id="jF0wqiFih3PrQ3tNJnIo-19" value="" style="aspect=fixed;html=1;points=[];align=center;image;fontSize=12;image=img/lib/azure2/devops/Application_Insights.svg;" parent="1" vertex="1">
          <mxGeometry x="620" y="643.5" width="44" height="63" as="geometry" />
        </mxCell>
        <mxCell id="jF0wqiFih3PrQ3tNJnIo-20" value="" style="aspect=fixed;html=1;points=[];align=center;image;fontSize=12;image=img/lib/azure2/devops/Application_Insights.svg;" parent="1" vertex="1">
          <mxGeometry x="506" y="620" width="44" height="63" as="geometry" />
        </mxCell>
        <mxCell id="jF0wqiFih3PrQ3tNJnIo-21" value="" style="aspect=fixed;html=1;points=[];align=center;image;fontSize=12;image=img/lib/azure2/security/Key_Vaults.svg;" parent="1" vertex="1">
          <mxGeometry x="579" y="757.5" width="68" height="68" as="geometry" />
        </mxCell>
        <mxCell id="H6dcehHfoGX2-H9ADlRJ-87" style="edgeStyle=orthogonalEdgeStyle;rounded=0;orthogonalLoop=1;jettySize=auto;html=1;entryX=0.5;entryY=0;entryDx=0;entryDy=0;" edge="1" parent="1" source="H6dcehHfoGX2-H9ADlRJ-1" target="jF0wqiFih3PrQ3tNJnIo-1">
          <mxGeometry relative="1" as="geometry" />
        </mxCell>
        <mxCell id="H6dcehHfoGX2-H9ADlRJ-89" style="edgeStyle=orthogonalEdgeStyle;rounded=0;orthogonalLoop=1;jettySize=auto;html=1;exitX=1;exitY=0.5;exitDx=0;exitDy=0;entryX=0.011;entryY=0.492;entryDx=0;entryDy=0;entryPerimeter=0;" edge="1" parent="1" source="H6dcehHfoGX2-H9ADlRJ-1" target="jF0wqiFih3PrQ3tNJnIo-3">
          <mxGeometry relative="1" as="geometry" />
        </mxCell>
        <mxCell id="H6dcehHfoGX2-H9ADlRJ-1" value="" style="aspect=fixed;perimeter=ellipsePerimeter;html=1;align=center;shadow=0;dashed=0;spacingTop=3;image;image=img/lib/active_directory/internet_cloud.svg;" vertex="1" parent="1">
          <mxGeometry x="-70" y="247.99999999999997" width="90" height="56.7" as="geometry" />
        </mxCell>
        <mxCell id="H6dcehHfoGX2-H9ADlRJ-3" value="" style="rounded=0;whiteSpace=wrap;html=1;fillColor=#99CCFF;strokeColor=#CCE5FF;" vertex="1" parent="1">
          <mxGeometry x="460" y="100" width="960" height="750" as="geometry" />
        </mxCell>
        <mxCell id="H6dcehHfoGX2-H9ADlRJ-5" value="Azure Region" style="text;html=1;align=center;verticalAlign=middle;resizable=0;points=[];autosize=1;strokeColor=none;fillColor=none;" vertex="1" parent="1">
          <mxGeometry x="934.5" y="70" width="90" height="20" as="geometry" />
        </mxCell>
        <mxCell id="H6dcehHfoGX2-H9ADlRJ-66" style="edgeStyle=orthogonalEdgeStyle;rounded=0;orthogonalLoop=1;jettySize=auto;html=1;entryX=0.5;entryY=1;entryDx=0;entryDy=0;strokeColor=#FFB366;" edge="1" parent="1" source="H6dcehHfoGX2-H9ADlRJ-6" target="H6dcehHfoGX2-H9ADlRJ-21">
          <mxGeometry relative="1" as="geometry" />
        </mxCell>
        <mxCell id="H6dcehHfoGX2-H9ADlRJ-6" value="" style="rounded=0;whiteSpace=wrap;html=1;strokeColor=#CCE5FF;fillColor=#E6E6E6;" vertex="1" parent="1">
          <mxGeometry x="829.5" y="390" width="220" height="320" as="geometry" />
        </mxCell>
        <mxCell id="jF0wqiFih3PrQ3tNJnIo-10" value="" style="shape=image;verticalLabelPosition=bottom;labelBackgroundColor=#ffffff;verticalAlign=top;aspect=fixed;imageAspect=0;image=data:image/svg+xml,PHN2ZyB4bWxuczpjYz0iaHR0cDovL2NyZWF0aXZlY29tbW9ucy5vcmcvbnMjIiB4bWxuczpkYz0iaHR0cDovL3B1cmwub3JnL2RjL2VsZW1lbnRzLzEuMS8iIHhtbG5zOmlua3NjYXBlPSJodHRwOi8vd3d3Lmlua3NjYXBlLm9yZy9uYW1lc3BhY2VzL2lua3NjYXBlIiB4bWxuczpyZGY9Imh0dHA6Ly93d3cudzMub3JnLzE5OTkvMDIvMjItcmRmLXN5bnRheC1ucyMiIHhtbG5zOnNvZGlwb2RpPSJodHRwOi8vc29kaXBvZGkuc291cmNlZm9yZ2UubmV0L0RURC9zb2RpcG9kaS0wLmR0ZCIgeG1sbnM6c3ZnPSJodHRwOi8vd3d3LnczLm9yZy8yMDAwL3N2ZyIgeG1sbnM9Imh0dHA6Ly93d3cudzMub3JnLzIwMDAvc3ZnIiB4bWxuczp4bGluaz0iaHR0cDovL3d3dy53My5vcmcvMTk5OS94bGluayIgdmVyc2lvbj0iMS4xIiBpZD0ic3ZnNDkwODMiIGlua3NjYXBlOnZlcnNpb249IjAuOTIuMyAoMjQwNTU0NiwgMjAxOC0wMy0xMSkiIHNvZGlwb2RpOmRvY25hbWU9ImFwcF9zZXJ2aWNlX3BsYW5zLnN2ZyIgeD0iMHB4IiB5PSIwcHgiIHZpZXdCb3g9IjAgMCAyNS4xNCAyNS4xMyIgc3R5bGU9ImVuYWJsZS1iYWNrZ3JvdW5kOm5ldyAwIDAgMjUuMTQgMjUuMTM7IiB4bWw6c3BhY2U9InByZXNlcnZlIj4mI3hhOzxzb2RpcG9kaTpuYW1lZHZpZXcgYm9yZGVyY29sb3I9IiM2NjY2NjYiIGJvcmRlcm9wYWNpdHk9IjEiIGZpdC1tYXJnaW4tYm90dG9tPSIwIiBmaXQtbWFyZ2luLWxlZnQ9IjAiIGZpdC1tYXJnaW4tcmlnaHQ9IjAiIGZpdC1tYXJnaW4tdG9wPSIwIiBncmlkdG9sZXJhbmNlPSIxMCIgZ3VpZGV0b2xlcmFuY2U9IjEwIiBpZD0ibmFtZWR2aWV3NDkwODUiIGlua3NjYXBlOmN1cnJlbnQtbGF5ZXI9InN2ZzQ5MDgzIiBpbmtzY2FwZTpjeD0iMTIuMTY0NDY2IiBpbmtzY2FwZTpjeT0iMTQuNDkzNjA4IiBpbmtzY2FwZTpwYWdlb3BhY2l0eT0iMCIgaW5rc2NhcGU6cGFnZXNoYWRvdz0iMiIgaW5rc2NhcGU6d2luZG93LWhlaWdodD0iMTAxNyIgaW5rc2NhcGU6d2luZG93LW1heGltaXplZD0iMSIgaW5rc2NhcGU6d2luZG93LXdpZHRoPSIxOTIwIiBpbmtzY2FwZTp3aW5kb3cteD0iLTgiIGlua3NjYXBlOndpbmRvdy15PSItOCIgaW5rc2NhcGU6em9vbT0iMTYuMjg1MTQ4IiBvYmplY3R0b2xlcmFuY2U9IjEwIiBwYWdlY29sb3I9IiNmZmZmZmYiIHNob3dncmlkPSJmYWxzZSI+JiN4YTsJPC9zb2RpcG9kaTpuYW1lZHZpZXc+JiN4YTs8ZyBpZD0iZzQ5MDgxIiB0cmFuc2Zvcm09InRyYW5zbGF0ZSgwLC0wLjAwNDU0MDUpIj4mI3hhOwk8dGl0bGUgaWQ9InRpdGxlNDkwMzYiPlBhZ2UtMTwvdGl0bGU+JiN4YTsJPGcgaWQ9Imdyb3VwNDcwOS0xIiB0cmFuc2Zvcm09InRyYW5zbGF0ZSgwLC0zLjA5ODczKSI+JiN4YTsJCTx0aXRsZSBpZD0idGl0bGU0OTAzOCI+QXBwIFNlcnZpY2UgcGxhbnM8L3RpdGxlPiYjeGE7CQk8ZyBpZD0ic2hhcGU0NzEwLTIiIHRyYW5zZm9ybT0idHJhbnNsYXRlKDAsLTAuMDA2NzI5NSkiPiYjeGE7CQkJPHRpdGxlIGlkPSJ0aXRsZTQ5MDQwIj5TaGVldC40NzEwPC90aXRsZT4mI3hhOwkJCTxwYXRoIGlkPSJwYXRoNDkwNDIiIGlua3NjYXBlOmNvbm5lY3Rvci1jdXJ2YXR1cmU9IjAiIHN0eWxlPSJmaWxsOiMzRTNFM0U7IiBkPSJNMCwzLjk1YzAtMC40NiwwLjM4LTAuODQsMC44NS0wLjg0aDEzLjAyICAgICBjMC40NywwLDAuODQsMC4zOCwwLjg0LDAuODR2MjMuNDRjMCwwLjQ3LTAuMzcsMC44NC0wLjg0LDAuODRIMC44NUMwLjM4LDI4LjIzLDAsMjcuODYsMCwyNy4zOVYzLjk1eiIvPiYjeGE7CQk8L2c+JiN4YTsJCTxnIGlkPSJzaGFwZTQ3MTEtNCIgdHJhbnNmb3JtPSJ0cmFuc2xhdGUoMi4yNDQ2NiwtMTkuNzI2OSkiPiYjeGE7CQkJPHRpdGxlIGlkPSJ0aXRsZTQ5MDQ1Ij5TaGVldC40NzExPC90aXRsZT4mI3hhOwkJCTxwYXRoIGlkPSJwYXRoNDkwNDciIGlua3NjYXBlOmNvbm5lY3Rvci1jdXJ2YXR1cmU9IjAiIHN0eWxlPSJmaWxsOiMxRTFFMUU7IiBkPSJNMC44NywyNS40OWMwLDAtMC44NywwLTAuODcsMS4yNSAgICAgYzAsMC4yNywwLDAuMjcsMCwwLjI3czAsMS4yMiwwLjg3LDEuMjJjOC41LDAsOC41LDAsOC41LDBzMC44NiwwLDAuODYtMS4yMmMwLTAuMjcsMC0wLjI3LDAtMC4yN3MwLTEuMjUtMC44Ni0xLjI1ICAgICBjLTMuOTUsMC0zLjk1LDAtMy45NSwwSDAuODd6Ii8+JiN4YTsJCTwvZz4mI3hhOwkJPGcgaWQ9InNoYXBlNDcxMi02IiB0cmFuc2Zvcm09InRyYW5zbGF0ZSgyLjQ5NDA2LC0xOS44MTAxKSI+JiN4YTsJCQk8dGl0bGUgaWQ9InRpdGxlNDkwNTAiPlNoZWV0LjQ3MTI8L3RpdGxlPiYjeGE7CQkJPHBhdGggaWQ9InBhdGg0OTA1MiIgaW5rc2NhcGU6Y29ubmVjdG9yLWN1cnZhdHVyZT0iMCIgc3R5bGU9ImZpbGw6I0I4RDQzMjsiIGQ9Ik0wLDI2LjkzYzAtMC42OCwwLjU4LTEuMjgsMS4yNi0xLjI4ICAgICBjMC42OSwwLDEuMjMsMC42LDEuMjMsMS4yOGMwLDAuNzQtMC41NCwxLjMtMS4yMywxLjNDMC41OCwyOC4yMywwLDI3LjY3LDAsMjYuOTN6Ii8+JiN4YTsJCTwvZz4mI3hhOwkJPGcgaWQ9InNoYXBlNDcxMy04IiB0cmFuc2Zvcm09InRyYW5zbGF0ZSgyLjI0NDY2LC0xNS4wNjczKSI+JiN4YTsJCQk8dGl0bGUgaWQ9InRpdGxlNDkwNTUiPlNoZWV0LjQ3MTM8L3RpdGxlPiYjeGE7CQkJPHBhdGggaWQ9InBhdGg0OTA1NyIgaW5rc2NhcGU6Y29ubmVjdG9yLWN1cnZhdHVyZT0iMCIgc3R5bGU9ImZpbGw6IzFFMUUxRTsiIGQ9Ik0wLjg3LDI1LjQ5YzAsMC0wLjg3LDAtMC44NywxLjI1ICAgICBjMCwwLjI3LDAsMC4yNywwLDAuMjdzMCwxLjIyLDAuODcsMS4yMmM4LjUsMCw4LjUsMCw4LjUsMHMwLjg2LDAsMC44Ni0xLjIyYzAtMC4yNywwLTAuMjcsMC0wLjI3czAtMS4yNS0wLjg2LTEuMjUgICAgIGMtMy45NSwwLTMuOTUsMC0zLjk1LDBIMC44N3oiLz4mI3hhOwkJPC9nPiYjeGE7CQk8ZyBpZD0ic2hhcGU0NzE0LTEwIiB0cmFuc2Zvcm09InRyYW5zbGF0ZSgyLjQ5NDA2LC0xNS4xNTA1KSI+JiN4YTsJCQk8dGl0bGUgaWQ9InRpdGxlNDkwNjAiPlNoZWV0LjQ3MTQ8L3RpdGxlPiYjeGE7CQkJPHBhdGggaWQ9InBhdGg0OTA2MiIgaW5rc2NhcGU6Y29ubmVjdG9yLWN1cnZhdHVyZT0iMCIgc3R5bGU9ImZpbGw6I0I4RDQzMjsiIGQ9Ik0wLDI2LjkzYzAtMC42OCwwLjU4LTEuMjgsMS4yNi0xLjI4ICAgICBjMC42OSwwLDEuMjMsMC42LDEuMjMsMS4yOGMwLDAuNzQtMC41NCwxLjMtMS4yMywxLjNDMC41OCwyOC4yMywwLDI3LjY3LDAsMjYuOTN6Ii8+JiN4YTsJCTwvZz4mI3hhOwkJPGcgaWQ9InNoYXBlNDcxNS0xMiIgdHJhbnNmb3JtPSJ0cmFuc2xhdGUoMi4yNDQ2NiwtMTAuNDA3NykiPiYjeGE7CQkJPHRpdGxlIGlkPSJ0aXRsZTQ5MDY1Ij5TaGVldC40NzE1PC90aXRsZT4mI3hhOwkJCTxwYXRoIGlkPSJwYXRoNDkwNjciIGlua3NjYXBlOmNvbm5lY3Rvci1jdXJ2YXR1cmU9IjAiIHN0eWxlPSJmaWxsOiMxRTFFMUU7IiBkPSJNMC44NywyNS40MWMwLDAtMC44NywwLTAuODcsMS4yOCAgICAgYzAsMC4yOCwwLDAuMjgsMCwwLjI4czAsMS4yNiwwLjg3LDEuMjZjOC41LDAsOC41LDAsOC41LDBzMC44NiwwLDAuODYtMS4yNmMwLTAuMjgsMC0wLjI4LDAtMC4yOHMwLTEuMjgtMC44Ni0xLjI4ICAgICBjLTMuOTUsMC0zLjk1LDAtMy45NSwwSDAuODd6Ii8+JiN4YTsJCTwvZz4mI3hhOwkJPGcgaWQ9InNoYXBlNDcxNi0xNCIgdHJhbnNmb3JtPSJ0cmFuc2xhdGUoMi40OTQwNiwtMTAuNDkwOSkiPiYjeGE7CQkJPHRpdGxlIGlkPSJ0aXRsZTQ5MDcwIj5TaGVldC40NzE2PC90aXRsZT4mI3hhOwkJCTxwYXRoIGlkPSJwYXRoNDkwNzIiIGlua3NjYXBlOmNvbm5lY3Rvci1jdXJ2YXR1cmU9IjAiIHN0eWxlPSJmaWxsOiNCOEQ0MzI7IiBkPSJNMCwyNi45M2MwLTAuNjgsMC41OC0xLjI4LDEuMjYtMS4yOCAgICAgYzAuNjksMCwxLjIzLDAuNiwxLjIzLDEuMjhjMCwwLjc0LTAuNTQsMS4zLTEuMjMsMS4zQzAuNTgsMjguMjMsMCwyNy42NywwLDI2LjkzeiIvPiYjeGE7CQk8L2c+JiN4YTsJCTxnIGlkPSJzaGFwZTQ3MTctMTYiIHRyYW5zZm9ybT0idHJhbnNsYXRlKDQuMTk2OCkiPiYjeGE7CQkJPHRpdGxlIGlkPSJ0aXRsZTQ5MDc1Ij5DbG91ZCAjNjwvdGl0bGU+JiN4YTsJCQk8cGF0aCBpZD0icGF0aDQ5MDc3IiBpbmtzY2FwZTpjb25uZWN0b3ItY3VydmF0dXJlPSIwIiBzdHlsZT0iZmlsbDojNTlCNEQ5OyIgZD0iTTIwLjk0LDI1Ljg0YzAtMS4zNi0xLjEyLTIuNDgtMi40LTIuNDggICAgIGMtMC4wOCwwLTAuMTYsMC0wLjMyLDBjMC4xNi0wLjU2LDAuMjQtMS4xMiwwLjI0LTEuNzZjMC0zLjYtMi44OC02LjU1LTYuNDctNi41NWMtMi44OCwwLTUuMjgsMS44NC02LjE2LDQuNDcgICAgIGMtMC40OC0wLjE2LTAuOTUtMC4yNC0xLjQzLTAuMjRjLTIuNDgsMC00LjQsMi00LjQsNC40OHMyLDQuNDcsNC40LDQuNDdoMTQuMzhDMTkuOTgsMjguMTUsMjAuOTQsMjcuMTIsMjAuOTQsMjUuODR6Ii8+JiN4YTsJCTwvZz4mI3hhOwk8L2c+JiN4YTs8L2c+JiN4YTs8L3N2Zz4=;" parent="1" vertex="1">
          <mxGeometry x="908" y="411.65" width="63" height="63" as="geometry" />
        </mxCell>
        <mxCell id="H6dcehHfoGX2-H9ADlRJ-7" value="App Service Plan" style="text;html=1;align=center;verticalAlign=middle;resizable=0;points=[];autosize=1;strokeColor=none;fillColor=none;" vertex="1" parent="1">
          <mxGeometry x="874.5" y="390" width="110" height="20" as="geometry" />
        </mxCell>
        <mxCell id="H6dcehHfoGX2-H9ADlRJ-54" style="edgeStyle=orthogonalEdgeStyle;rounded=0;orthogonalLoop=1;jettySize=auto;html=1;exitX=1;exitY=0.5;exitDx=0;exitDy=0;entryX=1;entryY=0.5;entryDx=0;entryDy=0;" edge="1" parent="1" source="H6dcehHfoGX2-H9ADlRJ-45" target="H6dcehHfoGX2-H9ADlRJ-8">
          <mxGeometry relative="1" as="geometry">
            <Array as="points">
              <mxPoint x="1330" y="660" />
              <mxPoint x="1370" y="660" />
              <mxPoint x="1370" y="460" />
              <mxPoint x="1280" y="460" />
              <mxPoint x="1090" y="460" />
              <mxPoint x="1090" y="550" />
            </Array>
          </mxGeometry>
        </mxCell>
        <mxCell id="H6dcehHfoGX2-H9ADlRJ-74" style="edgeStyle=orthogonalEdgeStyle;rounded=0;orthogonalLoop=1;jettySize=auto;html=1;exitX=0.5;exitY=0;exitDx=0;exitDy=0;entryX=1;entryY=0.5;entryDx=0;entryDy=0;strokeColor=#66FF66;" edge="1" parent="1" source="H6dcehHfoGX2-H9ADlRJ-71" target="H6dcehHfoGX2-H9ADlRJ-8">
          <mxGeometry relative="1" as="geometry" />
        </mxCell>
        <mxCell id="H6dcehHfoGX2-H9ADlRJ-8" value="" style="rounded=0;whiteSpace=wrap;html=1;strokeColor=#CCE5FF;fillColor=#FFFFFF;" vertex="1" parent="1">
          <mxGeometry x="954.5" y="510" width="80" height="80" as="geometry" />
        </mxCell>
        <mxCell id="jF0wqiFih3PrQ3tNJnIo-8" value="" style="aspect=fixed;html=1;points=[];align=center;image;fontSize=12;image=img/lib/azure2/compute/Function_Apps.svg;" parent="1" vertex="1">
          <mxGeometry x="960.5" y="521.65" width="68" height="60" as="geometry" />
        </mxCell>
        <mxCell id="H6dcehHfoGX2-H9ADlRJ-53" style="edgeStyle=orthogonalEdgeStyle;rounded=0;orthogonalLoop=1;jettySize=auto;html=1;exitX=0;exitY=0.5;exitDx=0;exitDy=0;entryX=0.5;entryY=1;entryDx=0;entryDy=0;" edge="1" parent="1" source="H6dcehHfoGX2-H9ADlRJ-9" target="H6dcehHfoGX2-H9ADlRJ-13">
          <mxGeometry relative="1" as="geometry">
            <Array as="points">
              <mxPoint x="810" y="552" />
              <mxPoint x="810" y="740" />
              <mxPoint x="1173" y="740" />
            </Array>
          </mxGeometry>
        </mxCell>
        <mxCell id="H6dcehHfoGX2-H9ADlRJ-105" style="edgeStyle=orthogonalEdgeStyle;rounded=0;orthogonalLoop=1;jettySize=auto;html=1;exitX=0;exitY=0.5;exitDx=0;exitDy=0;entryX=1.047;entryY=0.533;entryDx=0;entryDy=0;entryPerimeter=0;strokeColor=#000000;" edge="1" parent="1" source="H6dcehHfoGX2-H9ADlRJ-9" target="H6dcehHfoGX2-H9ADlRJ-60">
          <mxGeometry relative="1" as="geometry" />
        </mxCell>
        <mxCell id="H6dcehHfoGX2-H9ADlRJ-9" value="" style="rounded=0;whiteSpace=wrap;html=1;strokeColor=#CCE5FF;fillColor=#FFFFFF;" vertex="1" parent="1">
          <mxGeometry x="843.5" y="511.65" width="80" height="80" as="geometry" />
        </mxCell>
        <mxCell id="jF0wqiFih3PrQ3tNJnIo-6" value="" style="aspect=fixed;html=1;points=[];align=center;image;fontSize=12;image=img/lib/azure2/app_services/App_Services.svg;" parent="1" vertex="1">
          <mxGeometry x="851.21" y="521.65" width="64" height="64" as="geometry" />
        </mxCell>
        <mxCell id="H6dcehHfoGX2-H9ADlRJ-67" style="edgeStyle=orthogonalEdgeStyle;rounded=0;orthogonalLoop=1;jettySize=auto;html=1;entryX=0;entryY=0.5;entryDx=0;entryDy=0;exitX=0.5;exitY=0;exitDx=0;exitDy=0;strokeColor=#FFB366;" edge="1" parent="1" source="H6dcehHfoGX2-H9ADlRJ-10" target="H6dcehHfoGX2-H9ADlRJ-21">
          <mxGeometry relative="1" as="geometry" />
        </mxCell>
        <mxCell id="H6dcehHfoGX2-H9ADlRJ-10" value="" style="rounded=0;whiteSpace=wrap;html=1;strokeColor=#CCE5FF;fillColor=#E6E6E6;" vertex="1" parent="1">
          <mxGeometry x="540" y="488.35" width="220" height="121.65" as="geometry" />
        </mxCell>
        <mxCell id="H6dcehHfoGX2-H9ADlRJ-69" style="edgeStyle=orthogonalEdgeStyle;rounded=0;orthogonalLoop=1;jettySize=auto;html=1;entryX=1;entryY=0.5;entryDx=0;entryDy=0;exitX=0.553;exitY=0;exitDx=0;exitDy=0;exitPerimeter=0;strokeColor=#FFB366;" edge="1" parent="1" source="H6dcehHfoGX2-H9ADlRJ-12" target="H6dcehHfoGX2-H9ADlRJ-21">
          <mxGeometry relative="1" as="geometry" />
        </mxCell>
        <mxCell id="H6dcehHfoGX2-H9ADlRJ-11" value="" style="rounded=0;whiteSpace=wrap;html=1;strokeColor=#CCE5FF;fillColor=#E6E6E6;" vertex="1" parent="1">
          <mxGeometry x="1120" y="490" width="220" height="221.65" as="geometry" />
        </mxCell>
        <mxCell id="jF0wqiFih3PrQ3tNJnIo-12" value="" style="shape=image;verticalLabelPosition=bottom;labelBackgroundColor=#ffffff;verticalAlign=top;aspect=fixed;imageAspect=0;image=data:image/svg+xml,PHN2ZyB4bWxuczpjYz0iaHR0cDovL2NyZWF0aXZlY29tbW9ucy5vcmcvbnMjIiB4bWxuczpkYz0iaHR0cDovL3B1cmwub3JnL2RjL2VsZW1lbnRzLzEuMS8iIHhtbG5zOmlua3NjYXBlPSJodHRwOi8vd3d3Lmlua3NjYXBlLm9yZy9uYW1lc3BhY2VzL2lua3NjYXBlIiB4bWxuczpyZGY9Imh0dHA6Ly93d3cudzMub3JnLzE5OTkvMDIvMjItcmRmLXN5bnRheC1ucyMiIHhtbG5zOnNvZGlwb2RpPSJodHRwOi8vc29kaXBvZGkuc291cmNlZm9yZ2UubmV0L0RURC9zb2RpcG9kaS0wLmR0ZCIgeG1sbnM6c3ZnPSJodHRwOi8vd3d3LnczLm9yZy8yMDAwL3N2ZyIgeG1sbnM9Imh0dHA6Ly93d3cudzMub3JnLzIwMDAvc3ZnIiB4bWxuczp4bGluaz0iaHR0cDovL3d3dy53My5vcmcvMTk5OS94bGluayIgdmVyc2lvbj0iMS4xIiBpZD0ic3ZnNTgwODUiIGlua3NjYXBlOnZlcnNpb249IjAuOTIuMyAoMjQwNTU0NiwgMjAxOC0wMy0xMSkiIHNvZGlwb2RpOmRvY25hbWU9ImF6dXJlX2ZpbGVzX3N0b3JhZ2Uuc3ZnIiB4PSIwcHgiIHk9IjBweCIgdmlld0JveD0iMCAwIDc1LjE3IDYyLjY1IiBzdHlsZT0iZW5hYmxlLWJhY2tncm91bmQ6bmV3IDAgMCA3NS4xNyA2Mi42NTsiIHhtbDpzcGFjZT0icHJlc2VydmUiPiYjeGE7PHNvZGlwb2RpOm5hbWVkdmlldyBib3JkZXJjb2xvcj0iIzY2NjY2NiIgYm9yZGVyb3BhY2l0eT0iMSIgZml0LW1hcmdpbi1ib3R0b209IjAiIGZpdC1tYXJnaW4tbGVmdD0iMCIgZml0LW1hcmdpbi1yaWdodD0iMCIgZml0LW1hcmdpbi10b3A9IjAiIGdyaWR0b2xlcmFuY2U9IjEwIiBndWlkZXRvbGVyYW5jZT0iMTAiIGlkPSJuYW1lZHZpZXc1ODA4NyIgaW5rc2NhcGU6Y3VycmVudC1sYXllcj0ic3ZnNTgwODUiIGlua3NjYXBlOmN4PSIxMDcuNDEzOTciIGlua3NjYXBlOmN5PSIyNS4yNzAzOCIgaW5rc2NhcGU6cGFnZW9wYWNpdHk9IjAiIGlua3NjYXBlOnBhZ2VzaGFkb3c9IjIiIGlua3NjYXBlOndpbmRvdy1oZWlnaHQ9IjEwMTciIGlua3NjYXBlOndpbmRvdy1tYXhpbWl6ZWQ9IjEiIGlua3NjYXBlOndpbmRvdy13aWR0aD0iMTkyMCIgaW5rc2NhcGU6d2luZG93LXg9Ii04IiBpbmtzY2FwZTp3aW5kb3cteT0iLTgiIGlua3NjYXBlOnpvb209IjQuMTcxMTY5OSIgb2JqZWN0dG9sZXJhbmNlPSIxMCIgcGFnZWNvbG9yPSIjZmZmZmZmIiBzaG93Z3JpZD0iZmFsc2UiPiYjeGE7CTwvc29kaXBvZGk6bmFtZWR2aWV3PiYjeGE7PGcgaWQ9Imc1ODA4MyIgdHJhbnNmb3JtPSJ0cmFuc2xhdGUoLTcuNjUwMTcwMywtNy42NDczOTUpIj4mI3hhOwk8dGl0bGUgaWQ9InRpdGxlNTgwNDYiPlBhZ2UtMTwvdGl0bGU+JiN4YTsJPGcgaWQ9Imdyb3VwNTIwOS0xIiB0cmFuc2Zvcm09InRyYW5zbGF0ZSg3LjY1LC03LjY1KSI+JiN4YTsJCTx0aXRsZSBpZD0idGl0bGU1ODA0OCI+QXp1cmUgRmlsZXMgU3RvcmFnZTwvdGl0bGU+JiN4YTsJCTxnIGlkPSJzaGFwZTUyMTAtMiI+JiN4YTsJCQk8dGl0bGUgaWQ9InRpdGxlNTgwNTAiPlNoZWV0LjUyMTA8L3RpdGxlPiYjeGE7CQkJPHBhdGggaWQ9InBhdGg1ODA1MiIgaW5rc2NhcGU6Y29ubmVjdG9yLWN1cnZhdHVyZT0iMCIgc3R5bGU9ImZpbGw6I0EwQTFBMjsiIGQ9Ik0wLDc1LjE4YzAsMS40NSwxLjIsMi43NywyLjcxLDIuNzdoNjkuNjEgICAgIGMxLjUsMCwyLjg1LTEuMTcsMi44NS0yLjc3VjI2Ljk1SDBWNzUuMTh6Ii8+JiN4YTsJCTwvZz4mI3hhOwkJPGcgaWQ9InNoYXBlNTIxMS00IiB0cmFuc2Zvcm09InRyYW5zbGF0ZSgwLC01MC45OTExKSI+JiN4YTsJCQk8dGl0bGUgaWQ9InRpdGxlNTgwNTUiPlNoZWV0LjUyMTE8L3RpdGxlPiYjeGE7CQkJPHBhdGggaWQ9InBhdGg1ODA1NyIgaW5rc2NhcGU6Y29ubmVjdG9yLWN1cnZhdHVyZT0iMCIgc3R5bGU9ImZpbGw6IzdBN0E3QTsiIGQ9Ik03Mi4zMiw2Ni40NEgyLjcxQzEuMiw2Ni40NCwwLDY3Ljc1LDAsNjkuMiAgICAgdjguNzVoNzUuMTd2LTguNzRjMC0xLjQ2LTEuMjItMi42MS0yLjg3LTIuNjFMNzIuMzIsNjYuNDR6Ii8+JiN4YTsJCQk8cGF0aCBpZD0icGF0aDU4MDU5IiBpbmtzY2FwZTpjb25uZWN0b3ItY3VydmF0dXJlPSIwIiBzdHlsZT0iZmlsbDpub25lOyIgZD0iTTcyLjMyLDY2LjQ0SDIuNzFDMS4yLDY2LjQ0LDAsNjcuNzUsMCw2OS4ydjguNzUgICAgIGg3NS4xN3YtOC43NGMwLTEuNDYtMS4yMi0yLjYxLTIuODctMi42MSIvPiYjeGE7CQk8L2c+JiN4YTsJCTxnIGlkPSJzaGFwZTUyMTItNyIgdHJhbnNmb3JtPSJ0cmFuc2xhdGUoNi4wMTM5OSwtMjEuMTI0MSkiPiYjeGE7CQkJPHRpdGxlIGlkPSJ0aXRsZTU4MDYyIj5TaGVldC41MjEyPC90aXRsZT4mI3hhOwkJCTxyZWN0IGlkPSJyZWN0NTgwNjQiIHg9IjAiIHk9IjY3Ljc1IiBzdHlsZT0iZmlsbDojQjhENDMyOyIgd2lkdGg9IjYzLjE1IiBoZWlnaHQ9IjEwLjIiLz4mI3hhOwkJPC9nPiYjeGE7CQk8ZyBpZD0ic2hhcGU1MjEzLTkiIHRyYW5zZm9ybT0idHJhbnNsYXRlKDYuMDEzOTksLTM2LjQyMSkiPiYjeGE7CQkJPHRpdGxlIGlkPSJ0aXRsZTU4MDY3Ij5TaGVldC41MjEzPC90aXRsZT4mI3hhOwkJCTxyZWN0IGlkPSJyZWN0NTgwNjkiIHg9IjAiIHk9IjY3Ljc1IiBzdHlsZT0iZmlsbDojRkZGRkZGOyIgd2lkdGg9IjYzLjE1IiBoZWlnaHQ9IjEwLjIiLz4mI3hhOwkJPC9nPiYjeGE7CQk8ZyBpZD0ic2hhcGU1MjE0LTExIiB0cmFuc2Zvcm09InRyYW5zbGF0ZSg2LjAxMzk5LC01LjgyNzMpIj4mI3hhOwkJCTx0aXRsZSBpZD0idGl0bGU1ODA3MiI+U2hlZXQuNTIxNDwvdGl0bGU+JiN4YTsJCQk8cmVjdCBpZD0icmVjdDU4MDc0IiB4PSIwIiB5PSI2Ny43NSIgc3R5bGU9ImZpbGw6I0I4RDQzMjsiIHdpZHRoPSI2My4xNSIgaGVpZ2h0PSIxMC4yIi8+JiN4YTsJCTwvZz4mI3hhOwkJPGcgaWQ9InNoYXBlNTIxNS0xMyIgdHJhbnNmb3JtPSJ0cmFuc2xhdGUoMCwtMC41ODI2MDUpIj4mI3hhOwkJCTx0aXRsZSBpZD0idGl0bGU1ODA3NyI+U2hlZXQuNTIxNTwvdGl0bGU+JiN4YTsJCQk8cGF0aCBpZD0icGF0aDU4MDc5IiBpbmtzY2FwZTpjb25uZWN0b3ItY3VydmF0dXJlPSIwIiBzdHlsZT0iZmlsbDojRkZGRkZGO2ZpbGwtb3BhY2l0eTowLjI7IiBkPSJNMy4wMSwxNS44OCAgICAgQzEuMzUsMTUuODgsMCwxNy4xOSwwLDE4Ljh2MTAuNjN2NC44MXY0MC43OWMwLDEuNiwxLjM1LDIuOTIsMy4wMSwyLjkyaDMuM2w1OS4yNC02Mi4wN0gzLjAxeiIvPiYjeGE7CQk8L2c+JiN4YTsJPC9nPiYjeGE7PC9nPiYjeGE7PC9zdmc+;" parent="1" vertex="1">
          <mxGeometry x="1182" y="520" width="75" height="63" as="geometry" />
        </mxCell>
        <mxCell id="H6dcehHfoGX2-H9ADlRJ-12" value="Storage Account&lt;br&gt;" style="text;html=1;align=center;verticalAlign=middle;resizable=0;points=[];autosize=1;strokeColor=none;fillColor=none;" vertex="1" parent="1">
          <mxGeometry x="1180" y="490" width="100" height="20" as="geometry" />
        </mxCell>
        <mxCell id="H6dcehHfoGX2-H9ADlRJ-13" value="" style="rounded=0;whiteSpace=wrap;html=1;strokeColor=#CCE5FF;fillColor=#FFFFFF;" vertex="1" parent="1">
          <mxGeometry x="1133" y="620" width="80" height="80" as="geometry" />
        </mxCell>
        <mxCell id="H6dcehHfoGX2-H9ADlRJ-14" value="" style="rounded=0;whiteSpace=wrap;html=1;strokeColor=#CCE5FF;fillColor=#FFFFFF;" vertex="1" parent="1">
          <mxGeometry x="1245" y="620" width="80" height="80" as="geometry" />
        </mxCell>
        <mxCell id="jF0wqiFih3PrQ3tNJnIo-7" value="" style="aspect=fixed;html=1;points=[];align=center;image;fontSize=12;image=img/lib/azure2/databases/Azure_Database_MySQL_Server.svg;" parent="1" vertex="1">
          <mxGeometry x="616" y="519.5" width="48" height="64" as="geometry" />
        </mxCell>
        <mxCell id="H6dcehHfoGX2-H9ADlRJ-21" value="" style="rounded=0;whiteSpace=wrap;html=1;strokeColor=#CCE5FF;fillColor=#E6E6E6;" vertex="1" parent="1">
          <mxGeometry x="830" y="138.35" width="220" height="221.65" as="geometry" />
        </mxCell>
        <mxCell id="jF0wqiFih3PrQ3tNJnIo-13" value="" style="aspect=fixed;html=1;points=[];align=center;image;fontSize=12;image=img/lib/azure2/analytics/Log_Analytics_Workspaces.svg;" parent="1" vertex="1">
          <mxGeometry x="908" y="182.35" width="64" height="64" as="geometry" />
        </mxCell>
        <mxCell id="H6dcehHfoGX2-H9ADlRJ-22" value="Log Analytics Workspace&lt;br&gt;" style="text;html=1;align=center;verticalAlign=middle;resizable=0;points=[];autosize=1;strokeColor=none;fillColor=none;" vertex="1" parent="1">
          <mxGeometry x="865" y="147.35" width="150" height="20" as="geometry" />
        </mxCell>
        <mxCell id="H6dcehHfoGX2-H9ADlRJ-23" value="" style="rounded=0;whiteSpace=wrap;html=1;strokeColor=#CCE5FF;fillColor=#FFFFFF;" vertex="1" parent="1">
          <mxGeometry x="899.5" y="268.35" width="80" height="80" as="geometry" />
        </mxCell>
        <mxCell id="jF0wqiFih3PrQ3tNJnIo-14" value="" style="sketch=0;aspect=fixed;html=1;points=[];align=center;image;fontSize=12;image=img/lib/mscae/Azure_Sentinel.svg;" parent="1" vertex="1">
          <mxGeometry x="917.5" y="288.35" width="44" height="50" as="geometry" />
        </mxCell>
        <mxCell id="H6dcehHfoGX2-H9ADlRJ-25" value="Azure Blob&lt;br&gt;" style="text;html=1;align=center;verticalAlign=middle;resizable=0;points=[];autosize=1;strokeColor=none;fillColor=none;" vertex="1" parent="1">
          <mxGeometry x="1250" y="600" width="70" height="20" as="geometry" />
        </mxCell>
        <mxCell id="H6dcehHfoGX2-H9ADlRJ-26" value="Microsoft Sentinel" style="text;html=1;align=center;verticalAlign=middle;resizable=0;points=[];autosize=1;strokeColor=none;fillColor=none;" vertex="1" parent="1">
          <mxGeometry x="885" y="248.35" width="110" height="20" as="geometry" />
        </mxCell>
        <mxCell id="H6dcehHfoGX2-H9ADlRJ-27" value="Azure App Service" style="text;html=1;align=center;verticalAlign=middle;resizable=0;points=[];autosize=1;strokeColor=none;fillColor=none;" vertex="1" parent="1">
          <mxGeometry x="836.5" y="491.65" width="110" height="20" as="geometry" />
        </mxCell>
        <mxCell id="H6dcehHfoGX2-H9ADlRJ-28" value="Azure Function&lt;br&gt;" style="text;html=1;align=center;verticalAlign=middle;resizable=0;points=[];autosize=1;strokeColor=none;fillColor=none;" vertex="1" parent="1">
          <mxGeometry x="944.5" y="492" width="100" height="20" as="geometry" />
        </mxCell>
        <mxCell id="H6dcehHfoGX2-H9ADlRJ-29" value="Mysql Flexible Server" style="text;html=1;align=center;verticalAlign=middle;resizable=0;points=[];autosize=1;strokeColor=none;fillColor=none;" vertex="1" parent="1">
          <mxGeometry x="590" y="499.5" width="130" height="20" as="geometry" />
        </mxCell>
        <mxCell id="H6dcehHfoGX2-H9ADlRJ-37" value="" style="rounded=0;whiteSpace=wrap;html=1;strokeColor=#CCE5FF;fillColor=#FFFFFF;" vertex="1" parent="1">
          <mxGeometry x="843.5" y="609.71" width="80" height="80" as="geometry" />
        </mxCell>
        <mxCell id="H6dcehHfoGX2-H9ADlRJ-36" value="" style="shape=image;verticalLabelPosition=bottom;labelBackgroundColor=#ffffff;verticalAlign=top;aspect=fixed;imageAspect=0;image=data:image/svg+xml,PHN2ZyB4bWxuczpkYz0iaHR0cDovL3B1cmwub3JnL2RjL2VsZW1lbnRzLzEuMS8iIHhtbG5zOmNjPSJodHRwOi8vY3JlYXRpdmVjb21tb25zLm9yZy9ucyMiIHhtbG5zOnJkZj0iaHR0cDovL3d3dy53My5vcmcvMTk5OS8wMi8yMi1yZGYtc3ludGF4LW5zIyIgeG1sbnM6c3ZnPSJodHRwOi8vd3d3LnczLm9yZy8yMDAwL3N2ZyIgeG1sbnM9Imh0dHA6Ly93d3cudzMub3JnLzIwMDAvc3ZnIiB4bWxuczpzb2RpcG9kaT0iaHR0cDovL3NvZGlwb2RpLnNvdXJjZWZvcmdlLm5ldC9EVEQvc29kaXBvZGktMC5kdGQiIHhtbG5zOmlua3NjYXBlPSJodHRwOi8vd3d3Lmlua3NjYXBlLm9yZy9uYW1lc3BhY2VzL2lua3NjYXBlIiB2ZXJzaW9uPSIxLjEiIGlkPSJzdmc0OTQ5OSIgaW5rc2NhcGU6dmVyc2lvbj0iMC45Mi4zICgyNDA1NTQ2LCAyMDE4LTAzLTExKSIgc29kaXBvZGk6ZG9jbmFtZT0iYXBwbGljYXRpb25faW5zaWdodHMuc3ZnIiB4PSIwcHgiIHk9IjBweCIgdmlld0JveD0iMCAwIDI0LjQyMDE2IDM3LjQzMDYxOCIgeG1sOnNwYWNlPSJwcmVzZXJ2ZSIgd2lkdGg9IjI0LjQyMDE2IiBoZWlnaHQ9IjM3LjQzMDYxOCI+PG1ldGFkYXRhIGlkPSJtZXRhZGF0YTE2NDkyIj48cmRmOlJERj48Y2M6V29yayByZGY6YWJvdXQ9IiI+PGRjOmZvcm1hdD5pbWFnZS9zdmcreG1sPC9kYzpmb3JtYXQ+PGRjOnR5cGUgcmRmOnJlc291cmNlPSJodHRwOi8vcHVybC5vcmcvZGMvZGNtaXR5cGUvU3RpbGxJbWFnZSIvPjxkYzp0aXRsZS8+PC9jYzpXb3JrPjwvcmRmOlJERj48L21ldGFkYXRhPjxkZWZzIGlkPSJkZWZzMTY0OTAiLz4mI3hhOzxmaWx0ZXIgaWQ9ImZpbHRlcl8yIj4mI3hhOwk8ZmVHYXVzc2lhbkJsdXIgaWQ9ImZlR2F1c3NpYW5CbHVyNDk0NDgiIHN0ZERldmlhdGlvbj0iMiIvPiYjeGE7PC9maWx0ZXI+JiN4YTs8c29kaXBvZGk6bmFtZWR2aWV3IGJvcmRlcmNvbG9yPSIjNjY2NjY2IiBib3JkZXJvcGFjaXR5PSIxIiBmaXQtbWFyZ2luLWJvdHRvbT0iMCIgZml0LW1hcmdpbi1sZWZ0PSIwIiBmaXQtbWFyZ2luLXJpZ2h0PSIwIiBmaXQtbWFyZ2luLXRvcD0iMCIgZ3JpZHRvbGVyYW5jZT0iMTAiIGd1aWRldG9sZXJhbmNlPSIxMCIgaWQ9Im5hbWVkdmlldzQ5NTAxIiBpbmtzY2FwZTpjdXJyZW50LWxheWVyPSJzdmc0OTQ5OSIgaW5rc2NhcGU6Y3g9IjM4LjkwMjE4NCIgaW5rc2NhcGU6Y3k9IjE5LjE5MDM0NiIgaW5rc2NhcGU6cGFnZW9wYWNpdHk9IjAiIGlua3NjYXBlOnBhZ2VzaGFkb3c9IjIiIGlua3NjYXBlOndpbmRvdy1oZWlnaHQ9IjEwMTciIGlua3NjYXBlOndpbmRvdy1tYXhpbWl6ZWQ9IjEiIGlua3NjYXBlOndpbmRvdy13aWR0aD0iMTkyMCIgaW5rc2NhcGU6d2luZG93LXg9Ii04IiBpbmtzY2FwZTp3aW5kb3cteT0iLTgiIGlua3NjYXBlOnpvb209IjEwLjU4NjE2IiBvYmplY3R0b2xlcmFuY2U9IjEwIiBwYWdlY29sb3I9IiNmZmZmZmYiIHNob3dncmlkPSJmYWxzZSI+JiN4YTsJPC9zb2RpcG9kaTpuYW1lZHZpZXc+JiN4YTsmI3hhOzxwYXRoIGlkPSJwYXRoNDk0NjEiIGlua3NjYXBlOmNvbm5lY3Rvci1jdXJ2YXR1cmU9IjAiIHN0eWxlPSJmaWxsOiM2ODIxN2EiIGQ9Im0gMjQuMzk5Mjc4LDEwLjk2MDYxOSB2IC0wLjIzIGMgMCwtNS43NzAwMDAzIC00Ljk0LC0xMC41NzAwMDAzMiAtMTEuMDIsLTEwLjY1MDAwMDMyIC0wLjE1LC0wLjIyIC0zLjYwMDAwMDUsMC4wOCAtMy42MDAwMDA1LDAuMDggLTUuNDcsMC42NyAtOS43NDk5OTk5Niw1LjI1MDAwMDAyIC05Ljc0OTk5OTk2LDEwLjU3MDAwMDMyIDAsMC4xNSAtMC42LDQuMzUgMy42Nzk5OTk5Niw3Ljg4IDEuOTUsMS43MiAzLjk3LDYuMzcgNC4yNyw3LjcyIGwgMC4yMywwLjQ1IGggNy45NTAwMDA1IGwgMC4yMiwtMC40NSBjIDAuMywtMS4zNSAyLjQsLTYgNC4yNywtNy42NSA0LjI4LC0zLjYgMy43NSwtNy41NyAzLjc1LC03LjcyIHoiLz4mI3hhOyYjeGE7PHJlY3QgaWQ9InJlY3Q0OTQ2OSIgeD0iOC4zNDkyNzc1IiB5PSIyOS40ODA2MTgiIHN0eWxlPSJmaWxsOiM3YTdhN2EiIHdpZHRoPSI3Ljk0OTk5OTgiIGhlaWdodD0iMi41NSIvPiYjeGE7JiN4YTs8cGF0aCBpZD0icGF0aDQ5NDc3IiBpbmtzY2FwZTpjb25uZWN0b3ItY3VydmF0dXJlPSIwIiBzdHlsZT0iZmlsbDojN2E3YTdhIiBkPSJtIDEwLjgxOTI3OCwzNy40MzA2MTkgaCAyLjkzIGwgMi40NywtMi42MiBIIDguMzQ5Mjc3NSBaIi8+JiN4YTsmI3hhOzxwYXRoIGlkPSJwYXRoNDk0ODUiIGlua3NjYXBlOmNvbm5lY3Rvci1jdXJ2YXR1cmU9IjAiIHN0eWxlPSJmaWxsOiNmZmZmZmY7ZmlsbC1vcGFjaXR5OjAuNjUiIGQ9Im0gMTQuMjc5Mjc4LDI2LjQxMDYxOSBoIC0xLjUgdiAtOS41MiBoIC0xLjI4IHYgOS40NSBIIDkuOTk5Mjc3NSB2IC05LjQ1IGggLTEuMjcgYyAtMS41MSwwIC0yLjc4LC0xLjI4IC0yLjc4LC0yLjc4IDAsLTEuNSAxLjIsLTIuNzcgMi43OCwtMi43NyAxLjU3MDAwMDUsMCAyLjc3MDAwMDUsMS4yNyAyLjc3MDAwMDUsMi43NyB2IDEuMjggaCAxLjI4IHYgLTEuMjggYyAwLC0xLjUgMS4yNywtMi43NyAyLjc3LC0yLjc3IDEuNSwwIDIuNzcsMS4yNyAyLjc3LDIuNzcgMCwxLjUgLTEuMjcsMi43OCAtMi43NywyLjc4IGggLTEuMjcgeiBtIC01LjU1MDAwMDUsLTEzLjU3IGMgLTAuNjgsMCAtMS4yOCwwLjUyIC0xLjI4LDEuMjcgMCwwLjY4IDAuNiwxLjI4IDEuMjgsMS4yOCBoIDEuMjcgdiAtMS4yOCBjIC0wLjA3LC0wLjY3IC0wLjYsLTEuMjcgLTEuMjcsLTEuMjcgeiBtIDYuODIwMDAwNSwwIGMgLTAuNjcsMCAtMS4yNywwLjYgLTEuMjcsMS4yNyB2IDEuMjggaCAxLjI3IGMgMC42OCwwIDEuMjgsLTAuNiAxLjI4LC0xLjI4IDAsLTAuNjcgLTAuNTMsLTEuMjcgLTEuMjgsLTEuMjcgeiIvPiYjeGE7JiN4YTs8cGF0aCBpZD0icGF0aDQ5NDkzIiBpbmtzY2FwZTpjb25uZWN0b3ItY3VydmF0dXJlPSIwIiBzdHlsZT0iZmlsbDojZmZmZmZmO2ZpbGwtb3BhY2l0eTowLjE1IiBkPSJtIDEzLjM3OTI3OCwwLjA4MDYxODY4IGMgLTAuMTUsLTAuMjIgLTMuNjAwMDAwNSwwLjA4IC0zLjYwMDAwMDUsMC4wOCAtNS40OCwwLjY3IC05Ljc0OTk5OTk2LDUuMjUwMDAwMDIgLTkuNzQ5OTk5OTYsMTAuNTcwMDAwMzIgMCwwLjE1IC0wLjUzLDMuODMgMi45MTk5OTk5Niw3LjIgTCAxOS4xNDkyNzgsMS43MzA2MTg3IGMgLTEuNzIsLTEuMDUwMDAwMDIgLTMuNjcsLTEuNjUwMDAwMDIgLTUuNzcsLTEuNjUwMDAwMDIgeiIvPiYjeGE7PC9zdmc+;strokeColor=#CCE5FF;fillColor=#FFFFFF;" vertex="1" parent="1">
          <mxGeometry x="858.43" y="613.29" width="49.57" height="76.42" as="geometry" />
        </mxCell>
        <mxCell id="H6dcehHfoGX2-H9ADlRJ-38" value="" style="rounded=0;whiteSpace=wrap;html=1;strokeColor=#CCE5FF;fillColor=#FFFFFF;" vertex="1" parent="1">
          <mxGeometry x="950" y="611.5" width="80" height="80" as="geometry" />
        </mxCell>
        <mxCell id="H6dcehHfoGX2-H9ADlRJ-39" value="" style="shape=image;verticalLabelPosition=bottom;labelBackgroundColor=#ffffff;verticalAlign=top;aspect=fixed;imageAspect=0;image=data:image/svg+xml,PHN2ZyB4bWxuczpkYz0iaHR0cDovL3B1cmwub3JnL2RjL2VsZW1lbnRzLzEuMS8iIHhtbG5zOmNjPSJodHRwOi8vY3JlYXRpdmVjb21tb25zLm9yZy9ucyMiIHhtbG5zOnJkZj0iaHR0cDovL3d3dy53My5vcmcvMTk5OS8wMi8yMi1yZGYtc3ludGF4LW5zIyIgeG1sbnM6c3ZnPSJodHRwOi8vd3d3LnczLm9yZy8yMDAwL3N2ZyIgeG1sbnM9Imh0dHA6Ly93d3cudzMub3JnLzIwMDAvc3ZnIiB4bWxuczpzb2RpcG9kaT0iaHR0cDovL3NvZGlwb2RpLnNvdXJjZWZvcmdlLm5ldC9EVEQvc29kaXBvZGktMC5kdGQiIHhtbG5zOmlua3NjYXBlPSJodHRwOi8vd3d3Lmlua3NjYXBlLm9yZy9uYW1lc3BhY2VzL2lua3NjYXBlIiB2ZXJzaW9uPSIxLjEiIGlkPSJzdmc0OTQ5OSIgaW5rc2NhcGU6dmVyc2lvbj0iMC45Mi4zICgyNDA1NTQ2LCAyMDE4LTAzLTExKSIgc29kaXBvZGk6ZG9jbmFtZT0iYXBwbGljYXRpb25faW5zaWdodHMuc3ZnIiB4PSIwcHgiIHk9IjBweCIgdmlld0JveD0iMCAwIDI0LjQyMDE2IDM3LjQzMDYxOCIgeG1sOnNwYWNlPSJwcmVzZXJ2ZSIgd2lkdGg9IjI0LjQyMDE2IiBoZWlnaHQ9IjM3LjQzMDYxOCI+PG1ldGFkYXRhIGlkPSJtZXRhZGF0YTE2NDkyIj48cmRmOlJERj48Y2M6V29yayByZGY6YWJvdXQ9IiI+PGRjOmZvcm1hdD5pbWFnZS9zdmcreG1sPC9kYzpmb3JtYXQ+PGRjOnR5cGUgcmRmOnJlc291cmNlPSJodHRwOi8vcHVybC5vcmcvZGMvZGNtaXR5cGUvU3RpbGxJbWFnZSIvPjxkYzp0aXRsZS8+PC9jYzpXb3JrPjwvcmRmOlJERj48L21ldGFkYXRhPjxkZWZzIGlkPSJkZWZzMTY0OTAiLz4mI3hhOzxmaWx0ZXIgaWQ9ImZpbHRlcl8yIj4mI3hhOwk8ZmVHYXVzc2lhbkJsdXIgaWQ9ImZlR2F1c3NpYW5CbHVyNDk0NDgiIHN0ZERldmlhdGlvbj0iMiIvPiYjeGE7PC9maWx0ZXI+JiN4YTs8c29kaXBvZGk6bmFtZWR2aWV3IGJvcmRlcmNvbG9yPSIjNjY2NjY2IiBib3JkZXJvcGFjaXR5PSIxIiBmaXQtbWFyZ2luLWJvdHRvbT0iMCIgZml0LW1hcmdpbi1sZWZ0PSIwIiBmaXQtbWFyZ2luLXJpZ2h0PSIwIiBmaXQtbWFyZ2luLXRvcD0iMCIgZ3JpZHRvbGVyYW5jZT0iMTAiIGd1aWRldG9sZXJhbmNlPSIxMCIgaWQ9Im5hbWVkdmlldzQ5NTAxIiBpbmtzY2FwZTpjdXJyZW50LWxheWVyPSJzdmc0OTQ5OSIgaW5rc2NhcGU6Y3g9IjM4LjkwMjE4NCIgaW5rc2NhcGU6Y3k9IjE5LjE5MDM0NiIgaW5rc2NhcGU6cGFnZW9wYWNpdHk9IjAiIGlua3NjYXBlOnBhZ2VzaGFkb3c9IjIiIGlua3NjYXBlOndpbmRvdy1oZWlnaHQ9IjEwMTciIGlua3NjYXBlOndpbmRvdy1tYXhpbWl6ZWQ9IjEiIGlua3NjYXBlOndpbmRvdy13aWR0aD0iMTkyMCIgaW5rc2NhcGU6d2luZG93LXg9Ii04IiBpbmtzY2FwZTp3aW5kb3cteT0iLTgiIGlua3NjYXBlOnpvb209IjEwLjU4NjE2IiBvYmplY3R0b2xlcmFuY2U9IjEwIiBwYWdlY29sb3I9IiNmZmZmZmYiIHNob3dncmlkPSJmYWxzZSI+JiN4YTsJPC9zb2RpcG9kaTpuYW1lZHZpZXc+JiN4YTsmI3hhOzxwYXRoIGlkPSJwYXRoNDk0NjEiIGlua3NjYXBlOmNvbm5lY3Rvci1jdXJ2YXR1cmU9IjAiIHN0eWxlPSJmaWxsOiM2ODIxN2EiIGQ9Im0gMjQuMzk5Mjc4LDEwLjk2MDYxOSB2IC0wLjIzIGMgMCwtNS43NzAwMDAzIC00Ljk0LC0xMC41NzAwMDAzMiAtMTEuMDIsLTEwLjY1MDAwMDMyIC0wLjE1LC0wLjIyIC0zLjYwMDAwMDUsMC4wOCAtMy42MDAwMDA1LDAuMDggLTUuNDcsMC42NyAtOS43NDk5OTk5Niw1LjI1MDAwMDAyIC05Ljc0OTk5OTk2LDEwLjU3MDAwMDMyIDAsMC4xNSAtMC42LDQuMzUgMy42Nzk5OTk5Niw3Ljg4IDEuOTUsMS43MiAzLjk3LDYuMzcgNC4yNyw3LjcyIGwgMC4yMywwLjQ1IGggNy45NTAwMDA1IGwgMC4yMiwtMC40NSBjIDAuMywtMS4zNSAyLjQsLTYgNC4yNywtNy42NSA0LjI4LC0zLjYgMy43NSwtNy41NyAzLjc1LC03LjcyIHoiLz4mI3hhOyYjeGE7PHJlY3QgaWQ9InJlY3Q0OTQ2OSIgeD0iOC4zNDkyNzc1IiB5PSIyOS40ODA2MTgiIHN0eWxlPSJmaWxsOiM3YTdhN2EiIHdpZHRoPSI3Ljk0OTk5OTgiIGhlaWdodD0iMi41NSIvPiYjeGE7JiN4YTs8cGF0aCBpZD0icGF0aDQ5NDc3IiBpbmtzY2FwZTpjb25uZWN0b3ItY3VydmF0dXJlPSIwIiBzdHlsZT0iZmlsbDojN2E3YTdhIiBkPSJtIDEwLjgxOTI3OCwzNy40MzA2MTkgaCAyLjkzIGwgMi40NywtMi42MiBIIDguMzQ5Mjc3NSBaIi8+JiN4YTsmI3hhOzxwYXRoIGlkPSJwYXRoNDk0ODUiIGlua3NjYXBlOmNvbm5lY3Rvci1jdXJ2YXR1cmU9IjAiIHN0eWxlPSJmaWxsOiNmZmZmZmY7ZmlsbC1vcGFjaXR5OjAuNjUiIGQ9Im0gMTQuMjc5Mjc4LDI2LjQxMDYxOSBoIC0xLjUgdiAtOS41MiBoIC0xLjI4IHYgOS40NSBIIDkuOTk5Mjc3NSB2IC05LjQ1IGggLTEuMjcgYyAtMS41MSwwIC0yLjc4LC0xLjI4IC0yLjc4LC0yLjc4IDAsLTEuNSAxLjIsLTIuNzcgMi43OCwtMi43NyAxLjU3MDAwMDUsMCAyLjc3MDAwMDUsMS4yNyAyLjc3MDAwMDUsMi43NyB2IDEuMjggaCAxLjI4IHYgLTEuMjggYyAwLC0xLjUgMS4yNywtMi43NyAyLjc3LC0yLjc3IDEuNSwwIDIuNzcsMS4yNyAyLjc3LDIuNzcgMCwxLjUgLTEuMjcsMi43OCAtMi43NywyLjc4IGggLTEuMjcgeiBtIC01LjU1MDAwMDUsLTEzLjU3IGMgLTAuNjgsMCAtMS4yOCwwLjUyIC0xLjI4LDEuMjcgMCwwLjY4IDAuNiwxLjI4IDEuMjgsMS4yOCBoIDEuMjcgdiAtMS4yOCBjIC0wLjA3LC0wLjY3IC0wLjYsLTEuMjcgLTEuMjcsLTEuMjcgeiBtIDYuODIwMDAwNSwwIGMgLTAuNjcsMCAtMS4yNywwLjYgLTEuMjcsMS4yNyB2IDEuMjggaCAxLjI3IGMgMC42OCwwIDEuMjgsLTAuNiAxLjI4LC0xLjI4IDAsLTAuNjcgLTAuNTMsLTEuMjcgLTEuMjgsLTEuMjcgeiIvPiYjeGE7JiN4YTs8cGF0aCBpZD0icGF0aDQ5NDkzIiBpbmtzY2FwZTpjb25uZWN0b3ItY3VydmF0dXJlPSIwIiBzdHlsZT0iZmlsbDojZmZmZmZmO2ZpbGwtb3BhY2l0eTowLjE1IiBkPSJtIDEzLjM3OTI3OCwwLjA4MDYxODY4IGMgLTAuMTUsLTAuMjIgLTMuNjAwMDAwNSwwLjA4IC0zLjYwMDAwMDUsMC4wOCAtNS40OCwwLjY3IC05Ljc0OTk5OTk2LDUuMjUwMDAwMDIgLTkuNzQ5OTk5OTYsMTAuNTcwMDAwMzIgMCwwLjE1IC0wLjUzLDMuODMgMi45MTk5OTk5Niw3LjIgTCAxOS4xNDkyNzgsMS43MzA2MTg3IGMgLTEuNzIsLTEuMDUwMDAwMDIgLTMuNjcsLTEuNjUwMDAwMDIgLTUuNzcsLTEuNjUwMDAwMDIgeiIvPiYjeGE7PC9zdmc+;strokeColor=#CCE5FF;fillColor=#FFFFFF;" vertex="1" parent="1">
          <mxGeometry x="964.93" y="615.0799999999999" width="49.57" height="76.42" as="geometry" />
        </mxCell>
        <mxCell id="H6dcehHfoGX2-H9ADlRJ-40" value="Azure App Insights" style="text;html=1;align=center;verticalAlign=middle;resizable=0;points=[];autosize=1;strokeColor=none;fillColor=none;" vertex="1" parent="1">
          <mxGeometry x="823.2099999999999" y="595.08" width="120" height="20" as="geometry" />
        </mxCell>
        <mxCell id="H6dcehHfoGX2-H9ADlRJ-41" value="Azure App Insights" style="text;html=1;align=center;verticalAlign=middle;resizable=0;points=[];autosize=1;strokeColor=none;fillColor=none;" vertex="1" parent="1">
          <mxGeometry x="934.5" y="595.08" width="120" height="20" as="geometry" />
        </mxCell>
        <mxCell id="H6dcehHfoGX2-H9ADlRJ-45" value="" style="shape=image;verticalLabelPosition=bottom;labelBackgroundColor=#ffffff;verticalAlign=top;aspect=fixed;imageAspect=0;image=data:image/svg+xml,PHN2ZyB4bWxuczpjYz0iaHR0cDovL2NyZWF0aXZlY29tbW9ucy5vcmcvbnMjIiB4bWxuczpkYz0iaHR0cDovL3B1cmwub3JnL2RjL2VsZW1lbnRzLzEuMS8iIHhtbG5zOmlua3NjYXBlPSJodHRwOi8vd3d3Lmlua3NjYXBlLm9yZy9uYW1lc3BhY2VzL2lua3NjYXBlIiB4bWxuczpyZGY9Imh0dHA6Ly93d3cudzMub3JnLzE5OTkvMDIvMjItcmRmLXN5bnRheC1ucyMiIHhtbG5zOnNvZGlwb2RpPSJodHRwOi8vc29kaXBvZGkuc291cmNlZm9yZ2UubmV0L0RURC9zb2RpcG9kaS0wLmR0ZCIgeG1sbnM6c3ZnPSJodHRwOi8vd3d3LnczLm9yZy8yMDAwL3N2ZyIgeG1sbnM9Imh0dHA6Ly93d3cudzMub3JnLzIwMDAvc3ZnIiB4bWxuczp4bGluaz0iaHR0cDovL3d3dy53My5vcmcvMTk5OS94bGluayIgdmVyc2lvbj0iMS4xIiBpZD0ic3ZnNTUzNjYiIGlua3NjYXBlOnZlcnNpb249IjAuOTIuMyAoMjQwNTU0NiwgMjAxOC0wMy0xMSkiIHNvZGlwb2RpOmRvY25hbWU9ImF6dXJlX2Jsb2Jfc3RvcmFnZS5zdmciIHg9IjBweCIgeT0iMHB4IiB2aWV3Qm94PSIwIDAgNDggNDAuOTkiIHN0eWxlPSJlbmFibGUtYmFja2dyb3VuZDpuZXcgMCAwIDQ4IDQwLjk5OyIgeG1sOnNwYWNlPSJwcmVzZXJ2ZSI+JiN4YTs8c29kaXBvZGk6bmFtZWR2aWV3IGJvcmRlcmNvbG9yPSIjNjY2NjY2IiBib3JkZXJvcGFjaXR5PSIxIiBmaXQtbWFyZ2luLWJvdHRvbT0iMCIgZml0LW1hcmdpbi1sZWZ0PSIwIiBmaXQtbWFyZ2luLXJpZ2h0PSIwIiBmaXQtbWFyZ2luLXRvcD0iMCIgZ3JpZHRvbGVyYW5jZT0iMTAiIGd1aWRldG9sZXJhbmNlPSIxMCIgaWQ9Im5hbWVkdmlldzU1MzY4IiBpbmtzY2FwZTpjdXJyZW50LWxheWVyPSJzdmc1NTM2NiIgaW5rc2NhcGU6Y3g9IjQ5LjQ2MTI0NiIgaW5rc2NhcGU6Y3k9IjIzLjk2Nzc0MiIgaW5rc2NhcGU6cGFnZW9wYWNpdHk9IjAiIGlua3NjYXBlOnBhZ2VzaGFkb3c9IjIiIGlua3NjYXBlOndpbmRvdy1oZWlnaHQ9IjEwMTciIGlua3NjYXBlOndpbmRvdy1tYXhpbWl6ZWQ9IjEiIGlua3NjYXBlOndpbmRvdy13aWR0aD0iMTkyMCIgaW5rc2NhcGU6d2luZG93LXg9Ii04IiBpbmtzY2FwZTp3aW5kb3cteT0iLTgiIGlua3NjYXBlOnpvb209IjEwLjgyMDc2NSIgb2JqZWN0dG9sZXJhbmNlPSIxMCIgcGFnZWNvbG9yPSIjZmZmZmZmIiBzaG93Z3JpZD0iZmFsc2UiPiYjeGE7CTwvc29kaXBvZGk6bmFtZWR2aWV3PiYjeGE7PGcgaWQ9Imc1NTM2NCIgdHJhbnNmb3JtPSJ0cmFuc2xhdGUoLTAuNzUsLTAuNzU0KSI+JiN4YTsJPHRpdGxlIGlkPSJ0aXRsZTU1MzI0Ij5QYWdlLTE8L3RpdGxlPiYjeGE7CTxnIGlkPSJncm91cDUyMTYtMSIgdHJhbnNmb3JtPSJ0cmFuc2xhdGUoMC43NSwtMC43NSkiPiYjeGE7CQk8dGl0bGUgaWQ9InRpdGxlNTUzMjYiPkF6dXJlIEJsb2IgU3RvcmFnZTwvdGl0bGU+JiN4YTsJCTxnIGlkPSJzaGFwZTUyMTctMiI+JiN4YTsJCQk8dGl0bGUgaWQ9InRpdGxlNTUzMjgiPlNoZWV0LjUyMTc8L3RpdGxlPiYjeGE7CQkJPHBhdGggaWQ9InBhdGg1NTMzMCIgaW5rc2NhcGU6Y29ubmVjdG9yLWN1cnZhdHVyZT0iMCIgc3R5bGU9ImZpbGw6I0EwQTFBMjsiIGQ9Ik0wLDQwLjY3YzAsMC45NiwwLjc3LDEuODIsMS43MywxLjgyaDQ0LjQ1ICAgICBjMC45NiwwLDEuODItMC43NywxLjgyLTEuODJWOC44OUgwVjQwLjY3eiIvPiYjeGE7CQk8L2c+JiN4YTsJCTxnIGlkPSJzaGFwZTUyMTgtNCIgdHJhbnNmb3JtPSJ0cmFuc2xhdGUoMCwtMzMuNjk2KSI+JiN4YTsJCQk8dGl0bGUgaWQ9InRpdGxlNTUzMzMiPlNoZWV0LjUyMTg8L3RpdGxlPiYjeGE7CQkJPHBhdGggaWQ9InBhdGg1NTMzNSIgaW5rc2NhcGU6Y29ubmVjdG9yLWN1cnZhdHVyZT0iMCIgc3R5bGU9ImZpbGw6IzdBN0E3QTsiIGQ9Ik00Ni4xOCwzNS4ySDEuNzNDMC43NywzNS4yLDAsMzYuMDYsMCwzNy4wMiAgICAgdjUuNDdoNDh2LTUuNDdDNDgsMzYuMDYsNDcuMjMsMzUuMiw0Ni4xOCwzNS4yeiIvPiYjeGE7CQk8L2c+JiN4YTsJCTxnIGlkPSJzaGFwZTUyMTktNiIgdHJhbnNmb3JtPSJ0cmFuc2xhdGUoMy41NTIsLTE3Ljg1NikiPiYjeGE7CQkJPHRpdGxlIGlkPSJ0aXRsZTU1MzM4Ij5TaGVldC41MjE5PC90aXRsZT4mI3hhOwkJCTxyZWN0IGlkPSJyZWN0NTUzNDAiIHg9IjAiIHk9IjMwLjAxIiBzdHlsZT0iZmlsbDojMDA3MkM2OyIgd2lkdGg9IjE5LjU4IiBoZWlnaHQ9IjEyLjQ4Ii8+JiN4YTsJCTwvZz4mI3hhOwkJPGcgaWQ9InNoYXBlNTIyMC04IiB0cmFuc2Zvcm09InRyYW5zbGF0ZSgzLjU1MiwtMy42NDgpIj4mI3hhOwkJCTx0aXRsZSBpZD0idGl0bGU1NTM0MyI+U2hlZXQuNTIyMDwvdGl0bGU+JiN4YTsJCQk8cmVjdCBpZD0icmVjdDU1MzQ1IiB4PSIwIiB5PSIzMC4wMSIgc3R5bGU9ImZpbGw6IzAwNzJDNjsiIHdpZHRoPSIxOS41OCIgaGVpZ2h0PSIxMi40OCIvPiYjeGE7CQk8L2c+JiN4YTsJCTxnIGlkPSJzaGFwZTUyMjEtMTAiIHRyYW5zZm9ybT0idHJhbnNsYXRlKDI0Ljg2NCwtMTcuODU2KSI+JiN4YTsJCQk8dGl0bGUgaWQ9InRpdGxlNTUzNDgiPlNoZWV0LjUyMjE8L3RpdGxlPiYjeGE7CQkJPHJlY3QgaWQ9InJlY3Q1NTM1MCIgeD0iMCIgeT0iMzAuMDEiIHN0eWxlPSJmaWxsOiNGRkZGRkY7IiB3aWR0aD0iMTkuNDkiIGhlaWdodD0iMTIuNDgiLz4mI3hhOwkJPC9nPiYjeGE7CQk8ZyBpZD0ic2hhcGU1MjIyLTEyIiB0cmFuc2Zvcm09InRyYW5zbGF0ZSgyNC44NjQsLTMuNjQ4KSI+JiN4YTsJCQk8dGl0bGUgaWQ9InRpdGxlNTUzNTMiPlNoZWV0LjUyMjI8L3RpdGxlPiYjeGE7CQkJPHJlY3QgaWQ9InJlY3Q1NTM1NSIgeD0iMCIgeT0iMzAuMDEiIHN0eWxlPSJmaWxsOiMwMDcyQzY7IiB3aWR0aD0iMTkuNDkiIGhlaWdodD0iMTIuNDgiLz4mI3hhOwkJPC9nPiYjeGE7CQk8ZyBpZD0ic2hhcGU1MjIzLTE0IiB0cmFuc2Zvcm09InRyYW5zbGF0ZSgwLC0wLjA5NikiPiYjeGE7CQkJPHRpdGxlIGlkPSJ0aXRsZTU1MzU4Ij5TaGVldC41MjIzPC90aXRsZT4mI3hhOwkJCTxwYXRoIGlkPSJwYXRoNTUzNjAiIGlua3NjYXBlOmNvbm5lY3Rvci1jdXJ2YXR1cmU9IjAiIHN0eWxlPSJmaWxsOiNGRkZGRkY7ZmlsbC1vcGFjaXR5OjAuMjsiIGQ9Ik0xLjkyLDEuNiAgICAgQzAuODYsMS42LDAsMi40NiwwLDMuNTJ2N3YzLjE3djI2Ljg4YzAsMS4wNiwwLjg2LDEuOTIsMS45MiwxLjkyaDIuMTFMNDEuODYsMS42SDEuOTJ6Ii8+JiN4YTsJCTwvZz4mI3hhOwk8L2c+JiN4YTs8L2c+JiN4YTs8L3N2Zz4=;" vertex="1" parent="1">
          <mxGeometry x="1250" y="630" width="70.25" height="60" as="geometry" />
        </mxCell>
        <mxCell id="H6dcehHfoGX2-H9ADlRJ-46" value="" style="aspect=fixed;html=1;points=[];align=center;image;fontSize=12;image=img/lib/azure2/general/Storage_Azure_Files.svg;strokeColor=#CCE5FF;fillColor=#FFFFFF;" vertex="1" parent="1">
          <mxGeometry x="1141" y="634" width="64" height="52" as="geometry" />
        </mxCell>
        <mxCell id="H6dcehHfoGX2-H9ADlRJ-47" value="Azure FIles" style="text;html=1;align=center;verticalAlign=middle;resizable=0;points=[];autosize=1;strokeColor=none;fillColor=none;" vertex="1" parent="1">
          <mxGeometry x="1133" y="600" width="80" height="20" as="geometry" />
        </mxCell>
        <mxCell id="H6dcehHfoGX2-H9ADlRJ-106" style="edgeStyle=orthogonalEdgeStyle;rounded=0;orthogonalLoop=1;jettySize=auto;html=1;exitX=0;exitY=0.5;exitDx=0;exitDy=0;entryX=1.006;entryY=0.479;entryDx=0;entryDy=0;entryPerimeter=0;strokeColor=#000000;" edge="1" parent="1" source="H6dcehHfoGX2-H9ADlRJ-60" target="jF0wqiFih3PrQ3tNJnIo-7">
          <mxGeometry relative="1" as="geometry" />
        </mxCell>
        <mxCell id="H6dcehHfoGX2-H9ADlRJ-60" value="" style="shape=image;verticalLabelPosition=bottom;labelBackgroundColor=#ffffff;verticalAlign=top;aspect=fixed;imageAspect=0;image=data:image/svg+xml,PHN2ZyB4bWxuczpjYz0iaHR0cDovL2NyZWF0aXZlY29tbW9ucy5vcmcvbnMjIiB4bWxuczpkYz0iaHR0cDovL3B1cmwub3JnL2RjL2VsZW1lbnRzLzEuMS8iIHhtbG5zOmlua3NjYXBlPSJodHRwOi8vd3d3Lmlua3NjYXBlLm9yZy9uYW1lc3BhY2VzL2lua3NjYXBlIiB4bWxuczpyZGY9Imh0dHA6Ly93d3cudzMub3JnLzE5OTkvMDIvMjItcmRmLXN5bnRheC1ucyMiIHhtbG5zOnNvZGlwb2RpPSJodHRwOi8vc29kaXBvZGkuc291cmNlZm9yZ2UubmV0L0RURC9zb2RpcG9kaS0wLmR0ZCIgeG1sbnM6c3ZnPSJodHRwOi8vd3d3LnczLm9yZy8yMDAwL3N2ZyIgeG1sbnM9Imh0dHA6Ly93d3cudzMub3JnLzIwMDAvc3ZnIiB4bWxuczp4bGluaz0iaHR0cDovL3d3dy53My5vcmcvMTk5OS94bGluayIgdmVyc2lvbj0iMS4xIiBpZD0ic3ZnNTg0NTUiIGlua3NjYXBlOnZlcnNpb249IjAuOTIuMyAoMjQwNTU0NiwgMjAxOC0wMy0xMSkiIHNvZGlwb2RpOmRvY25hbWU9ImF6dXJlX2ZpcmV3YWxsLnN2ZyIgeD0iMHB4IiB5PSIwcHgiIHZpZXdCb3g9IjAgMCAzNy40MiAzNy40MyIgc3R5bGU9ImVuYWJsZS1iYWNrZ3JvdW5kOm5ldyAwIDAgMzcuNDIgMzcuNDM7IiB4bWw6c3BhY2U9InByZXNlcnZlIj4mI3hhOzxzb2RpcG9kaTpuYW1lZHZpZXcgYm9yZGVyY29sb3I9IiM2NjY2NjYiIGJvcmRlcm9wYWNpdHk9IjEiIGZpdC1tYXJnaW4tYm90dG9tPSIwIiBmaXQtbWFyZ2luLWxlZnQ9IjAiIGZpdC1tYXJnaW4tcmlnaHQ9IjAiIGZpdC1tYXJnaW4tdG9wPSIwIiBncmlkdG9sZXJhbmNlPSIxMCIgZ3VpZGV0b2xlcmFuY2U9IjEwIiBpZD0ibmFtZWR2aWV3NTg0NTciIGlua3NjYXBlOmN1cnJlbnQtbGF5ZXI9InN2ZzU4NDU1IiBpbmtzY2FwZTpjeD0iMzQuMTg2MzE2IiBpbmtzY2FwZTpjeT0iMTguNzQ1Mzk3IiBpbmtzY2FwZTpwYWdlb3BhY2l0eT0iMCIgaW5rc2NhcGU6cGFnZXNoYWRvdz0iMiIgaW5rc2NhcGU6d2luZG93LWhlaWdodD0iMTAxNyIgaW5rc2NhcGU6d2luZG93LW1heGltaXplZD0iMSIgaW5rc2NhcGU6d2luZG93LXdpZHRoPSIxOTIwIiBpbmtzY2FwZTp3aW5kb3cteD0iLTgiIGlua3NjYXBlOndpbmRvdy15PSItOCIgaW5rc2NhcGU6em9vbT0iMTEuODEyMzYyIiBvYmplY3R0b2xlcmFuY2U9IjEwIiBwYWdlY29sb3I9IiNmZmZmZmYiIHNob3dncmlkPSJmYWxzZSI+JiN4YTsJPC9zb2RpcG9kaTpuYW1lZHZpZXc+JiN4YTs8ZyBpZD0iZzU4NDUzIiB0cmFuc2Zvcm09InRyYW5zbGF0ZSgtMC43NSwtMC43NTA3KSI+JiN4YTsJPHRpdGxlIGlkPSJ0aXRsZTU4Mjg0Ij5QYWdlLTE8L3RpdGxlPiYjeGE7CTxnIGlkPSJncm91cDU5NTAtMSIgdHJhbnNmb3JtPSJ0cmFuc2xhdGUoMC43NSwtMC43NSkiPiYjeGE7CQk8dGl0bGUgaWQ9InRpdGxlNTgyODYiPkF6dXJlIEZpcmV3YWxsPC90aXRsZT4mI3hhOwkJPGcgaWQ9InNoYXBlNTk1MS0yIiB0cmFuc2Zvcm09InRyYW5zbGF0ZSg3LjU3NSwtMTQuMjQ5MykiPiYjeGE7CQkJPHRpdGxlIGlkPSJ0aXRsZTU4Mjg4Ij5TaGVldC41OTUxPC90aXRsZT4mI3hhOwkJCTxwYXRoIGlkPSJwYXRoNTgyOTAiIGlua3NjYXBlOmNvbm5lY3Rvci1jdXJ2YXR1cmU9IjAiIHN0eWxlPSJmaWxsOiM1OUI0RDk7IiBkPSJNNy4wOSwyMy4yOGMwLjY5LTQuMjcsNC4zNy03LjUzLDguODItNy41MyAgICAgYzQuOTQsMCw4Ljk1LDQuMDIsOC45NSw4Ljk4YzAsMC41OC0wLjA2LDEuMTQtMC4xNywxLjY5YzIuOSwwLjMyLDUuMTYsMi45OCw1LjE2LDYuMjJjMCwzLjQ1LTIuNTksNi4yOS01Ljc2LDYuMjkgICAgIGMtMC43MSwwLTE2LjQ2LDAtMTYuNDYsMEMzLjQzLDM4LjkyLDAsMzUuMzEsMCwzMC45N0MwLDI2LjkxLDMuMTIsMjMuNiw3LjA5LDIzLjI4eiIvPiYjeGE7CQk8L2c+JiN4YTsJCTxnIGlkPSJncm91cDU5NTItNCI+JiN4YTsJCQk8dGl0bGUgaWQ9InRpdGxlNTgyOTMiPlNoZWV0LjU5NTI8L3RpdGxlPiYjeGE7CQkJPGcgaWQ9Imdyb3VwNTk1My01IiB0cmFuc2Zvcm09InRyYW5zbGF0ZSg5Ljc1LC0xNS43NSkiPiYjeGE7CQkJCTx0aXRsZSBpZD0idGl0bGU1ODI5NSI+U2hlZXQuNTk1MzwvdGl0bGU+JiN4YTsJCQkJPGcgaWQ9InNoYXBlNTk1NC02IiB0cmFuc2Zvcm09InRyYW5zbGF0ZSgwLjc1LC0wLjc1KSI+JiN4YTsJCQkJCTx0aXRsZSBpZD0idGl0bGU1ODI5NyI+U2hlZXQuNTk1NDwvdGl0bGU+JiN4YTsJCQkJCTxwYXRoIGlkPSJwYXRoNTgyOTkiIGlua3NjYXBlOmNvbm5lY3Rvci1jdXJ2YXR1cmU9IjAiIHN0eWxlPSJmaWxsOiNERDU5MDA7IiBkPSJNMC43NSwzOC45M0MwLjM0LDM4LjkzLDAsMzguNTksMCwzOC4xOHYtMy43NiAgICAgICBjMC0wLjQxLDAuMzQtMC43NSwwLjc1LTAuNzVIOWMwLjQxLDAsMC43NSwwLjM0LDAuNzUsMC43NXYzLjc2YzAsMC40MS0wLjM0LDAuNzUtMC43NSwwLjc1TDAuNzUsMzguOTN6Ii8+JiN4YTsJCQkJPC9nPiYjeGE7CQkJCTxnIGlkPSJzaGFwZTU5NTUtOCI+JiN4YTsJCQkJCTx0aXRsZSBpZD0idGl0bGU1ODMwMiI+U2hlZXQuNTk1NTwvdGl0bGU+JiN4YTsJCQkJCTxwYXRoIGlkPSJwYXRoNTgzMDQiIGlua3NjYXBlOmNvbm5lY3Rvci1jdXJ2YXR1cmU9IjAiIHN0eWxlPSJmaWxsOiNBMEExQTI7IiBkPSJNOS43NSwzMy42N3YzLjc2SDEuNXYtMy43Nkg5Ljc1eiBNOS43NSwzMi4xNyAgICAgICBIMS41Yy0wLjgzLDAtMS41LDAuNjgtMS41LDEuNXYzLjc2YzAsMC44MiwwLjY3LDEuNSwxLjUsMS41aDguMjVjMC44MywwLDEuNS0wLjY4LDEuNS0xLjV2LTMuNzYgICAgICAgQzExLjI1LDMyLjg1LDEwLjU4LDMyLjE3LDkuNzUsMzIuMTd6Ii8+JiN4YTsJCQkJPC9nPiYjeGE7CQkJPC9nPiYjeGE7CQkJPGcgaWQ9Imdyb3VwNTk1Ni0xMCIgdHJhbnNmb3JtPSJ0cmFuc2xhdGUoMTkuNSwtMTUuNzUpIj4mI3hhOwkJCQk8dGl0bGUgaWQ9InRpdGxlNTgzMDgiPlNoZWV0LjU5NTY8L3RpdGxlPiYjeGE7CQkJCTxnIGlkPSJzaGFwZTU5NTctMTEiIHRyYW5zZm9ybT0idHJhbnNsYXRlKDAuNzUsLTAuNzUpIj4mI3hhOwkJCQkJPHRpdGxlIGlkPSJ0aXRsZTU4MzEwIj5TaGVldC41OTU3PC90aXRsZT4mI3hhOwkJCQkJPHBhdGggaWQ9InBhdGg1ODMxMiIgaW5rc2NhcGU6Y29ubmVjdG9yLWN1cnZhdHVyZT0iMCIgc3R5bGU9ImZpbGw6I0JBMTQxQTsiIGQ9Ik0wLjc1LDM4LjkzQzAuMzQsMzguOTMsMCwzOC41OSwwLDM4LjE4di0zLjc2ICAgICAgIGMwLTAuNDEsMC4zNC0wLjc1LDAuNzUtMC43NUg5YzAuNDEsMCwwLjc1LDAuMzQsMC43NSwwLjc1djMuNzZjMCwwLjQxLTAuMzQsMC43NS0wLjc1LDAuNzVMMC43NSwzOC45M3oiLz4mI3hhOwkJCQk8L2c+JiN4YTsJCQkJPGcgaWQ9InNoYXBlNTk1OC0xMyI+JiN4YTsJCQkJCTx0aXRsZSBpZD0idGl0bGU1ODMxNSI+U2hlZXQuNTk1ODwvdGl0bGU+JiN4YTsJCQkJCTxwYXRoIGlkPSJwYXRoNTgzMTciIGlua3NjYXBlOmNvbm5lY3Rvci1jdXJ2YXR1cmU9IjAiIHN0eWxlPSJmaWxsOiNBMEExQTI7IiBkPSJNOS43NSwzMy42N3YzLjc2SDEuNXYtMy43Nkg5Ljc1eiBNOS43NSwzMi4xNyAgICAgICBIMS41Yy0wLjgzLDAtMS41LDAuNjgtMS41LDEuNXYzLjc2YzAsMC44MiwwLjY3LDEuNSwxLjUsMS41aDguMjVjMC44MywwLDEuNS0wLjY4LDEuNS0xLjV2LTMuNzYgICAgICAgQzExLjI1LDMyLjg1LDEwLjU4LDMyLjE3LDkuNzUsMzIuMTd6Ii8+JiN4YTsJCQkJPC9nPiYjeGE7CQkJPC9nPiYjeGE7CQkJPGcgaWQ9Imdyb3VwNTk1OS0xNSIgdHJhbnNmb3JtPSJ0cmFuc2xhdGUoMCwtMTUuNzUpIj4mI3hhOwkJCQk8dGl0bGUgaWQ9InRpdGxlNTgzMjEiPlNoZWV0LjU5NTk8L3RpdGxlPiYjeGE7CQkJCTxnIGlkPSJzaGFwZTU5NjAtMTYiIHRyYW5zZm9ybT0idHJhbnNsYXRlKDAuNzUsLTAuNzUpIj4mI3hhOwkJCQkJPHRpdGxlIGlkPSJ0aXRsZTU4MzIzIj5TaGVldC41OTYwPC90aXRsZT4mI3hhOwkJCQkJPHBhdGggaWQ9InBhdGg1ODMyNSIgaW5rc2NhcGU6Y29ubmVjdG9yLWN1cnZhdHVyZT0iMCIgc3R5bGU9ImZpbGw6I0JBMTQxQTsiIGQ9Ik0wLjc1LDM4LjkzQzAuMzQsMzguOTMsMCwzOC41OSwwLDM4LjE4di0zLjc2ICAgICAgIGMwLTAuNDEsMC4zNC0wLjc1LDAuNzUtMC43NUg5YzAuNDEsMCwwLjc1LDAuMzQsMC43NSwwLjc1djMuNzZjMCwwLjQxLTAuMzQsMC43NS0wLjc1LDAuNzVMMC43NSwzOC45M3oiLz4mI3hhOwkJCQk8L2c+JiN4YTsJCQkJPGcgaWQ9InNoYXBlNTk2MS0xOCI+JiN4YTsJCQkJCTx0aXRsZSBpZD0idGl0bGU1ODMyOCI+U2hlZXQuNTk2MTwvdGl0bGU+JiN4YTsJCQkJCTxwYXRoIGlkPSJwYXRoNTgzMzAiIGlua3NjYXBlOmNvbm5lY3Rvci1jdXJ2YXR1cmU9IjAiIHN0eWxlPSJmaWxsOiNBMEExQTI7IiBkPSJNOS43NSwzMy42N3YzLjc2SDEuNXYtMy43Nkg5Ljc1eiBNOS43NSwzMi4xNyAgICAgICBIMS41Yy0wLjgzLDAtMS41LDAuNjgtMS41LDEuNXYzLjc2YzAsMC44MiwwLjY3LDEuNSwxLjUsMS41aDguMjVjMC44MywwLDEuNS0wLjY4LDEuNS0xLjV2LTMuNzYgICAgICAgQzExLjI1LDMyLjg1LDEwLjU4LDMyLjE3LDkuNzUsMzIuMTd6Ii8+JiN4YTsJCQkJPC9nPiYjeGE7CQkJPC9nPiYjeGE7CQkJPGcgaWQ9Imdyb3VwNTk2Mi0yMCIgdHJhbnNmb3JtPSJ0cmFuc2xhdGUoOS43NSwtMTAuNSkiPiYjeGE7CQkJCTx0aXRsZSBpZD0idGl0bGU1ODMzNCI+U2hlZXQuNTk2MjwvdGl0bGU+JiN4YTsJCQkJPGcgaWQ9InNoYXBlNTk2My0yMSIgdHJhbnNmb3JtPSJ0cmFuc2xhdGUoMC43NSwtMC43NSkiPiYjeGE7CQkJCQk8dGl0bGUgaWQ9InRpdGxlNTgzMzYiPlNoZWV0LjU5NjM8L3RpdGxlPiYjeGE7CQkJCQk8cGF0aCBpZD0icGF0aDU4MzM4IiBpbmtzY2FwZTpjb25uZWN0b3ItY3VydmF0dXJlPSIwIiBzdHlsZT0iZmlsbDojQkExNDFBOyIgZD0iTTAuNzUsMzguOTNDMC4zNCwzOC45MywwLDM4LjU5LDAsMzguMTh2LTMuNzYgICAgICAgYzAtMC40MSwwLjM0LTAuNzUsMC43NS0wLjc1SDljMC40MSwwLDAuNzUsMC4zNCwwLjc1LDAuNzV2My43NmMwLDAuNDEtMC4zNCwwLjc1LTAuNzUsMC43NUwwLjc1LDM4LjkzeiIvPiYjeGE7CQkJCTwvZz4mI3hhOwkJCQk8ZyBpZD0ic2hhcGU1OTY0LTIzIj4mI3hhOwkJCQkJPHRpdGxlIGlkPSJ0aXRsZTU4MzQxIj5TaGVldC41OTY0PC90aXRsZT4mI3hhOwkJCQkJPHBhdGggaWQ9InBhdGg1ODM0MyIgaW5rc2NhcGU6Y29ubmVjdG9yLWN1cnZhdHVyZT0iMCIgc3R5bGU9ImZpbGw6I0EwQTFBMjsiIGQ9Ik05Ljc1LDMzLjY3djMuNzZIMS41di0zLjc2SDkuNzV6IE05Ljc1LDMyLjE3ICAgICAgIEgxLjVjLTAuODMsMC0xLjUsMC42OC0xLjUsMS41djMuNzZjMCwwLjgyLDAuNjcsMS41LDEuNSwxLjVoOC4yNWMwLjgzLDAsMS41LTAuNjgsMS41LTEuNXYtMy43NiAgICAgICBDMTEuMjUsMzIuODUsMTAuNTgsMzIuMTcsOS43NSwzMi4xN3oiLz4mI3hhOwkJCQk8L2c+JiN4YTsJCQk8L2c+JiN4YTsJCQk8ZyBpZD0iZ3JvdXA1OTY1LTI1IiB0cmFuc2Zvcm09InRyYW5zbGF0ZSgwLC01LjI1KSI+JiN4YTsJCQkJPHRpdGxlIGlkPSJ0aXRsZTU4MzQ3Ij5TaGVldC41OTY1PC90aXRsZT4mI3hhOwkJCQk8ZyBpZD0ic2hhcGU1OTY2LTI2IiB0cmFuc2Zvcm09InRyYW5zbGF0ZSgwLjc1LC0wLjc1KSI+JiN4YTsJCQkJCTx0aXRsZSBpZD0idGl0bGU1ODM0OSI+U2hlZXQuNTk2NjwvdGl0bGU+JiN4YTsJCQkJCTxwYXRoIGlkPSJwYXRoNTgzNTEiIGlua3NjYXBlOmNvbm5lY3Rvci1jdXJ2YXR1cmU9IjAiIHN0eWxlPSJmaWxsOiNERDU5MDA7IiBkPSJNMC43NSwzOC45M0MwLjM0LDM4LjkzLDAsMzguNTksMCwzOC4xOHYtMy43NiAgICAgICBjMC0wLjQxLDAuMzQtMC43NSwwLjc1LTAuNzVIOWMwLjQxLDAsMC43NSwwLjM0LDAuNzUsMC43NXYzLjc2YzAsMC40MS0wLjM0LDAuNzUtMC43NSwwLjc1TDAuNzUsMzguOTN6Ii8+JiN4YTsJCQkJPC9nPiYjeGE7CQkJCTxnIGlkPSJzaGFwZTU5NjctMjgiPiYjeGE7CQkJCQk8dGl0bGUgaWQ9InRpdGxlNTgzNTQiPlNoZWV0LjU5Njc8L3RpdGxlPiYjeGE7CQkJCQk8cGF0aCBpZD0icGF0aDU4MzU2IiBpbmtzY2FwZTpjb25uZWN0b3ItY3VydmF0dXJlPSIwIiBzdHlsZT0iZmlsbDojQTBBMUEyOyIgZD0iTTkuNzUsMzMuNjd2My43NkgxLjV2LTMuNzZIOS43NXogTTkuNzUsMzIuMTcgICAgICAgSDEuNWMtMC44MywwLTEuNSwwLjY4LTEuNSwxLjV2My43NmMwLDAuODIsMC42NywxLjUsMS41LDEuNWg4LjI1YzAuODMsMCwxLjUtMC42OCwxLjUtMS41di0zLjc2ICAgICAgIEMxMS4yNSwzMi44NSwxMC41OCwzMi4xNyw5Ljc1LDMyLjE3eiIvPiYjeGE7CQkJCTwvZz4mI3hhOwkJCTwvZz4mI3hhOwkJCTxnIGlkPSJncm91cDU5NjgtMzAiIHRyYW5zZm9ybT0idHJhbnNsYXRlKDAsLTEwLjUpIj4mI3hhOwkJCQk8dGl0bGUgaWQ9InRpdGxlNTgzNjAiPlNoZWV0LjU5Njg8L3RpdGxlPiYjeGE7CQkJCTxnIGlkPSJzaGFwZTU5NjktMzEiIHRyYW5zZm9ybT0idHJhbnNsYXRlKDAuNzUsLTAuNzUpIj4mI3hhOwkJCQkJPHRpdGxlIGlkPSJ0aXRsZTU4MzYyIj5TaGVldC41OTY5PC90aXRsZT4mI3hhOwkJCQkJPHBhdGggaWQ9InBhdGg1ODM2NCIgaW5rc2NhcGU6Y29ubmVjdG9yLWN1cnZhdHVyZT0iMCIgc3R5bGU9ImZpbGw6I0JBMTQxQTsiIGQ9Ik0wLjc1LDM4LjkzQzAuMzQsMzguOTMsMCwzOC41OSwwLDM4LjE4di0zLjc2ICAgICAgIGMwLTAuNDEsMC4zNC0wLjc1LDAuNzUtMC43NUg5YzAuNDEsMCwwLjc1LDAuMzQsMC43NSwwLjc1djMuNzZjMCwwLjQxLTAuMzQsMC43NS0wLjc1LDAuNzVMMC43NSwzOC45M3oiLz4mI3hhOwkJCQk8L2c+JiN4YTsJCQkJPGcgaWQ9InNoYXBlNTk3MC0zMyI+JiN4YTsJCQkJCTx0aXRsZSBpZD0idGl0bGU1ODM2NyI+U2hlZXQuNTk3MDwvdGl0bGU+JiN4YTsJCQkJCTxwYXRoIGlkPSJwYXRoNTgzNjkiIGlua3NjYXBlOmNvbm5lY3Rvci1jdXJ2YXR1cmU9IjAiIHN0eWxlPSJmaWxsOiNBMEExQTI7IiBkPSJNOS43NSwzMy42N3YzLjc2SDEuNXYtMy43Nkg5Ljc1eiBNOS43NSwzMi4xNyAgICAgICBIMS41Yy0wLjgzLDAtMS41LDAuNjgtMS41LDEuNXYzLjc2YzAsMC44MiwwLjY3LDEuNSwxLjUsMS41aDguMjVjMC44MywwLDEuNS0wLjY4LDEuNS0xLjV2LTMuNzYgICAgICAgQzExLjI1LDMyLjg1LDEwLjU4LDMyLjE3LDkuNzUsMzIuMTd6Ii8+JiN4YTsJCQkJPC9nPiYjeGE7CQkJPC9nPiYjeGE7CQkJPGcgaWQ9Imdyb3VwNTk3MS0zNSIgdHJhbnNmb3JtPSJ0cmFuc2xhdGUoOS43NSkiPiYjeGE7CQkJCTx0aXRsZSBpZD0idGl0bGU1ODM3MyI+U2hlZXQuNTk3MTwvdGl0bGU+JiN4YTsJCQkJPGcgaWQ9InNoYXBlNTk3Mi0zNiIgdHJhbnNmb3JtPSJ0cmFuc2xhdGUoMC43NSwtMC43NSkiPiYjeGE7CQkJCQk8dGl0bGUgaWQ9InRpdGxlNTgzNzUiPlNoZWV0LjU5NzI8L3RpdGxlPiYjeGE7CQkJCQk8cGF0aCBpZD0icGF0aDU4Mzc3IiBpbmtzY2FwZTpjb25uZWN0b3ItY3VydmF0dXJlPSIwIiBzdHlsZT0iZmlsbDojQkExNDFBOyIgZD0iTTAuNzUsMzguOTNDMC4zNCwzOC45MywwLDM4LjU5LDAsMzguMTh2LTMuNzYgICAgICAgYzAtMC40MSwwLjM0LTAuNzUsMC43NS0wLjc1SDljMC40MSwwLDAuNzUsMC4zNCwwLjc1LDAuNzV2My43NmMwLDAuNDEtMC4zNCwwLjc1LTAuNzUsMC43NUwwLjc1LDM4LjkzeiIvPiYjeGE7CQkJCTwvZz4mI3hhOwkJCQk8ZyBpZD0ic2hhcGU1OTczLTM4Ij4mI3hhOwkJCQkJPHRpdGxlIGlkPSJ0aXRsZTU4MzgwIj5TaGVldC41OTczPC90aXRsZT4mI3hhOwkJCQkJPHBhdGggaWQ9InBhdGg1ODM4MiIgaW5rc2NhcGU6Y29ubmVjdG9yLWN1cnZhdHVyZT0iMCIgc3R5bGU9ImZpbGw6I0EwQTFBMjsiIGQ9Ik05Ljc1LDMzLjY3djMuNzZIMS41di0zLjc2SDkuNzV6IE05Ljc1LDMyLjE3ICAgICAgIEgxLjVjLTAuODMsMC0xLjUsMC42OC0xLjUsMS41djMuNzZjMCwwLjgyLDAuNjcsMS41LDEuNSwxLjVoOC4yNWMwLjgzLDAsMS41LTAuNjgsMS41LTEuNXYtMy43NiAgICAgICBDMTEuMjUsMzIuODUsMTAuNTgsMzIuMTcsOS43NSwzMi4xN3oiLz4mI3hhOwkJCQk8L2c+JiN4YTsJCQk8L2c+JiN4YTsJCQk8ZyBpZD0iZ3JvdXA1OTc0LTQwIiB0cmFuc2Zvcm09InRyYW5zbGF0ZSgxOS41LC01LjI1KSI+JiN4YTsJCQkJPHRpdGxlIGlkPSJ0aXRsZTU4Mzg2Ij5TaGVldC41OTc0PC90aXRsZT4mI3hhOwkJCQk8ZyBpZD0ic2hhcGU1OTc1LTQxIiB0cmFuc2Zvcm09InRyYW5zbGF0ZSgwLjc1LC0wLjc1KSI+JiN4YTsJCQkJCTx0aXRsZSBpZD0idGl0bGU1ODM4OCI+U2hlZXQuNTk3NTwvdGl0bGU+JiN4YTsJCQkJCTxwYXRoIGlkPSJwYXRoNTgzOTAiIGlua3NjYXBlOmNvbm5lY3Rvci1jdXJ2YXR1cmU9IjAiIHN0eWxlPSJmaWxsOiNCQTE0MUE7IiBkPSJNMC43NSwzOC45M0MwLjM0LDM4LjkzLDAsMzguNTksMCwzOC4xOHYtMy43NiAgICAgICBjMC0wLjQxLDAuMzQtMC43NSwwLjc1LTAuNzVIOWMwLjQxLDAsMC43NSwwLjM0LDAuNzUsMC43NXYzLjc2YzAsMC40MS0wLjM0LDAuNzUtMC43NSwwLjc1TDAuNzUsMzguOTN6Ii8+JiN4YTsJCQkJPC9nPiYjeGE7CQkJCTxnIGlkPSJzaGFwZTU5NzYtNDMiPiYjeGE7CQkJCQk8dGl0bGUgaWQ9InRpdGxlNTgzOTMiPlNoZWV0LjU5NzY8L3RpdGxlPiYjeGE7CQkJCQk8cGF0aCBpZD0icGF0aDU4Mzk1IiBpbmtzY2FwZTpjb25uZWN0b3ItY3VydmF0dXJlPSIwIiBzdHlsZT0iZmlsbDojQTBBMUEyOyIgZD0iTTkuNzUsMzMuNjd2My43NkgxLjV2LTMuNzZIOS43NXogTTkuNzUsMzIuMTcgICAgICAgSDEuNWMtMC44MywwLTEuNSwwLjY4LTEuNSwxLjV2My43NmMwLDAuODIsMC42NywxLjUsMS41LDEuNWg4LjI1YzAuODMsMCwxLjUtMC42OCwxLjUtMS41di0zLjc2ICAgICAgIEMxMS4yNSwzMi44NSwxMC41OCwzMi4xNyw5Ljc1LDMyLjE3eiIvPiYjeGE7CQkJCTwvZz4mI3hhOwkJCTwvZz4mI3hhOwkJCTxnIGlkPSJncm91cDU5NzctNDUiIHRyYW5zZm9ybT0idHJhbnNsYXRlKDE5LjUsLTEwLjUpIj4mI3hhOwkJCQk8dGl0bGUgaWQ9InRpdGxlNTgzOTkiPlNoZWV0LjU5Nzc8L3RpdGxlPiYjeGE7CQkJCTxnIGlkPSJzaGFwZTU5NzgtNDYiIHRyYW5zZm9ybT0idHJhbnNsYXRlKDAuNzUsLTAuNzUpIj4mI3hhOwkJCQkJPHRpdGxlIGlkPSJ0aXRsZTU4NDAxIj5TaGVldC41OTc4PC90aXRsZT4mI3hhOwkJCQkJPHBhdGggaWQ9InBhdGg1ODQwMyIgaW5rc2NhcGU6Y29ubmVjdG9yLWN1cnZhdHVyZT0iMCIgc3R5bGU9ImZpbGw6I0JBMTQxQTsiIGQ9Ik0wLjc1LDM4LjkzQzAuMzQsMzguOTMsMCwzOC41OSwwLDM4LjE4di0zLjc2ICAgICAgIGMwLTAuNDEsMC4zNC0wLjc1LDAuNzUtMC43NUg5YzAuNDEsMCwwLjc1LDAuMzQsMC43NSwwLjc1djMuNzZjMCwwLjQxLTAuMzQsMC43NS0wLjc1LDAuNzVMMC43NSwzOC45M3oiLz4mI3hhOwkJCQk8L2c+JiN4YTsJCQkJPGcgaWQ9InNoYXBlNTk3OS00OCI+JiN4YTsJCQkJCTx0aXRsZSBpZD0idGl0bGU1ODQwNiI+U2hlZXQuNTk3OTwvdGl0bGU+JiN4YTsJCQkJCTxwYXRoIGlkPSJwYXRoNTg0MDgiIGlua3NjYXBlOmNvbm5lY3Rvci1jdXJ2YXR1cmU9IjAiIHN0eWxlPSJmaWxsOiNBMEExQTI7IiBkPSJNOS43NSwzMy42N3YzLjc2SDEuNXYtMy43Nkg5Ljc1eiBNOS43NSwzMi4xNyAgICAgICBIMS41Yy0wLjgzLDAtMS41LDAuNjgtMS41LDEuNXYzLjc2YzAsMC44MiwwLjY3LDEuNSwxLjUsMS41aDguMjVjMC44MywwLDEuNS0wLjY4LDEuNS0xLjV2LTMuNzYgICAgICAgQzExLjI1LDMyLjg1LDEwLjU4LDMyLjE3LDkuNzUsMzIuMTd6Ii8+JiN4YTsJCQkJPC9nPiYjeGE7CQkJPC9nPiYjeGE7CQkJPGcgaWQ9Imdyb3VwNTk4MC01MCIgdHJhbnNmb3JtPSJ0cmFuc2xhdGUoOS43NSwtNS4yNSkiPiYjeGE7CQkJCTx0aXRsZSBpZD0idGl0bGU1ODQxMiI+U2hlZXQuNTk4MDwvdGl0bGU+JiN4YTsJCQkJPGcgaWQ9InNoYXBlNTk4MS01MSIgdHJhbnNmb3JtPSJ0cmFuc2xhdGUoMC43NSwtMC43NSkiPiYjeGE7CQkJCQk8dGl0bGUgaWQ9InRpdGxlNTg0MTQiPlNoZWV0LjU5ODE8L3RpdGxlPiYjeGE7CQkJCQk8cGF0aCBpZD0icGF0aDU4NDE2IiBpbmtzY2FwZTpjb25uZWN0b3ItY3VydmF0dXJlPSIwIiBzdHlsZT0iZmlsbDojQkExNDFBOyIgZD0iTTAuNzUsMzguOTNDMC4zNCwzOC45MywwLDM4LjU5LDAsMzguMTh2LTMuNzYgICAgICAgYzAtMC40MSwwLjM0LTAuNzUsMC43NS0wLjc1SDljMC40MSwwLDAuNzUsMC4zNCwwLjc1LDAuNzV2My43NmMwLDAuNDEtMC4zNCwwLjc1LTAuNzUsMC43NUwwLjc1LDM4LjkzeiIvPiYjeGE7CQkJCTwvZz4mI3hhOwkJCQk8ZyBpZD0ic2hhcGU1OTgyLTUzIj4mI3hhOwkJCQkJPHRpdGxlIGlkPSJ0aXRsZTU4NDE5Ij5TaGVldC41OTgyPC90aXRsZT4mI3hhOwkJCQkJPHBhdGggaWQ9InBhdGg1ODQyMSIgaW5rc2NhcGU6Y29ubmVjdG9yLWN1cnZhdHVyZT0iMCIgc3R5bGU9ImZpbGw6I0EwQTFBMjsiIGQ9Ik05Ljc1LDMzLjY3djMuNzZIMS41di0zLjc2SDkuNzV6IE05Ljc1LDMyLjE3ICAgICAgIEgxLjVjLTAuODMsMC0xLjUsMC42OC0xLjUsMS41djMuNzZjMCwwLjgyLDAuNjcsMS41LDEuNSwxLjVoOC4yNWMwLjgzLDAsMS41LTAuNjgsMS41LTEuNXYtMy43NiAgICAgICBDMTEuMjUsMzIuODUsMTAuNTgsMzIuMTcsOS43NSwzMi4xN3oiLz4mI3hhOwkJCQk8L2c+JiN4YTsJCQk8L2c+JiN4YTsJCQk8ZyBpZD0iZ3JvdXA1OTgzLTU1IiB0cmFuc2Zvcm09InRyYW5zbGF0ZSgxOS41KSI+JiN4YTsJCQkJPHRpdGxlIGlkPSJ0aXRsZTU4NDI1Ij5TaGVldC41OTgzPC90aXRsZT4mI3hhOwkJCQk8ZyBpZD0ic2hhcGU1OTg0LTU2IiB0cmFuc2Zvcm09InRyYW5zbGF0ZSgwLjc1LC0wLjc1KSI+JiN4YTsJCQkJCTx0aXRsZSBpZD0idGl0bGU1ODQyNyI+U2hlZXQuNTk4NDwvdGl0bGU+JiN4YTsJCQkJCTxwYXRoIGlkPSJwYXRoNTg0MjkiIGlua3NjYXBlOmNvbm5lY3Rvci1jdXJ2YXR1cmU9IjAiIHN0eWxlPSJmaWxsOiNERDU5MDA7IiBkPSJNMC43NSwzOC45M0MwLjM0LDM4LjkzLDAsMzguNTksMCwzOC4xOHYtMy43NiAgICAgICBjMC0wLjQxLDAuMzQtMC43NSwwLjc1LTAuNzVIOWMwLjQxLDAsMC43NSwwLjM0LDAuNzUsMC43NXYzLjc2YzAsMC40MS0wLjM0LDAuNzUtMC43NSwwLjc1TDAuNzUsMzguOTN6Ii8+JiN4YTsJCQkJPC9nPiYjeGE7CQkJCTxnIGlkPSJzaGFwZTU5ODUtNTgiPiYjeGE7CQkJCQk8dGl0bGUgaWQ9InRpdGxlNTg0MzIiPlNoZWV0LjU5ODU8L3RpdGxlPiYjeGE7CQkJCQk8cGF0aCBpZD0icGF0aDU4NDM0IiBpbmtzY2FwZTpjb25uZWN0b3ItY3VydmF0dXJlPSIwIiBzdHlsZT0iZmlsbDojQTBBMUEyOyIgZD0iTTkuNzUsMzMuNjd2My43NkgxLjV2LTMuNzZIOS43NXogTTkuNzUsMzIuMTcgICAgICAgSDEuNWMtMC44MywwLTEuNSwwLjY4LTEuNSwxLjV2My43NmMwLDAuODIsMC42NywxLjUsMS41LDEuNWg4LjI1YzAuODMsMCwxLjUtMC42OCwxLjUtMS41di0zLjc2ICAgICAgIEMxMS4yNSwzMi44NSwxMC41OCwzMi4xNyw5Ljc1LDMyLjE3eiIvPiYjeGE7CQkJCTwvZz4mI3hhOwkJCTwvZz4mI3hhOwkJCTxnIGlkPSJncm91cDU5ODYtNjAiPiYjeGE7CQkJCTx0aXRsZSBpZD0idGl0bGU1ODQzOCI+U2hlZXQuNTk4NjwvdGl0bGU+JiN4YTsJCQkJPGcgaWQ9InNoYXBlNTk4Ny02MSIgdHJhbnNmb3JtPSJ0cmFuc2xhdGUoMC43NSwtMC43NSkiPiYjeGE7CQkJCQk8dGl0bGUgaWQ9InRpdGxlNTg0NDAiPlNoZWV0LjU5ODc8L3RpdGxlPiYjeGE7CQkJCQk8cGF0aCBpZD0icGF0aDU4NDQyIiBpbmtzY2FwZTpjb25uZWN0b3ItY3VydmF0dXJlPSIwIiBzdHlsZT0iZmlsbDojQkExNDFBOyIgZD0iTTAuNzUsMzguOTNDMC4zNCwzOC45MywwLDM4LjU5LDAsMzguMTh2LTMuNzYgICAgICAgYzAtMC40MSwwLjM0LTAuNzUsMC43NS0wLjc1SDljMC40MSwwLDAuNzUsMC4zNCwwLjc1LDAuNzV2My43NmMwLDAuNDEtMC4zNCwwLjc1LTAuNzUsMC43NUwwLjc1LDM4LjkzeiIvPiYjeGE7CQkJCTwvZz4mI3hhOwkJCQk8ZyBpZD0ic2hhcGU1OTg4LTYzIj4mI3hhOwkJCQkJPHRpdGxlIGlkPSJ0aXRsZTU4NDQ1Ij5TaGVldC41OTg4PC90aXRsZT4mI3hhOwkJCQkJPHBhdGggaWQ9InBhdGg1ODQ0NyIgaW5rc2NhcGU6Y29ubmVjdG9yLWN1cnZhdHVyZT0iMCIgc3R5bGU9ImZpbGw6I0EwQTFBMjsiIGQ9Ik05Ljc1LDMzLjY3djMuNzZIMS41di0zLjc2SDkuNzV6IE05Ljc1LDMyLjE3ICAgICAgIEgxLjVjLTAuODMsMC0xLjUsMC42OC0xLjUsMS41djMuNzZjMCwwLjgyLDAuNjcsMS41LDEuNSwxLjVoOC4yNWMwLjgzLDAsMS41LTAuNjgsMS41LTEuNXYtMy43NiAgICAgICBDMTEuMjUsMzIuODUsMTAuNTgsMzIuMTcsOS43NSwzMi4xN3oiLz4mI3hhOwkJCQk8L2c+JiN4YTsJCQk8L2c+JiN4YTsJCTwvZz4mI3hhOwk8L2c+JiN4YTs8L2c+JiN4YTs8L3N2Zz4=;strokeColor=#CCE5FF;fillColor=#FFFFFF;" vertex="1" parent="1">
          <mxGeometry x="710" y="521.5" width="57" height="57" as="geometry" />
        </mxCell>
        <mxCell id="H6dcehHfoGX2-H9ADlRJ-70" value="" style="dashed=0;outlineConnect=0;html=1;align=center;labelPosition=center;verticalLabelPosition=bottom;verticalAlign=top;shape=mxgraph.webicons.github;gradientColor=#DFDEDE;strokeColor=#CCE5FF;" vertex="1" parent="1">
          <mxGeometry x="1038.6" y="936" width="102.4" height="102.4" as="geometry" />
        </mxCell>
        <mxCell id="H6dcehHfoGX2-H9ADlRJ-71" value="" style="shape=image;verticalLabelPosition=bottom;labelBackgroundColor=#ffffff;verticalAlign=top;aspect=fixed;imageAspect=0;image=data:image/svg+xml,PHN2ZyB4bWxuczpjYz0iaHR0cDovL2NyZWF0aXZlY29tbW9ucy5vcmcvbnMjIiB4bWxuczpkYz0iaHR0cDovL3B1cmwub3JnL2RjL2VsZW1lbnRzLzEuMS8iIHhtbG5zOmlua3NjYXBlPSJodHRwOi8vd3d3Lmlua3NjYXBlLm9yZy9uYW1lc3BhY2VzL2lua3NjYXBlIiB4bWxuczpyZGY9Imh0dHA6Ly93d3cudzMub3JnLzE5OTkvMDIvMjItcmRmLXN5bnRheC1ucyMiIHhtbG5zOnNvZGlwb2RpPSJodHRwOi8vc29kaXBvZGkuc291cmNlZm9yZ2UubmV0L0RURC9zb2RpcG9kaS0wLmR0ZCIgeG1sbnM6c3ZnPSJodHRwOi8vd3d3LnczLm9yZy8yMDAwL3N2ZyIgeG1sbnM9Imh0dHA6Ly93d3cudzMub3JnLzIwMDAvc3ZnIiB4bWxuczp4bGluaz0iaHR0cDovL3d3dy53My5vcmcvMTk5OS94bGluayIgdmVyc2lvbj0iMS4xIiBpZD0ic3ZnNTY1NTEiIGlua3NjYXBlOnZlcnNpb249IjAuOTIuMyAoMjQwNTU0NiwgMjAxOC0wMy0xMSkiIHNvZGlwb2RpOmRvY25hbWU9InppcF8xLnN2ZyIgeD0iMHB4IiB5PSIwcHgiIHZpZXdCb3g9IjAgMCAzMS44OCAzNi40NCIgc3R5bGU9ImVuYWJsZS1iYWNrZ3JvdW5kOm5ldyAwIDAgMzEuODggMzYuNDQ7IiB4bWw6c3BhY2U9InByZXNlcnZlIj4mI3hhOzxzb2RpcG9kaTpuYW1lZHZpZXcgYm9yZGVyY29sb3I9IiM2NjY2NjYiIGJvcmRlcm9wYWNpdHk9IjEiIGZpdC1tYXJnaW4tYm90dG9tPSIwIiBmaXQtbWFyZ2luLWxlZnQ9IjAiIGZpdC1tYXJnaW4tcmlnaHQ9IjAiIGZpdC1tYXJnaW4tdG9wPSIwIiBncmlkdG9sZXJhbmNlPSIxMCIgZ3VpZGV0b2xlcmFuY2U9IjEwIiBpZD0ibmFtZWR2aWV3NTY1NTMiIGlua3NjYXBlOmN1cnJlbnQtbGF5ZXI9InN2ZzU2NTUxIiBpbmtzY2FwZTpjeD0iMTguMjE4MTc2IiBpbmtzY2FwZTpjeT0iMjEuNjAxMzQ4IiBpbmtzY2FwZTpwYWdlb3BhY2l0eT0iMCIgaW5rc2NhcGU6cGFnZXNoYWRvdz0iMiIgaW5rc2NhcGU6d2luZG93LWhlaWdodD0iMTAxNyIgaW5rc2NhcGU6d2luZG93LW1heGltaXplZD0iMSIgaW5rc2NhcGU6d2luZG93LXdpZHRoPSIxOTIwIiBpbmtzY2FwZTp3aW5kb3cteD0iLTgiIGlua3NjYXBlOndpbmRvdy15PSItOCIgaW5rc2NhcGU6em9vbT0iMTUuMTY4OTU5IiBvYmplY3R0b2xlcmFuY2U9IjEwIiBwYWdlY29sb3I9IiNmZmZmZmYiIHNob3dncmlkPSJmYWxzZSI+JiN4YTsJPC9zb2RpcG9kaTpuYW1lZHZpZXc+JiN4YTs8ZyBpZD0iZzU2NTQ5IiB0cmFuc2Zvcm09InRyYW5zbGF0ZSgtMTAuOTI4NjI5LC0xLjE5NDYzKSI+JiN4YTsJPHRpdGxlIGlkPSJ0aXRsZTU2NTAxIj5QYWdlLTE8L3RpdGxlPiYjeGE7CTxnIGlkPSJncm91cDQzODItMSIgdHJhbnNmb3JtPSJ0cmFuc2xhdGUoMTAuOTI4NiwtNS4yMzUzNykiPiYjeGE7CQk8dGl0bGUgaWQ9InRpdGxlNTY1MDMiPlpJUCAjMTwvdGl0bGU+JiN4YTsJCTxnIGlkPSJzaGFwZTQzODMtMiIgdHJhbnNmb3JtPSJ0cmFuc2xhdGUoNC41NTQ1NikiPiYjeGE7CQkJPHRpdGxlIGlkPSJ0aXRsZTU2NTA1Ij5TaGVldC40MzgzPC90aXRsZT4mI3hhOwkJCTxwYXRoIGlkPSJwYXRoNTY1MDciIGlua3NjYXBlOmNvbm5lY3Rvci1jdXJ2YXR1cmU9IjAiIHN0eWxlPSJmaWxsOiNFMkU1RTc7IiBkPSJNMi4yOCw2LjQzQzEuMDIsNi40MywwLDcuNDYsMCw4LjcxdjMxLjg4ICAgICBjMCwxLjI1LDEuMDIsMi4yOCwyLjI4LDIuMjhoMjIuNzdjMS4yNSwwLDIuMjgtMS4wMywyLjI4LTIuMjhWMTUuNTRsLTkuMTEtOS4xMUgyLjI4eiIvPiYjeGE7CQk8L2c+JiN4YTsJCTxnIGlkPSJzaGFwZTQzODQtNCIgdHJhbnNmb3JtPSJ0cmFuc2xhdGUoMjIuNzcyOCwtMjcuMzI3NCkiPiYjeGE7CQkJPHRpdGxlIGlkPSJ0aXRsZTU2NTEwIj5TaGVldC40Mzg0PC90aXRsZT4mI3hhOwkJCTxwYXRoIGlkPSJwYXRoNTY1MTIiIGlua3NjYXBlOmNvbm5lY3Rvci1jdXJ2YXR1cmU9IjAiIHN0eWxlPSJmaWxsOiNCMEI3QkQ7IiBkPSJNMi4yOCw0Mi44N2g2LjgzTDAsMzMuNzZ2Ni44MyAgICAgQzAsNDEuODQsMS4wMiw0Mi44NywyLjI4LDQyLjg3eiIvPiYjeGE7CQk8L2c+JiN4YTsJCTxnIGlkPSJzaGFwZTQzODUtNiIgdHJhbnNmb3JtPSJ0cmFuc2xhdGUoMjUuMDUwMSwtMjAuNDk1NSkiPiYjeGE7CQkJPHRpdGxlIGlkPSJ0aXRsZTU2NTE1Ij5TaGVldC40Mzg1PC90aXRsZT4mI3hhOwkJCTxwYXRoIGlkPSJwYXRoNTY1MTciIGlua3NjYXBlOmNvbm5lY3Rvci1jdXJ2YXR1cmU9IjAiIHN0eWxlPSJmaWxsOiNDQUQxRDg7IiBkPSJNNi44Myw0Mi44N0wwLDM2LjA0aDYuODNWNDIuODd6Ii8+JiN4YTsJCTwvZz4mI3hhOwkJPGcgaWQ9InNoYXBlNDM4Ni04IiB0cmFuc2Zvcm09InRyYW5zbGF0ZSgwLC01LjY5MzIpIj4mI3hhOwkJCTx0aXRsZSBpZD0idGl0bGU1NjUyMCI+U2hlZXQuNDM4NjwvdGl0bGU+JiN4YTsJCQk8cGF0aCBpZD0icGF0aDU2NTIyIiBpbmtzY2FwZTpjb25uZWN0b3ItY3VydmF0dXJlPSIwIiBzdHlsZT0iZmlsbDojNTU2MDgwOyIgZD0iTTI3LjMzLDQxLjczYzAsMC42Mi0wLjUyLDEuMTQtMS4xNCwxLjE0SDEuMTQgICAgIEMwLjUxLDQyLjg3LDAsNDIuMzUsMCw0MS43M1YzMC4zNGMwLTAuNjIsMC41MS0xLjE0LDEuMTQtMS4xNGgyNS4wNWMwLjYyLDAsMS4xNCwwLjUyLDEuMTQsMS4xNEwyNy4zMyw0MS43M3oiLz4mI3hhOwkJPC9nPiYjeGE7CQk8ZyBpZD0ic2hhcGU0Mzg3LTEwIiB0cmFuc2Zvcm09InRyYW5zbGF0ZSg0LjU1NDU2LC00LjU1NDU2KSI+JiN4YTsJCQk8dGl0bGUgaWQ9InRpdGxlNTY1MjUiPlNoZWV0LjQzODc8L3RpdGxlPiYjeGE7CQkJPHBhdGggaWQ9InBhdGg1NjUyNyIgaW5rc2NhcGU6Y29ubmVjdG9yLWN1cnZhdHVyZT0iMCIgc3R5bGU9ImZpbGw6I0NBRDFEODsiIGQ9Ik0yMS42Myw0MS43M0gwdjEuMTRoMjEuNjMgICAgIGMwLjYzLDAsMS4xNC0wLjUyLDEuMTQtMS4xNHYtMS4xNEMyMi43Nyw0MS4yMiwyMi4yNiw0MS43MywyMS42Myw0MS43M3oiLz4mI3hhOwkJPC9nPiYjeGE7CQk8ZyBpZD0iZ3JvdXA0Mzg4LTEyIiB0cmFuc2Zvcm09InRyYW5zbGF0ZSg3LjAyNzE2LC05LjM0NzQxKSI+JiN4YTsJCQk8dGl0bGUgaWQ9InRpdGxlNTY1MzAiPlpJUC4zNzE2NTwvdGl0bGU+JiN4YTsJCQk8ZyBpZD0ic2hhcGU0Mzg5LTEzIj4mI3hhOwkJCQk8dGl0bGUgaWQ9InRpdGxlNTY1MzIiPlNoZWV0LjQzODk8L3RpdGxlPiYjeGE7CQkJCTxwYXRoIGlkPSJwYXRoNTY1MzQiIGlua3NjYXBlOmNvbm5lY3Rvci1jdXJ2YXR1cmU9IjAiIHN0eWxlPSJmaWxsOiNGRkZGRkY7IiBkPSJNNC4xOCwzNi41MXYwLjg0bC0yLjk5LDQuNTRsLTAuMTcsMC4xNGgzLjE2ICAgICAgdjAuODRIMHYtMC44NGwzLTQuNTRsMC4xOC0wLjE0SDB2LTAuODRINC4xOHoiLz4mI3hhOwkJCTwvZz4mI3hhOwkJCTxnIGlkPSJzaGFwZTQzOTAtMTUiIHRyYW5zZm9ybT0idHJhbnNsYXRlKDUuNjQxNTkpIj4mI3hhOwkJCQk8dGl0bGUgaWQ9InRpdGxlNTY1MzciPlNoZWV0LjQzOTA8L3RpdGxlPiYjeGE7CQkJCTxwYXRoIGlkPSJwYXRoNTY1MzkiIGlua3NjYXBlOmNvbm5lY3Rvci1jdXJ2YXR1cmU9IjAiIHN0eWxlPSJmaWxsOiNGRkZGRkY7IiBkPSJNMS4wNCw0Mi44N0gwdi02LjM2aDEuMDRWNDIuODd6Ii8+JiN4YTsJCQk8L2c+JiN4YTsJCQk8ZyBpZD0ic2hhcGU0MzkxLTE3IiB0cmFuc2Zvcm09InRyYW5zbGF0ZSg4LjI0NTEyKSI+JiN4YTsJCQkJPHRpdGxlIGlkPSJ0aXRsZTU2NTQyIj5TaGVldC40MzkxPC90aXRsZT4mI3hhOwkJCQk8cGF0aCBpZD0icGF0aDU2NTQ0IiBpbmtzY2FwZTpjb25uZWN0b3ItY3VydmF0dXJlPSIwIiBzdHlsZT0iZmlsbDojRkZGRkZGOyIgZD0iTTEuMDIsNDIuODdIMHYtNi4zNmgxLjgxICAgICAgYzAuMjcsMCwwLjUzLDAuMDQsMC43OSwwLjEzczAuNSwwLjIyLDAuNzEsMC4zOXMwLjM3LDAuMzgsMC41LDAuNjJDMy45NCwzNy45LDQsMzguMTcsNCwzOC40OGMwLDAuMzItMC4wNSwwLjYxLTAuMTYsMC44NyAgICAgIGMtMC4xMSwwLjI3LTAuMjYsMC40OS0wLjQ1LDAuNjZjLTAuMiwwLjE4LTAuNDMsMC4zMi0wLjcsMC40MmMtMC4yNywwLjA5LTAuNTgsMC4xNC0wLjkxLDAuMTRIMS4wMlY0Mi44N3ogTTEuMDIsMzcuM3YyLjUxICAgICAgaDAuOTRjMC4xMywwLDAuMjUtMC4wMiwwLjM4LTAuMDZjMC4xMi0wLjA0LDAuMjMtMC4xMSwwLjMzLTAuMjFzMC4xOS0wLjI0LDAuMjUtMC40MWMwLjA2LTAuMTgsMC4wOS0wLjM5LDAuMDktMC42NSAgICAgIGMwLTAuMTEtMC4wMS0wLjIzLTAuMDQtMC4zNmMtMC4wMy0wLjEzLTAuMDktMC4yNi0wLjE3LTAuMzljLTAuMDktMC4xMi0wLjIyLTAuMjItMC4zOC0wLjMxYy0wLjE1LTAuMDgtMC4zNy0wLjEyLTAuNjMtMC4xMiAgICAgIEgxLjAyeiIvPiYjeGE7CQkJPC9nPiYjeGE7CQk8L2c+JiN4YTsJPC9nPiYjeGE7PC9nPiYjeGE7PC9zdmc+;strokeColor=#CCE5FF;fillColor=#FFFFFF;" vertex="1" parent="1">
          <mxGeometry x="1073.8" y="890" width="32" height="36" as="geometry" />
        </mxCell>
        <mxCell id="H6dcehHfoGX2-H9ADlRJ-72" style="edgeStyle=orthogonalEdgeStyle;rounded=0;orthogonalLoop=1;jettySize=auto;html=1;entryX=0.5;entryY=0;entryDx=0;entryDy=0;exitX=0;exitY=0.5;exitDx=0;exitDy=0;strokeColor=#66FF66;" edge="1" parent="1" source="H6dcehHfoGX2-H9ADlRJ-9" target="jF0wqiFih3PrQ3tNJnIo-17">
          <mxGeometry relative="1" as="geometry">
            <mxPoint x="830" y="910" as="targetPoint" />
            <Array as="points">
              <mxPoint x="843" y="552" />
              <mxPoint x="810" y="552" />
              <mxPoint x="810" y="950" />
            </Array>
          </mxGeometry>
        </mxCell>
        <mxCell id="H6dcehHfoGX2-H9ADlRJ-95" style="edgeStyle=orthogonalEdgeStyle;rounded=0;orthogonalLoop=1;jettySize=auto;html=1;exitX=0;exitY=0.5;exitDx=0;exitDy=0;entryX=0;entryY=0.5;entryDx=0;entryDy=0;strokeColor=#FFB366;" edge="1" parent="1" source="H6dcehHfoGX2-H9ADlRJ-75" target="H6dcehHfoGX2-H9ADlRJ-21">
          <mxGeometry relative="1" as="geometry" />
        </mxCell>
        <mxCell id="H6dcehHfoGX2-H9ADlRJ-75" value="" style="rounded=0;whiteSpace=wrap;html=1;strokeColor=#CCE5FF;fillColor=#E6E6E6;" vertex="1" parent="1">
          <mxGeometry x="540" y="630" width="220" height="121.65" as="geometry" />
        </mxCell>
        <mxCell id="H6dcehHfoGX2-H9ADlRJ-76" value="" style="aspect=fixed;html=1;points=[];align=center;image;fontSize=12;image=img/lib/azure2/security/Key_Vaults.svg;strokeColor=#CCE5FF;fillColor=#FFFFFF;" vertex="1" parent="1">
          <mxGeometry x="606" y="660" width="68" height="68" as="geometry" />
        </mxCell>
        <mxCell id="H6dcehHfoGX2-H9ADlRJ-77" value="Azure Key Vault" style="text;html=1;align=center;verticalAlign=middle;resizable=0;points=[];autosize=1;strokeColor=none;fillColor=none;" vertex="1" parent="1">
          <mxGeometry x="592" y="731.6500000000001" width="100" height="20" as="geometry" />
        </mxCell>
        <mxCell id="H6dcehHfoGX2-H9ADlRJ-78" value="GitHub Azure Function zip release" style="text;html=1;align=center;verticalAlign=middle;resizable=0;points=[];autosize=1;strokeColor=none;fillColor=none;" vertex="1" parent="1">
          <mxGeometry x="995" y="1048.4" width="200" height="20" as="geometry" />
        </mxCell>
        <mxCell id="H6dcehHfoGX2-H9ADlRJ-79" value="Ghost docker image" style="text;html=1;align=center;verticalAlign=middle;resizable=0;points=[];autosize=1;strokeColor=none;fillColor=none;" vertex="1" parent="1">
          <mxGeometry x="746.31" y="1048.4" width="120" height="20" as="geometry" />
        </mxCell>
        <mxCell id="H6dcehHfoGX2-H9ADlRJ-80" value="Internet" style="text;html=1;align=center;verticalAlign=middle;resizable=0;points=[];autosize=1;strokeColor=none;fillColor=none;" vertex="1" parent="1">
          <mxGeometry x="-55" y="226.35" width="60" height="20" as="geometry" />
        </mxCell>
        <mxCell id="H6dcehHfoGX2-H9ADlRJ-81" value="Azure DNS" style="text;html=1;align=center;verticalAlign=middle;resizable=0;points=[];autosize=1;strokeColor=none;fillColor=none;" vertex="1" parent="1">
          <mxGeometry x="21" y="414.00000000000006" width="80" height="20" as="geometry" />
        </mxCell>
        <mxCell id="H6dcehHfoGX2-H9ADlRJ-82" value="Azure Front Door&lt;br&gt;" style="text;html=1;align=center;verticalAlign=middle;resizable=0;points=[];autosize=1;strokeColor=none;fillColor=none;" vertex="1" parent="1">
          <mxGeometry x="80" y="226.35" width="110" height="20" as="geometry" />
        </mxCell>
        <mxCell id="H6dcehHfoGX2-H9ADlRJ-83" value="Azure WAF" style="text;html=1;align=center;verticalAlign=middle;resizable=0;points=[];autosize=1;strokeColor=none;fillColor=none;" vertex="1" parent="1">
          <mxGeometry x="268" y="226.35000000000002" width="80" height="20" as="geometry" />
        </mxCell>
        <mxCell id="H6dcehHfoGX2-H9ADlRJ-88" value="DNS lookup" style="text;html=1;align=center;verticalAlign=middle;resizable=0;points=[];autosize=1;strokeColor=none;fillColor=none;" vertex="1" parent="1">
          <mxGeometry x="-20" y="338.35" width="80" height="20" as="geometry" />
        </mxCell>
        <mxCell id="H6dcehHfoGX2-H9ADlRJ-91" style="edgeStyle=orthogonalEdgeStyle;rounded=0;orthogonalLoop=1;jettySize=auto;html=1;entryX=0;entryY=0.25;entryDx=0;entryDy=0;" edge="1" parent="1" source="jF0wqiFih3PrQ3tNJnIo-4" target="H6dcehHfoGX2-H9ADlRJ-9">
          <mxGeometry relative="1" as="geometry">
            <Array as="points">
              <mxPoint x="800" y="274" />
              <mxPoint x="800" y="532" />
            </Array>
          </mxGeometry>
        </mxCell>
        <mxCell id="H6dcehHfoGX2-H9ADlRJ-92" value="Server FW rule" style="text;html=1;align=center;verticalAlign=middle;resizable=0;points=[];autosize=1;strokeColor=none;fillColor=none;" vertex="1" parent="1">
          <mxGeometry x="688.5" y="585.65" width="100" height="20" as="geometry" />
        </mxCell>
        <mxCell id="H6dcehHfoGX2-H9ADlRJ-94" style="edgeStyle=orthogonalEdgeStyle;rounded=0;orthogonalLoop=1;jettySize=auto;html=1;exitX=0;exitY=1;exitDx=0;exitDy=0;" edge="1" parent="1" source="H6dcehHfoGX2-H9ADlRJ-9" target="H6dcehHfoGX2-H9ADlRJ-76">
          <mxGeometry relative="1" as="geometry">
            <Array as="points">
              <mxPoint x="810" y="592" />
              <mxPoint x="810" y="626" />
              <mxPoint x="640" y="626" />
            </Array>
          </mxGeometry>
        </mxCell>
        <mxCell id="H6dcehHfoGX2-H9ADlRJ-97" value="Legend Arrow Colours" style="align=left;fontSize=16;fontStyle=1;strokeColor=none;fillColor=none;fontColor=#4D4D4D;spacingTop=-8;resizable=0;" vertex="1" parent="1">
          <mxGeometry x="-61" y="730" width="180" height="30" as="geometry" />
        </mxCell>
        <mxCell id="H6dcehHfoGX2-H9ADlRJ-98" value="" style="shape=table;html=1;whiteSpace=wrap;startSize=0;container=1;collapsible=0;childLayout=tableLayout;fillColor=#FFB366;align=left;spacingLeft=10;strokeColor=none;rounded=1;arcSize=11;fontColor=#FFFFFF;resizable=0;points=[[0.25,0,0],[0.5,0,0],[0.75,0,0],[1,0.25,0],[1,0.5,0],[1,0.75,0],[0.75,1,0],[0.5,1,0],[0.25,1,0],[0,0.75,0],[0,0.5,0],[0,0.25,0]];" vertex="1" parent="1">
          <mxGeometry x="-61" y="760" width="180" height="90" as="geometry" />
        </mxCell>
        <mxCell id="H6dcehHfoGX2-H9ADlRJ-99" value="Logging/Monitoring Flow" style="shape=partialRectangle;html=1;whiteSpace=wrap;connectable=0;fillColor=#FFB366;top=0;left=0;bottom=0;right=0;overflow=hidden;pointerEvents=1;align=left;spacingLeft=10;strokeColor=#FFB366;fontColor=#FFFFFF;" vertex="1" parent="H6dcehHfoGX2-H9ADlRJ-98">
          <mxGeometry width="180" height="30" as="geometry" />
        </mxCell>
        <mxCell id="H6dcehHfoGX2-H9ADlRJ-100" value="CI/CD Flow" style="shape=partialRectangle;html=1;whiteSpace=wrap;connectable=0;fillColor=#66FF66;top=0;left=0;bottom=0;right=0;overflow=hidden;pointerEvents=1;align=left;spacingLeft=10;fontColor=#FFFFFF;strokeColor=#66FF66;" vertex="1" parent="H6dcehHfoGX2-H9ADlRJ-98">
          <mxGeometry y="30" width="180" height="30" as="geometry" />
        </mxCell>
        <mxCell id="H6dcehHfoGX2-H9ADlRJ-101" value="Application Flow" style="shape=partialRectangle;html=1;whiteSpace=wrap;connectable=0;fillColor=#000000;top=0;left=0;bottom=0;right=0;overflow=hidden;pointerEvents=1;align=left;spacingLeft=10;fontColor=#FFFFFF;strokeColor=#CCE5FF;" vertex="1" parent="H6dcehHfoGX2-H9ADlRJ-98">
          <mxGeometry y="60" width="180" height="30" as="geometry" />
        </mxCell>
      </root>
    </mxGraphModel>
  </diagram>
</mxfile>
